<?xml version="1.0" encoding="UTF-8"?>
<svg id="Layer_2" data-name="Layer 2" xmlns="http://www.w3.org/2000/svg" viewBox="0 0 552.77 566.58">
  <defs>
    <style>
      .cls-1 {
        fill: #fa4503;
      }

      .cls-2 {
        fill: #fcc405;
      }

      .cls-3 {
        fill: #fabf07;
      }

      .cls-4 {
        fill: #fb8605;
      }

      .cls-5 {
        fill: #fd9e03;
      }

      .cls-6 {
        fill: #040101;
      }

      .cls-7 {
        fill: #fa4b04;
      }

      .cls-8 {
        fill: #f9a106;
      }

      .cls-9 {
        fill: #f86106;
      }

      .cls-10 {
        fill: #fab007;
      }

      .cls-11 {
        fill: #fc9403;
      }

      .cls-12 {
        fill: #fc8e03;
      }

      .cls-13 {
        fill: #fa6c04;
      }

      .cls-14 {
        fill: #fcb606;
      }

      .cls-15 {
        fill: #fccb06;
      }

      .cls-16 {
        fill: #face07;
      }

      .cls-17 {
        fill: #fb3f02;
      }

      .cls-18 {
        fill: #f83903;
      }

      .cls-19 {
        fill: #fca004;
      }

      .cls-20 {
        fill: #f7a506;
      }

      .cls-21 {
        fill: #fd8803;
      }

      .cls-22 {
        fill: #fbb406;
      }

      .cls-23 {
        fill: #fc5502;
      }

      .cls-24 {
        fill: #fb8204;
      }

      .cls-25 {
        fill: #fca604;
      }

      .cls-26 {
        fill: #fdac04;
      }

      .cls-27 {
        fill: #fa9c06;
      }

      .cls-28 {
        fill: #fa7504;
      }

      .cls-29 {
        fill: #fd7703;
      }
    </style>
  </defs>
  <g id="Layer_1-2" data-name="Layer 1">
    <g>
      <path class="cls-18" d="M514.11,303.07c1.2,1.6,2.46,3.16,3.58,4.81,6.07,8.89,12.09,17.81,18.15,26.71,5.25,7.72,10.53,15.42,15.78,23.14,.41,.6,.68,1.31,1.14,2.22-6.19,3.31-12.22,6.57-18.28,9.78-40.4,21.42-80.8,42.83-121.2,64.24-14.96,7.93-29.89,15.92-44.92,23.71-1.84,.95-2.11,2.07-2.11,3.81,.03,10.82-.06,21.65,.07,32.47,.03,2.34-.76,3.76-2.52,5.12-28.43,22.15-56.83,44.34-85.2,66.56-1.48,1.16-2.42,1.33-4.05,.04-17.04-13.43-34.18-26.72-51.28-40.08-2.49-1.94-4.89-4-7.34-6-.13-1.49-.25-2.98-.37-4.35h5.86c-.46-1.31-.87-2.08-.95-2.89-.05-.52,.28-1.22,.66-1.58,.21-.19,1.18,.05,1.33,.35,1.76,3.41,3.22,.76,5.1,0q-4.41-2.5-2.34-5.98c.1-.17,.04-.43,.06-.64,1,.54,2.09,.95,2.97,1.64,15.12,11.74,30.27,23.43,45.25,35.35,2.48,1.97,3.99,1.62,6.19-.11,22.06-17.35,44.19-34.6,66.21-52,1.1-.87,1.93-2.83,1.95-4.3,.16-11.58,.15-23.17,.07-34.76-.02-2.15,.65-3.29,2.57-4.27,10.25-5.24,20.44-10.61,30.62-16.01,31.22-16.56,62.43-33.17,93.65-49.75,16.26-8.64,32.52-17.29,48.82-25.86,2-1.05,2.5-1.9,.99-3.89-2.26-2.99-4.3-6.17-6.39-9.29-6.54-9.75-13.07-19.51-19.6-29.27,.33-1.7,.66-3.4,1.06-5.46,2.71-.76,3.99-3.59,4.85-7.55,.6,2.25,.98,3.66,1.35,5.04-.67,.43-1.3,.68-1.73,1.13-.55,.59-1.47,1.61-1.3,1.95,.36,.73,1.25,1.44,2.05,1.64,3.99,1.01,6.56-1.65,5.54-5.57-.06-.25,.16-.57,.22-.75,1.22,.22,2.34,.43,3.46,.63Zm.76,3.51c.02-.09,.04-.17,.06-.26-.15-.02-.3-.05-.44-.05-.02,0-.04,.16-.06,.25,.15,.02,.29,.05,.44,.07Zm-11.62,5.35c.07-.05,.14-.09,.22-.14-.09-.12-.17-.25-.28-.36-.01-.01-.14,.09-.21,.13,.09,.12,.18,.24,.27,.37Z"/>
      <path class="cls-16" d="M55.12,185.04c-1.76-17.71-3.5-35.42-5.27-53.12-2-19.99-4.03-39.98-6.01-59.97-2.29-23.25-4.54-46.51-6.8-69.77-.05-.54,0-1.08,0-1.99,.63,.43,1.12,.7,1.52,1.07,45.73,42.43,91.45,84.87,137.16,127.32,.47,.43,.86,.95,1.29,1.43-.89,.89-1.78,1.77-2.14,2.13-1.03-2.05-1.71-3.69-2.65-5.15-.62-.98-1.6-1.72-2.43-2.56-1.97-2.01-5.44-2.29-7.81-.72-.57,.38-1.3,.56-1.98,.71-1.11,.24-2.27,.27-3.34,.6-1.52,.47-2.98,1.13-4.41,1.7,.54,.64,1.21,1.45,2.09,2.5-1.48,.54-2.45,.89-3.42,1.24-1.05-.9-2.13-1.76-3.15-2.7-28.72-26.64-57.44-53.28-86.16-79.91-.56-.52-1.21-.94-2.16-1.67,1.49,14.65,2.95,28.75,4.35,42.86,1.88,18.9,3.72,37.8,5.54,56.7,.98,10.21,1.88,20.42,2.81,30.63-.23,2.01-.46,4.03-.69,6.04-1.14-2.53-2.28-5.06-3.55-7.88-.99,.63-1.99,1.18-2.91,1.86-1.37,1-2.54,2.6-4.04,3.03-3.42,.99-4.24,3.61-4.71,6.6-.22,1.39-.15,2.83-.21,4.25-.11,0-.22,0-.33,.02-.04-.55-.09-1.1-.13-1.65-.16-1.19-.33-2.39-.49-3.59Z"/>
      <path class="cls-3" d="M435.09,75.21c.42-.39,.85-.78,1.27-1.17,.9-.06,3,1.72,1.94-1.35,.34-.63,.56-1.41,1.05-1.86,25.33-23.47,50.68-46.92,76.03-70.36,.08-.07,.19-.1,.86-.46-.38,4.46-.69,8.58-1.09,12.69-1.01,10.42-2.04,20.85-3.1,31.27-.46,4.48-1.04,8.94-1.56,13.41-.48-.01-1.35,.06-1.37-.04-.15-.85-.02-1.76-.23-2.58-.19-.73-.72-1.37-1.11-2.05-.46,.71-1.31,1.43-1.3,2.13,.03,1.71,.35,3.45,.76,5.12,.43,1.73,.25,2.88-1.86,3.23-.21-1.85-.4-3.5-.62-5.48-.81,.42-1.26,.52-1.49,.8-2.31,2.98-5.57,2.2-8.17,1.38-1.14-.36-1.44-3.58-2.12-5.5,.12-2.73,.24-5.45,.36-8.24-10.58,9.68-20.99,19.2-31.4,28.72-.28,.31-.56,.62-.84,.93l-.07,.16h-.17c-.14,.12-.28,.25-.42,.39v.19s-.19,.03-.19,.03c-.18,.17-.36,.34-.55,.52l-.05,.05c-.55-.96-1.11-1.91-1.66-2.87-1.12-1.39-2.95-3.1-3.91-.7-1.35-.25-3.17-.82-3.28-.58-1.39,3.18-4.06,3.09-6.73,3.1-.53-1.49-.9-3.2-2.99-1.49-1.62,1.33-3.32,2.55-5.7,4.35,1.44,.13,2.58,.33,3.71,.3,.81-.02,1.62-.35,2.43-.54-.18,3.61-2.94,4.19-5.53,5.23-.79-2.65-1.52-5.1-2.25-7.54,.15-.13,.3-.25,.44-.38,.29-.27,.59-.54,.88-.81Zm74.99-24.93c-.16-.27-.26-.44-.36-.6-.19,.16-.43,.3-.56,.51-.04,.07,.21,.47,.25,.45,.23-.07,.43-.23,.66-.36Z"/>
      <path class="cls-20" d="M224.07,173.38c33.77-.01,67.54-.05,101.31,.01,2.6,0,4.58-.6,6.49-2.52,3.32-3.33,6.94-6.34,10.43-9.49,.88,.92,1.76,1.84,2.68,2.8,2.58-3.22,4.99-5.26,8.8-5.66,1.8-.19,3.41-2.4,5.1-3.7,8.33-.1,11.37-2.29,12.17-9.76,1.58,2.59,2.73,4.48,3.6,5.9,2.23-.42,4.47-.84,6.72-1.27-2.39,2.31-4.75,4.67-7.19,6.93-12.12,11.28-24.24,22.57-36.45,33.74-1.13,1.03-2.95,1.76-4.45,1.77-37.77,.1-75.53,.08-113.3,.05-1,0-2-.34-2.99-.52,2.43-.04,4.87,.02,7.29-.13,13.52-.84,27.19,1.91,40.62-1.86,2.8-.79,5.91-.42,8.98-.6-.8-3.34,.37-5.61,3.7-5.54,3.6,.07,6.14-1.6,8.96-3.15,.8-.44,1.85-.38,2.74-.68,3.61-1.22,7.21-2.5,10.81-3.75-.08-.4-.16-.79-.23-1.19-3.61-.3-7.23-.83-10.84-.85-19.99-.09-39.99-.06-59.98-.02-1.23,0-2.45,.39-3.68,.59-.43-.37-.85-.75-1.28-1.12Zm97.5,.97h.27c-.06-.11-.12-.22-.18-.33-.08,.05-.15,.09-.23,.14,.04,.07,.09,.13,.13,.2Z"/>
      <path class="cls-8" d="M27.45,374.11c-9.03-4.66-18.06-9.32-27.45-14.17,4.01-5.92,7.83-11.6,11.71-17.25,5.48-7.98,11-15.92,16.5-23.88,.74-.25,1.47-.49,2.39-.8,.08,.91,.14,1.54,.19,2.17-.28,.22-.55,.44-.83,.65,.07,.07,.13,.13,.2,.2,.21-.28,.42-.57,.63-.85,.89,.16,1.78,.31,2.67,.47-.2-.29-.4-.59-.6-.88l8.4-10.01c.28,.13,.57,.26,.85,.4-.12,1.5-.24,3-.39,4.85,2.25-1.39,4.3-2.66,6.36-3.93,1.02-1.59,2.14-3.32,3.25-5.05,.22,.14,.44,.29,.65,.43-.27,1.29-.53,2.58-.8,3.87,.27,.16,.54,.32,.81,.48,1-1.23,1.84-2.67,3.04-3.62,1.19-.94,2.75-1.38,4.15-2.04-10.73,15.9-21.46,31.81-32.34,47.95,3.87,2.11,7.42,4.04,10.97,5.97-.9,.34-1.79,.69-2.87,1.1,2.07,.9,3.83,1.67,5.58,2.43-.02,.42-.04,.84-.06,1.26-1.47,.15-2.93,.31-3.57,.37-2.81,.89-4.88,1.55-7.7,2.44,2.13,.92,3.47,1.45,4.77,2.07,.61,.29,1.14,.75,1.7,1.14-.53,.57-.96,1.37-1.6,1.65-2.17,.96-4.42,1.74-6.64,2.6Z"/>
      <path class="cls-10" d="M30.79,320.18c-.06-.63-.11-1.26-.19-2.17-.92,.31-1.66,.55-2.39,.8,.11-.21,.21-.42,.32-.64,.17-.1,.29-.25,.36-.44,7.62-11.31,15.23-22.63,22.86-33.94,2.84-4.2,5.57-8.48,8.61-12.53,2.06-2.75,3.26-5.47,2.33-8.98-.27-1.02-.09-2.16-.11-3.25-.06-1.7-.44-3.6,2.11-3.73,.02-3.81,3.14-3.19,5.29-3.96,.39-.14,.7-.49,1.09-.64,2.43-.98,4.87-1.92,7.44-2.93,.52,1.92,.82,3.04,1.12,4.15,.68,6.37,1.39,12.74,1.99,19.13,.07,.77-.27,1.72-.72,2.38-7.21,10.59-14.47,21.14-21.72,31.69-1.4,.66-2.96,1.1-4.15,2.04-1.21,.95-2.04,2.39-3.04,3.62-.27-.16-.54-.32-.81-.48,.27-1.29,.53-2.58,.8-3.87-.22-.14-.44-.29-.65-.43-1.12,1.73-2.23,3.47-3.25,5.05-2.06,1.27-4.11,2.54-6.36,3.93,.15-1.85,.27-3.35,.39-4.85-.28-.13-.57-.26-.85-.4l-8.4,10.01c.2,.29,.4,.59,.6,.88-.89-.16-1.78-.31-2.67-.47h0Z"/>
      <path class="cls-22" d="M433.76,76.4c.73,2.44,1.46,4.88,2.25,7.54,2.59-1.03,5.35-1.61,5.53-5.23h0c.85-.87,1.7-1.75,2.54-2.62,2.67,0,5.34,.08,6.73-3.1,.1-.24,1.93,.33,3.28,.58,.96-2.4,2.79-.68,3.91,.7,.55,.96,1.11,1.91,1.66,2.87-6.33,5.93-12.63,11.89-18.99,17.77-8.4,7.76-16.85,15.47-25.28,23.2-.58-.77-1.22-1.5-1.71-2.32-1.73-2.9-4.73-3.75-7.06-1.51-.98,.94-1.05,2.9-1.77,5.14-1.57-1.76-3.19-3.58-4.82-5.41-1.21,.39-2.57,.77-3.9,1.27-1.3,.48-2.64,.93-3.83,1.64-2.51,1.51-2.25,4.11-1.68,6.77-.28,.09-.55,.18-.83,.27-1.21-1.09-2.43-2.19-3.64-3.28,.24-.22,.47-.45,.71-.67,.2-.19,.4-.38,.61-.57,0,0,.11-.09,.11-.09,.18-.08,.3-.21,.37-.4,2.7-2.65,5.33-5.38,8.1-7.95,12.13-11.23,24.3-22.42,36.46-33.62,.39-.36,.84-.65,1.26-.97Z"/>
      <path class="cls-10" d="M386.15,120.66c1.21,1.09,2.43,2.19,3.64,3.28,.28-.09,.55-.18,.83-.27-.57-2.65-.83-5.26,1.68-6.77,1.18-.71,2.53-1.16,3.83-1.64,1.32-.49,2.69-.88,3.9-1.27,1.63,1.83,3.25,3.64,4.82,5.41,.72-2.24,.78-4.2,1.77-5.14,2.34-2.23,5.33-1.38,7.06,1.51,.49,.82,1.14,1.55,1.71,2.32-3.86,3.68-7.69,7.41-11.6,11.03-7.45,6.89-14.95,13.72-22.42,20.58-2.25,.42-4.49,.85-6.72,1.26-.87-1.43-2.02-3.31-3.6-5.9-.79,7.47-3.83,9.66-12.17,9.76,0-.44,0-.87-.06-1.42,0,0,.05,.1,.1,.2,.49-.2,.98-.41,1.47-.61-.09-.19-.18-.37-.27-.56-.45,.29-.91,.58-1.3,.97-.21,.32-.48,.54-.76,.76,.27,.22,.55,.44,.82,.66-1.69,1.3-3.3,3.51-5.1,3.7-3.81,.4-6.22,2.44-8.8,5.66-.92-.96-1.8-1.88-2.68-2.8,0,0,.05-.05,.05-.05,2.56,1.08,2.63-.62,2.57-2.46,0,0,.08-.08,.08-.08,.79-.71,1.58-1.42,2.36-2.14,.89-.84,1.79-1.68,2.68-2.51,.82,.23,1.65,.45,2.47,.65-.02,.18-.04,.39-.06,.6,.75,.09,1.51,.17,2.26,.26,.02-.3,.04-.59,.06-.89-.75,0-1.5,0-2.26,.03,0-.96-.01-1.95-.02-2.94-.01-.19,.08-.29,.26-.29,.17-.1,.31-.24,.42-.41,.06-.2,.19-.29,.39-.26,.48-.45,.96-.89,1.43-1.34,0,0,.04-.03,.04-.03,.42,.02,.85,.04,1.28,.06,.22,.28,.43,.56,.65,.84,.06-.07,.13-.13,.19-.2-.27-.22-.54-.45-.81-.67,0-.42,0-.84,0-1.26,0,0,.03-.03,.03-.03,.42-.4,.84-.79,1.26-1.19,9.5-8.8,19-17.61,28.5-26.41Z"/>
      <path class="cls-4" d="M119.99,423.19c-14.02-7.43-28.05-14.87-42.07-22.3,.87-1.7,.84-1.66-1.13-3.09-.53-.38-1.01-1.01-1.19-1.62-.07-.23,.74-.79,1.19-1.13,2.02-1.53,4.12-2.97,6.08-4.58,1.81-1.48,3.48-3.14,5.21-4.71,.77,.32,1.57,.57,2.31,.96,9.82,5.19,19.66,10.36,29.45,15.62,5.09,2.73,10.1,5.61,15.14,8.42-.96,.13-1.92,.26-2.94,.4,.33,1.46,.56,2.45,.86,3.75-2.8-.24-3.9,4.01-7.03,2.11-.49,.87-.98,1.74-1.47,2.61,.7,.32,1.37,.77,2.1,.91,.58,.11,1.23-.15,1.84-.25,.12,.37,.23,.74,.35,1.12-1.13,.38-2.24,.9-3.41,1.12-1.74,.33-3.53,.46-5.29,.68Z"/>
      <path class="cls-11" d="M88.07,385.75c-1.73,1.58-3.4,3.23-5.21,4.71-1.96,1.61-4.06,3.05-6.08,4.58-.45,.34-1.26,.9-1.19,1.13,.19,.62,.67,1.24,1.19,1.62,1.97,1.42,1.99,1.39,1.13,3.09-1.53-.8-3.06-1.6-4.6-2.39-.09-.11-.21-.18-.34-.23-.33-.2-.65-.39-.98-.59,.57-.24,1.14-.48,1.71-.72-.07-.42-.15-.84-.22-1.26-1.51,.16-3.03,.31-4.54,.47-13.83-7.35-27.67-14.7-41.5-22.05,2.22-.85,4.47-1.63,6.64-2.59,.65-.29,1.08-1.09,1.6-1.65-.56-.39-1.09-.85-1.7-1.14-1.3-.62-2.64-1.15-4.77-2.07,2.82-.89,4.89-1.55,7.7-2.44,.63-.07,2.1-.22,3.57-.37,.02-.42,.04-.84,.06-1.26-1.75-.76-3.51-1.53-5.58-2.43,1.07-.41,1.97-.75,2.87-1.1,.96,.44,1.94,.82,2.87,1.32,15.79,8.45,31.58,16.92,47.37,25.38Zm-51.53-19.24c-.1,.12-.19,.23-.29,.35,.07,.05,.18,.16,.2,.15,.11-.1,.2-.22,.3-.34-.07-.05-.14-.1-.21-.16Z"/>
      <path class="cls-28" d="M119.99,423.19c1.77-.22,3.55-.35,5.29-.68,1.16-.22,2.27-.74,3.41-1.12-.12-.37-.23-.74-.35-1.12-.62,.1-1.26,.36-1.84,.25-.73-.14-1.41-.59-2.1-.91,.49-.87,.98-1.74,1.47-2.61,3.13,1.9,4.23-2.35,7.03-2.11-.3-1.3-.52-2.29-.86-3.75,1.02-.14,1.98-.27,2.94-.4,1.33,.55,2.72,1,4,1.67,7.49,3.92,14.98,7.84,22.42,11.86,4.41,2.39,8.73,4.97,13.09,7.46-1.29,.6-2.59,1.2-3.98,1.85,.34,.52,.66,1,1.13,1.73-.88,.14-1.55,.25-2.22,.36-.21-.28-.42-.57-.63-.85-.06,.07-.13,.13-.19,.2,.28,.22,.55,.43,.83,.65-1.39,1.92-5.2,2.26-3.58,5.75-2.25,.98-4.27,1.87-6.29,2.75-10.68-5.74-21.35-11.5-32.05-17.22-2.47-1.32-5-2.51-7.51-3.76Z"/>
      <path class="cls-22" d="M492.98,54.38c.68,1.92,.98,5.14,2.12,5.5,2.6,.82,5.86,1.59,8.17-1.38,.22-.29,.68-.38,1.49-.8,.22,1.97,.41,3.62,.62,5.48,2.11-.35,2.29-1.5,1.86-3.23-.41-1.67-.73-3.4-.76-5.12-.01-.7,.84-1.42,1.3-2.13,.38,.68,.91,1.31,1.11,2.05,.22,.82,.08,1.74,.23,2.58,.02,.1,.89,.03,1.37,.04-1,10.41-2,20.82-3,31.23-.48,1.89-1.12,3.76-1.38,5.69-.18,1.32,.18,2.72,.3,4.09l-.18,3.3c-.98-.46-1.98-.89-2.94-1.39-.7-.36-1.46-1.25-2.03-1.13-2.74,.59-5.61,1.1-8.04,2.41-.85,.46-.56,3.14-.82,4.8-.08,.47-.29,.92-.47,1.43-2.48-2.26-3.84-4.78-3.4-8.07,0,0,.02-.1,.02-.1,2.67-1.94,.91-4.35,.64-6.59,.25-3.25,.42-6.51,.75-9.75,.99-9.64,2.03-19.27,3.06-28.9Z"/>
      <path class="cls-3" d="M224.07,173.38c.43,.37,.85,.75,1.28,1.12-.58,.79-1.15,1.58-1.97,2.71-1.96-3.39-3.89-2.91-6.27-1.13-1.56,1.16-3.59,1.69-5.46,2.34-1.65,.57-3.37,.93-5.25,1.43,1.49,2.22,2.54,3.78,3.6,5.34-.28-.15-.6-.25-.83-.46-11.46-10.61-22.91-21.22-34.34-31.86-.49-.46-.73-1.22-1.08-1.84,4.95-3.27,7.47,1.8,11.28,4.09,0-1.51-.33-2.64,.07-3.07,.9-.98,2.08-1.9,3.3-2.27,.49-.15,1.41,1.21,2.13,1.88-.94,.54-1.88,1.08-3.15,1.82,.4,.6,.98,1.47,1.67,2.5,1.96-1.93,3.6-3.55,5.69-5.61-.83-.43-1.94-1.01-3.18-1.66-.03-1.94-3.51-3.59-1.16-6.32,10.82,10.04,21.64,20.08,32.46,30.11,.37,.34,.81,.59,1.22,.88Z"/>
      <path class="cls-3" d="M79.64,251.93c-.3-1.12-.61-2.24-1.12-4.15-2.57,1.01-5.01,1.96-7.44,2.93-.39,.15-.7,.51-1.09,.64-2.15,.77-5.28,.14-5.29,3.96-2.55,.13-2.17,2.02-2.11,3.73-1.05-9.85-2.13-19.7-3.14-29.56-.66-6.51-1.22-13.02-1.82-19.54,.62,1.36,1.24,2.73,2.1,4.63,.86-1.56,1.55-2.82,2.25-4.08,.21,.07,.42,.14,.63,.2-.12,2.87-.25,5.75-.37,8.62,3.22-3.18,1.64-8.68,6.35-11.01,.9,1.79,1.8,3.58,2.7,5.37,.32-.05,.63-.1,.95-.14,.18-1.29,.46-2.58,.51-3.88,.05-1.29-.67-2.95-.13-3.84,1.95-3.17,1.08-5.87-.42-8.79-.34-.66,.36-1.88,.58-2.84,.44,.64,.88,1.29,1.31,1.93,.61,5.06,1.32,10.11,1.8,15.18,.96,10.03,1.78,20.07,2.69,30.1,.32,3.51,.71,7.01,1.07,10.52Z"/>
      <path class="cls-7" d="M225.32,504.51c-.02,.22,.04,.48-.06,.64q-2.07,3.48,2.34,5.98c-1.89,.76-3.35,3.41-5.1,0-.16-.3-1.13-.54-1.33-.35-.39,.35-.72,1.06-.66,1.58,.08,.81,.5,1.58,.95,2.89h-5.86c.12,1.38,.24,2.86,.37,4.35-9.25-7.14-18.56-14.19-27.64-21.55-1.06-.86-.77-3.48-1.1-5.28,1.49-.37,3.43-.26,4.37-1.2,2.78-2.8,5.69-5.72,7.56-9.16,1.77-3.24,3.41-2.86,5.78-1.46,.04,.86,.26,1.76,.1,2.59-.65,3.36,.97,5.34,3.46,7.14,4.11,2.97,8.08,6.14,12.04,9.33,1.7,1.37,3.2,3,4.79,4.51Z"/>
      <path class="cls-1" d="M514.11,303.07c-1.12-.21-2.24-.41-3.46-.63-.06,.18-.28,.5-.22,.75,1.02,3.92-1.55,6.58-5.54,5.57-.8-.2-1.69-.91-2.05-1.64-.17-.34,.75-1.36,1.3-1.95,.43-.45,1.05-.71,1.73-1.13-.37-1.38-.75-2.79-1.35-5.04-.86,3.96-2.14,6.79-4.85,7.55-.4,2.05-.73,3.75-1.06,5.46-2.69-3.84-5.45-7.64-8.07-11.54-4.96-7.35-9.84-14.75-14.75-22.13,.66-.01,1.59-.33,1.94,0,1.93,1.85,3.25,.72,4.49-.81,.87-1.08,1.56-2.32,2.45-3.38,.59-.69,1.6-1.8,2.09-1.64,2.46,.81,3.71-.82,5.12-2.26,7.41,10.94,14.82,21.88,22.23,32.82Z"/>
      <path class="cls-23" d="M204.93,480.94c-2.37-1.39-4.01-1.78-5.78,1.46-1.87,3.44-4.78,6.36-7.56,9.16-.94,.95-2.88,.83-4.37,1.2,0-.67,0-1.34,0-2,0-9.68,.03-19.36-.03-29.04,0-1.25-.45-2.49-.7-3.73l.02,.26s-.25,.03-.25,.03c-.39-2.16-.78-4.33-1.25-6.95,4.05,1.74,6.97,.53,9.59-2.07,1.57-1.56,3.25-2.99,4.87-4.48,2.12,1.19,5.53,.92,5.54,4.61,.04,10.52-.05,21.04-.08,31.57Z"/>
      <path class="cls-23" d="M491.88,270.25c-1.41,1.44-2.65,3.07-5.12,2.26-.49-.16-1.5,.95-2.09,1.64-.9,1.05-1.58,2.3-2.45,3.38-1.24,1.53-2.56,2.66-4.49,.81-.35-.33-1.28-.02-1.94,0-1.46-2.4-4.21-4.84-4.14-7.2,.23-8.18,1.44-16.33,2.28-24.49,.06,.94,.13,1.89,.19,2.83,.49-1.2,.32-2.73,.97-3.43,2.49-2.67,5.22-5.12,7.93-7.55,.4-.36,1.21-.21,1.82-.34,.7-.15,1.43-.27,2.08-.55,1.62-.7,3.2-1.48,5.48-2.55,0,2.26,0,3.33,0,4.4-.7,7.76-1.25,15.54-2.16,23.27-.33,2.85-.25,5.31,1.63,7.52Z"/>
      <path class="cls-8" d="M488.51,99.73c-.44,3.28,.92,5.8,3.4,8.06,.17-.52,.39-.96,.47-1.43,.27-1.66-.02-4.34,.82-4.8,2.43-1.31,5.3-1.81,8.04-2.41,.57-.12,1.33,.77,2.03,1.13,.97,.49,1.96,.93,2.94,1.39-1.22,11.8-2.44,23.6-3.66,35.41-.42-.21-.84-.41-1.25-.62-.13-.7-.27-1.39-.4-2.09-.19,.02-.38,.04-.57,.06-.1,.68-.2,1.35-.3,2.03-1.41,.59-2.82,1.18-4.2,1.75-.73-.37-1.73-.89-2.73-1.41-.41,1.22-.83,2.43-1.46,4.28-.42-1.82-.69-2.96-.99-4.24-1.01,1.53-1.83,2.78-2.66,4.04-1.31-1.25-2.27-2.18-3.23-3.1,.46-5.64,.85-11.29,1.41-16.92,.7-7.05,1.55-14.09,2.34-21.14Z"/>
      <path class="cls-15" d="M190.39,142.4c-2.36,2.73,1.13,4.38,1.16,6.32,1.24,.65,2.34,1.22,3.18,1.66-2.1,2.07-3.74,3.68-5.69,5.61-.68-1.03-1.27-1.9-1.67-2.5,1.28-.74,2.22-1.28,3.15-1.82-.72-.67-1.64-2.03-2.13-1.88-1.23,.37-2.4,1.28-3.3,2.27-.39,.43-.07,1.57-.07,3.07-3.8-2.29-6.33-7.37-11.28-4.09,0,0,0,0,0,0,.37-1.18,.73-2.35,1.39-4.48-1.95,1.06-3.14,1.71-4.32,2.35-2.38-2.21-4.76-4.43-7.14-6.64,.21-.84,.41-1.68,.62-2.52-.2-.09-.41-.18-.61-.27-.43,.53-.85,1.06-1.28,1.59-.22-.22-.44-.44-.66-.66-.42-.41-.85-.83-1.27-1.24l-.05-.04c.3-3.34-2.41-3.17-4.31-3.94l-.08-.06c-.21-.2-.41-.4-.62-.6l-.03-.03-1.3-1.15c-1.04-.97-2.09-1.94-3.13-2.91,.97-.35,1.93-.7,3.42-1.24-.88-1.05-1.55-1.85-2.09-2.5,1.43-.56,2.89-1.23,4.41-1.7,1.08-.33,2.24-.36,3.34-.6,.68-.15,1.41-.33,1.98-.71,2.37-1.57,5.84-1.29,7.81,.72,.82,.84,1.8,1.58,2.43,2.56,.93,1.47,1.61,3.1,2.65,5.15,.36-.36,1.25-1.25,2.14-2.13,.87,.83,1.75,1.65,2.62,2.48,.45,.42,.9,.84,1.34,1.27,.25,0,.41,.11,.49,.35-1.04,.88-2.07,1.75-3.11,2.63,.1,.28,.19,.56,.29,.84l5.37-1.06c1.51,1.39,3.03,2.78,4.54,4.18,.37,.35,.73,.7,1.1,1.05,.24,.22,.48,.45,.72,.67Zm-9.33-1.85c-.1-.08-.21-.17-.31-.25-.73,.65-1.46,1.3-2.19,1.95,.28,.25,.56,.5,.84,.74,.55-.81,1.11-1.63,1.07-2.99l.77,.79c.15-.35,.3-.7,.43-1.05,.01-.04-.14-.2-.18-.19-.34,.13-.68,.29-.43,.99Zm6.15,3.79c-1.18,.62-2.36,1.25-3.73,1.98-.68-.13-1.73-.34-2.77-.54-.23,.35-.46,.69-.69,1.04,.86,.87,1.68,2.44,2.59,2.5,2.96,.2,4.54-1.75,4.61-4.97,.28-.22,.55-.43,.83-.65l-.2-.2c-.21,.28-.42,.57-.63,.85Zm-4.21-.86c.92-.84,1.37-1.06,1.43-1.35,.07-.4-.17-.85-.28-1.29-.18,0-.35,.01-.53,.02-.14,.59-.28,1.19-.62,2.62Zm-26.11-12.87c.19,.03,.38,.05,.58,.08,.05-.5,.11-.99,.16-1.49-.19-.02-.37-.05-.56-.07-.06,.49-.12,.99-.18,1.48Zm29.91,10.53c-.01-.09-.02-.25-.04-.25-.15,0-.3,.01-.44,.03,.01,.09,.02,.25,.04,.25,.15,0,.29-.01,.44-.03Zm-23.09-3.75c.07-.05,.14-.09,.22-.14-.09-.12-.17-.25-.28-.36-.01-.01-.14,.09-.21,.13,.09,.12,.18,.24,.27,.37Zm6.59-9.49c-.05-.07-.09-.15-.14-.22-.12,.09-.24,.18-.35,.29-.01,.01,.08,.14,.13,.21,.12-.09,.24-.18,.35-.28Zm-2.72-2.84c-.08,.01-.24,.02-.24,.04,0,.15,.01,.31,.02,.46,.08-.01,.24-.02,.24-.04,0-.15-.01-.31-.02-.46Z"/>
      <path class="cls-9" d="M199.47,444.77c-1.63,1.49-3.31,2.93-4.87,4.48-2.62,2.6-5.54,3.82-9.59,2.07,.47,2.63,.87,4.79,1.25,6.95-8.19-4.28-16.39-8.55-24.57-12.84-.74-.39-1.43-.85-2.15-1.28,2.02-.88,4.04-1.76,6.29-2.75-1.62-3.49,2.19-3.83,3.58-5.75h0c.67-.1,1.35-.21,2.22-.35-.47-.72-.79-1.2-1.13-1.73,1.39-.65,2.69-1.25,3.98-1.85,8.33,4.34,16.66,8.69,24.99,13.03Z"/>
      <path class="cls-15" d="M72.76,194.2c-.22,.96-.92,2.19-.58,2.84,1.5,2.92,2.37,5.62,.42,8.79-.55,.89,.18,2.54,.13,3.84-.05,1.3-.33,2.59-.51,3.88-.32,.05-.63,.1-.95,.14-.9-1.79-1.8-3.58-2.7-5.37-4.72,2.33-3.13,7.82-6.35,11.01,.12-2.87,.25-5.75,.37-8.62-.21-.07-.42-.14-.63-.2-.7,1.26-1.39,2.52-2.25,4.08-.86-1.9-1.48-3.27-2.1-4.63-.04-.9-.07-1.79-.11-2.69,.14-2.48-.25-5.16,.55-7.38,.85-2.39,.34-3.2-1.73-3.71-.02-.26-.04-.53-.06-.79-.06-1.71-.13-3.42-.19-5.13,.06-1.42,0-2.86,.21-4.25,.47-2.99,1.29-5.61,4.71-6.6,1.5-.43,2.67-2.03,4.04-3.03,.92-.67,1.92-1.23,2.91-1.86,1.27,2.82,2.41,5.35,3.55,7.88,.44,.2,.87,.4,1.31,.59,0,0,0,.06,0,.06,.03,1.32,.06,2.64,.09,3.96-.04,2.4-.09,4.8-.13,7.2Zm-5.35-.63c-.21,0-.41,0-.62,0v3.24l.62-.02v-3.23Zm.62-2.57c.25-.03,.5-.06,.74-.1l-.26-1.44c-.16,.02-.32,.04-.48,.06v1.48Zm3.11-4.12c-.24,.03-.49,.05-.73,.08,.08,.48,.16,.96,.24,1.44,.16-.02,.33-.03,.49-.05v-1.47Zm-6.14,14.11c-.22-.14-.42-.3-.65-.38-.04-.01-.31,.37-.26,.45,.12,.21,.35,.35,.54,.52,.1-.16,.2-.32,.37-.59Zm5.09,3.28c-.22-.14-.42-.3-.65-.38-.04-.01-.31,.37-.26,.45,.13,.21,.35,.35,.54,.52,.1-.16,.2-.32,.37-.59Z"/>
      <path class="cls-11" d="M501.31,136.46c.42,.21,.84,.41,1.25,.62-.87,8.99-1.74,17.97-2.61,26.96-.64-.85-1.27-1.71-1.84-2.47-1,4.55-11.69,7.6-16.47,6.36,.8-7.89,1.61-15.79,2.41-23.68,.08,.57,.16,1.13,.24,1.7,.14-.02,.28-.03,.42-.05v-7.62c-.13-.17-.13-.33,.02-.48,.96,.92,1.93,1.85,3.23,3.1,.83-1.26,1.66-2.51,2.66-4.04,.3,1.28,.57,2.42,.99,4.24,.63-1.85,1.05-3.07,1.46-4.28,1,.52,2,1.03,2.73,1.41,1.38-.58,2.79-1.17,4.2-1.75,.1,.91,.2,1.82,.29,2.73,.25-.03,.51-.05,.76-.08,.07-.89,.14-1.77,.22-2.66h0Z"/>
      <path class="cls-13" d="M492.41,239.46c0-1.07,0-2.14,0-4.4-2.28,1.07-3.86,1.85-5.48,2.55-.65,.28-1.38,.4-2.08,.55-.61,.13-1.43-.02-1.82,.34-2.72,2.44-5.45,4.88-7.93,7.55-.66,.71-.48,2.23-.97,3.43-.06-.94-.13-1.89-.19-2.83,.23-3.32,.36-6.66,.71-9.97,.74-6.98,1.6-13.95,2.42-20.92,.57,.5,1.36,1.54,1.69,1.41,4.39-1.78,8.69-3.81,13.08-5.58,2.37-.96,3.44-2.49,3.37-5.1-.02-.8,.57-1.61,.88-2.42-1.22,11.8-2.45,23.59-3.67,35.39Z"/>
      <path class="cls-4" d="M481.65,167.93c4.77,1.24,15.47-1.81,16.47-6.36,.57,.76,1.2,1.61,1.84,2.47-.71,7.11-1.43,14.21-2.14,21.32-1.68,2.06-2.72,5.18-6.36,3.97-.24-.08-.66,.48-1.02,.68-2.39,1.3-4.67,3.12-7.22,3.72-2.78,.66-4.1,1.71-3.97,4.68-.09-.8-.18-1.6-.27-2.4,.9-9.36,1.79-18.71,2.69-28.07Z"/>
      <path class="cls-28" d="M478.97,195.99c.09,.8,.18,1.6,.27,2.4-.13-2.97,1.2-4.02,3.97-4.68,2.55-.6,4.83-2.42,7.22-3.72,.37-.2,.78-.76,1.02-.68,3.64,1.22,4.68-1.91,6.36-3.97-.58,6.24-1.15,12.48-1.73,18.72-.31,.81-.9,1.62-.88,2.42,.06,2.61-1.01,4.14-3.37,5.1-4.39,1.77-8.69,3.81-13.08,5.58-.33,.13-1.12-.91-1.69-1.41,.64-6.59,1.28-13.18,1.91-19.77Z"/>
      <path class="cls-9" d="M186.49,457.99c.24,1.24,.69,2.49,.7,3.73,.06,9.68,.03,19.36,.03,29.04-.06-9.44-.09-18.88-.2-28.32-.02-1.49-.35-2.97-.53-4.45Z"/>
      <path class="cls-3" d="M56.33,196.16c2.07,.5,2.59,1.32,1.73,3.71-.8,2.23-.41,4.9-.55,7.38-.39-3.7-.79-7.39-1.18-11.09Z"/>
      <path class="cls-3" d="M184.03,136.5l-5.37,1.06c-.1-.28-.19-.56-.29-.84,1.04-.88,2.07-1.75,3.11-2.63,.85,.8,1.7,1.61,2.55,2.41Z"/>
      <path class="cls-8" d="M506.4,98.37c-.12-1.37-.48-2.76-.3-4.09,.26-1.92,.9-3.79,1.38-5.69-.36,3.26-.72,6.52-1.08,9.77Z"/>
      <path class="cls-4" d="M68.95,396.17c1.51-.16,3.03-.31,4.54-.47,.07,.42,.15,.84,.22,1.26-.57,.24-1.14,.48-1.71,.72-1.02-.5-2.04-1-3.06-1.51Z"/>
      <path class="cls-20" d="M344.93,158.88c.05,1.84-.01,3.54-2.57,2.46,.86-.82,1.72-1.64,2.57-2.46Z"/>
      <path class="cls-20" d="M352.53,154.83c-.82-.23-1.65-.45-2.47-.68,.82-.76,1.64-1.53,2.45-2.29,0,.99,.01,1.98,.02,2.97Z"/>
      <path class="cls-20" d="M347.38,156.67c-.79,.71-1.58,1.42-2.36,2.14,.79-.71,1.58-1.42,2.36-2.14Z"/>
      <path class="cls-22" d="M438.31,72.68c1.06,3.07-1.04,1.29-1.94,1.35,.65-.45,1.3-.9,1.94-1.35Z"/>
      <path class="cls-3" d="M56.07,190.25c.06,1.71,.13,3.42,.19,5.13-.18-1.7-.35-3.4-.53-5.1,.11-.02,.22-.02,.33-.02Z"/>
      <path class="cls-3" d="M55.12,185.04c.16,1.2,.33,2.39,.49,3.59-.16-1.2-.33-2.39-.49-3.59Z"/>
      <path class="cls-16" d="M180.98,133.74c-.45-.42-.9-.84-1.34-1.27,.45,.42,.9,.84,1.34,1.27Z"/>
      <path class="cls-20" d="M355.01,149.57c-.48,.45-.96,.9-1.43,1.34,.48-.45,.96-.9,1.43-1.34Z"/>
      <path class="cls-20" d="M357.65,147.08c-.42,.4-.84,.79-1.26,1.19,.42-.4,.84-.79,1.26-1.19Z"/>
      <path class="cls-20" d="M356.33,149.6c-.43-.02-.85-.04-1.27-.06,.43-.41,.87-.82,1.3-1.23,0,.42,0,.84,0,1.26,0,0-.03,.03-.03,.03Z"/>
      <path class="cls-3" d="M189.67,141.73c-.37-.35-.73-.7-1.1-1.05,.37,.35,.73,.7,1.1,1.05Z"/>
      <path class="cls-22" d="M435.09,75.21c-.29,.27-.59,.54-.88,.81,.29-.27,.59-.54,.88-.81Z"/>
      <path class="cls-8" d="M28.89,317.74c-.07,.19-.19,.33-.36,.44,.12-.15,.24-.29,.36-.44Z"/>
      <path class="cls-20" d="M353.19,151.17c-.11,.17-.25,.3-.42,.41,.14-.14,.28-.27,.42-.41Z"/>
      <path class="cls-10" d="M387.47,119.42c-.2,.19-.41,.38-.61,.57,.2-.19,.41-.38,.61-.57Z"/>
      <path class="cls-10" d="M387.94,118.94c-.07,.19-.19,.32-.37,.4,0-.26,.13-.39,.37-.4Z"/>
      <path class="cls-4" d="M72.98,398.26c.13,.05,.25,.12,.34,.23,0,0-.25,.01-.25,.01l-.09-.24Z"/>
      <path class="cls-6" d="M478.97,195.99c-.64,6.59-1.28,13.18-1.91,19.77-.81,6.97-1.67,13.94-2.42,20.92-.35,3.31-.48,6.64-.71,9.97-.84,8.16-2.05,16.31-2.28,24.49-.07,2.36,2.69,4.79,4.14,7.2,4.91,7.38,9.8,14.78,14.75,22.13,2.62,3.89,5.38,7.69,8.07,11.54,6.53,9.76,13.06,19.52,19.6,29.27,2.1,3.12,4.13,6.3,6.39,9.29,1.5,1.98,1.01,2.83-.99,3.89-16.3,8.57-32.56,17.22-48.82,25.86-31.22,16.58-62.42,33.18-93.65,49.75-10.18,5.4-20.36,10.77-30.62,16.01-1.91,.98-2.58,2.12-2.57,4.27,.08,11.59,.1,23.17-.07,34.76-.02,1.47-.85,3.44-1.95,4.3-22.02,17.4-44.15,34.65-66.21,52-2.21,1.74-3.71,2.09-6.19,.11-14.98-11.92-30.13-23.61-45.25-35.35-.89-.69-1.98-1.1-2.97-1.64-1.59-1.51-3.09-3.14-4.79-4.51-3.95-3.19-7.93-6.36-12.04-9.33-2.49-1.8-4.12-3.78-3.46-7.14,.16-.82-.06-1.72-.1-2.59,.04-10.52,.12-21.04,.08-31.57-.01-3.69-3.42-3.42-5.54-4.61-8.33-4.34-16.66-8.69-24.99-13.03-4.36-2.49-8.68-5.07-13.09-7.46-7.44-4.02-14.93-7.94-22.42-11.86-1.28-.67-2.66-1.12-4-1.67-5.04-2.81-10.06-5.69-15.14-8.42-9.79-5.25-19.63-10.43-29.45-15.62-.74-.39-1.54-.65-2.31-.96-15.79-8.46-31.58-16.93-47.37-25.38-.93-.5-1.91-.88-2.87-1.32-3.55-1.93-7.1-3.86-10.97-5.97,10.89-16.14,21.61-32.04,32.34-47.95,7.25-10.56,14.51-21.11,21.72-31.69,.45-.65,.79-1.61,.72-2.38-.6-6.38-1.31-12.75-1.99-19.13-.36-3.51-.76-7.01-1.07-10.52-.91-10.03-1.73-20.07-2.69-30.1-.49-5.07-1.2-10.12-1.8-15.18-.06-1.31-.12-2.62-.18-3.92-.15-.91-.3-1.81-.45-2.72-.07-.84-.14-1.67-.2-2.51-.15-1.31-.3-2.62-.45-3.93,0,0,0-.06,0-.06-.21-2.21-.42-4.42-.62-6.63-.94-10.21-1.83-20.42-2.81-30.63-1.82-18.9-3.67-37.8-5.54-56.7-1.4-14.11-2.86-28.21-4.35-42.86,.95,.73,1.6,1.15,2.16,1.67,28.72,26.63,57.44,53.28,86.16,79.91,1.01,.94,2.1,1.8,3.15,2.7,1.04,.97,2.09,1.94,3.13,2.91,.43,.38,.86,.77,1.3,1.15,0,0,.03,.03,.03,.03,.21,.2,.41,.4,.62,.6,0,0,.08,.06,.08,.06,1.44,1.31,2.87,2.63,4.31,3.94,0,0,.05,.04,.05,.04,.42,.41,.85,.83,1.27,1.24,.22,.22,.44,.44,.66,.66,.42,.4,.85,.8,1.27,1.2,2.38,2.21,4.76,4.43,7.14,6.64,.98,.71,1.96,1.42,2.93,2.13,0,0,0,0,0,0,.36,.62,.59,1.38,1.08,1.84,11.43,10.64,22.88,21.25,34.34,31.86,.23,.21,.55,.31,.83,.46,2.33,2.16,4.66,4.32,6.99,6.49,1,.18,2,.52,2.99,.52,37.77,.03,75.53,.04,113.3-.05,1.5,0,3.32-.74,4.45-1.77,12.22-11.17,24.33-22.46,36.45-33.74,2.44-2.27,4.8-4.62,7.19-6.93,7.48-6.86,14.98-13.69,22.42-20.58,3.92-3.62,7.74-7.35,11.6-11.03,8.43-7.73,16.88-15.43,25.28-23.2,6.36-5.88,12.66-11.84,18.99-17.77,0,0,.05-.05,.05-.05,.18-.17,.36-.34,.55-.52l.18-.03s.01-.19,0-.19c.22-.04,.36-.17,.42-.4h.17s.07-.15,.07-.15c.28-.31,.56-.62,.84-.93,10.41-9.52,20.81-19.04,31.4-28.72-.12,2.79-.24,5.51-.36,8.24-1.02,9.63-2.07,19.26-3.06,28.9-.33,3.24-.5,6.5-.75,9.75-.21,2.2-.43,4.4-.64,6.59,0,0-.02,.1-.02,.1-.79,7.05-1.64,14.08-2.34,21.14-.56,5.63-.95,11.28-1.41,16.92-.15,.15-.16,.31-.02,.48-.22,1.99-.44,3.98-.67,5.97-.8,7.89-1.61,15.79-2.41,23.68-.9,9.36-1.79,18.71-2.69,28.07ZM209.37,353.13l-.08-.07c.26,.41,.52,.82,.78,1.24,0,0,.02,.04,.02,.04,.46,1.96,1.77,2.43,3.57,2.38,3.55-.09,7.11-.03,10.97-.03,0,2,0,3.51,0,5.02,.02,38.6,.02,77.19,.13,115.79,0,1.32,1.19,2.64,1.82,3.96,.54,.51,1.04,1.07,1.62,1.53,11.22,8.75,22.44,17.49,33.66,26.23,4.56,3.55,9.1,7.12,13.65,10.68,.17-.15,.33-.31,.5-.46-4.02-9.59-8.05-19.18-12.07-28.77,.04-3.71,.11-7.42,.11-11.13,0-40.86,0-81.72-.02-122.58,9.74-.09,19.48-.26,29.22-.22,2.06,0,3.29-.64,4.37-2.41,4.46-7.27,9.05-14.47,13.58-21.69,3.48-5.55,6.96-11.11,10.84-17.29-3.86,.31-6.99,.56-10.11,.81-1.08-.22-2.16-.64-3.25-.64-13.35-.04-26.7-.03-40.05-.03h-4.53v-68.74c1.48-.05,2.95-.13,4.43-.13,22.62-.01,45.23,0,67.85-.05,1,0,2.66-.05,2.89-.59,2.22-5.11,4.19-10.33,6.24-15.52,.47,1.07,1.34,2.14,1.35,3.22,.14,50.43,.2,100.86,.29,151.29,0,1.63,.14,3.26,.22,4.88-1.9,6.21-3.73,12.44-5.72,18.62-2.18,6.75-4.5,13.44-6.91,20.58,55.02-28.06,109.57-55.88,164.14-83.7-.27-.7-.33-1.04-.51-1.28-8.52-11.69-17.05-23.38-25.61-35.05-.54-.73-1.32-1.28-2-1.91-1.67-2.57-3.25-5.21-5.04-7.69-4.68-6.54-9.45-13.01-14.29-19.65-7.98,5.05-15.73,9.86-23.35,14.87-.81,.53-1.31,2.17-1.33,3.3-.11,8.95-.04,17.9-.1,26.85-.04,5.89-.18,11.77-.28,17.66-.5,.14-1.05,.19-1.51,.43-9.62,4.93-19.2,9.93-28.85,14.8-3.26,1.65-6.68,2.98-10.02,4.46,.05-.87,.14-1.74,.14-2.61,.02-44.8,.02-89.61,.07-134.41,0-1.49,.41-2.97,.63-4.46,2.45-2.22,4.96-4.37,7.31-6.69,1.59-1.57,2.95-3.38,4.42-5.08l-.08,.09c1.21-.96,2.43-1.92,3.64-2.88,.88-.86,1.75-1.72,2.63-2.58l.05-.04c7.3-6.77,14.59-13.53,22.68-21.03v15.09c-.06,.76-.22,1.52-.18,2.27,.65,10.35-.52,20.44-3.68,30.31-1.3,4.07-2.21,8.29-3.33,12.58,.7-.04,.96,.02,1.11-.08,11.88-8.13,23.77-16.25,35.61-24.44,.71-.49,1.49-1.41,1.58-2.2,1.15-10.08,2.17-20.17,3.23-30.26,.04-.64,.09-1.29,.14-1.93,.15-2.2,.3-4.39,.44-6.59,.69-5.38,1.37-10.75,2.06-16.13,1.27-11.46,2.55-22.91,3.82-34.37,.27-1.98,.55-3.95,.79-5.93,.72-6,1.51-11.99,2.08-18,.37-3.94,.4-7.91,.58-11.87l.14,.08s-.09-.12-.09-.12c-4.58,4.19-9.13,8.4-13.73,12.56-9.39,8.5-18.82,16.95-28.21,25.46-4.19,3.79-8.31,7.66-12.46,11.5-.83,.65-1.7,1.25-2.49,1.96-10.97,9.87-21.94,19.73-32.87,29.64-5.67,5.14-11.25,10.38-16.86,15.57l-.03,.03c-2.29,2.02-4.57,4.04-6.86,6.06-3.11,2.72-6.47,5.19-9.27,8.22-4.67,5.07-9.89,8.06-16.86,6.73-.19-.04-.41,.07-.62,.11-19.5,0-39,0-58.5,0-.64,0-1.28,0-1.91,0-1.48,0-2.96,0-4.45,0-18.43-.05-36.85-.1-55.28-.14-.73-.58-1.5-1.12-2.19-1.75-6.17-5.69-12.29-11.43-18.51-17.07-2.56-2.33-5.31-4.44-7.98-6.65-.35-.51-.63-1.11-1.07-1.5-7.05-6.31-14.13-12.59-21.2-18.88-6.02-5.52-12.02-11.08-18.08-16.56-17.49-15.81-35.01-31.6-52.52-47.39-2.91-2.62-5.84-5.22-9.23-8.24,.42,4.48,.73,8.25,1.14,12.01,1.66,14.95,3.35,29.9,5.05,44.85,1.67,14.73,3.37,29.46,5.06,44.19,1.3,12.04,2.6,24.07,3.9,36.11,.16,1.73,.29,3.45,.49,5.18,.97,8.59,1.95,17.17,2.93,25.75,.55,5.66,1.1,11.32,1.64,16.97,.24,1.41,.49,2.82,.73,4.21,0,16.22,.01,32.43,.02,48.65-.3,2.49-.59,4.98-.89,7.47-.41-1.96-.82-3.92-1.23-5.89v-.05c-1.55-8.45-3.08-16.9-4.65-25.34-.73-3.9-1.53-7.78-2.42-12.3-13.06,17.93-25.7,35.3-38.61,53.01,5.32,2.63,10.23,5.05,15.14,7.48l.26,.19h.32c.65,.37,1.31,.74,1.96,1.11,.21,.06,.41,.13,.62,.19,1.5,.83,2.99,1.66,4.49,2.49,1.68,.72,3.37,1.44,5.05,2.15,.38,.25,.76,.51,1.13,.76,.37,.2,.74,.4,1.11,.6,.89,.46,1.78,.92,2.68,1.38l.02-.04c.27,.14,.53,.29,.8,.43,.15,.17,.34,.24,.56,.21,.33,.26,.62,.59,.98,.78,10.02,5.08,20.05,10.15,30.07,15.22,2.71,1.37,5.43,2.7,8.44,4.2v-64.96c.56-.4,1.11-.81,1.67-1.21,.13,.73,.07,1.59,.42,2.18,4.51,7.38,9.07,14.73,13.62,22.08,1.99,3.32,3.93,6.67,5.97,9.96,5.43,8.75,10.91,17.48,16.37,26.21,.42,.68,.83,1.36,1.25,2.04-.05,.2,.01,.34,.19,.42,4.13,6.81,8.82,13.33,12.26,20.49,4.81,10.02,11.99,16.72,22.12,20.29,.79,.28,1.49,.83,2.27,1.14,.72,.29,1.49,.44,2.53,.74,0-14.69,0-28.97,0-43.26,0-.42-.03-.93-.25-1.26-3.87-5.95-7.77-11.89-11.66-17.83-.43-.71-.84-1.44-1.29-2.14-6.31-10.09-12.62-20.17-18.93-30.26-1.52-2.41-3.02-4.83-4.55-7.23-4.25-6.65-8.52-13.29-12.78-19.93-1.79-2.94-3.58-5.88-5.36-8.83-1.6-2.62-3.06-5.36-4.86-7.83-1.28-1.76-1.42-3.14,.11-4.65,10.15-10.69,20.3-21.37,30.44-32.06,4.03-4.35,8.07-8.71,12.1-13.06,3.1-3.26,6.18-6.55,9.32-9.78,1.41-1.45,2.95-2.76,4.4-4.17,1.57-1.53,3.09-3.11,4.64-4.67,.03,2.48-.69,4.43-.92,6.45-.13,1.19,.13,2.96,.9,3.65,4.15,3.7,8.51,7.13,12.8,10.66,1.53,1.51,3.07,3.02,4.6,4.53-.05,1.2-.15,2.39-.15,3.59-.01,22.5-.01,44.99-.01,67.49,0,1.27,0,2.53,0,4.22h-39.15c1.64,2.66,2.9,4.76,4.22,6.82,6.37,10.01,12.76,20.01,19.14,30.01,.17,.25,.35,.51,.52,.76Z"/>
      <path class="cls-1" d="M514.87,306.58c-.15-.02-.29-.04-.44-.07,.02-.09,.04-.25,.06-.25,.15,0,.3,.03,.44,.05-.02,.09-.04,.17-.06,.26Z"/>
      <path class="cls-1" d="M503.25,311.93c-.09-.12-.18-.24-.27-.37,.07-.05,.19-.15,.21-.13,.1,.11,.19,.24,.28,.36-.07,.05-.14,.09-.22,.14Z"/>
      <path class="cls-3" d="M72.18,176.35c.21,2.21,.42,4.42,.62,6.63-.44-.2-.87-.4-1.31-.59,.23-2.01,.46-4.03,.69-6.04Z"/>
      <path class="cls-22" d="M441.54,78.71c-.81,.19-1.62,.52-2.43,.54-1.13,.03-2.26-.17-3.71-.3,2.38-1.81,4.08-3.02,5.7-4.35,2.08-1.71,2.46,0,2.99,1.49-1.87-.18-2.72,.7-2.54,2.63h0Z"/>
      <path class="cls-22" d="M510.08,50.28c-.23,.13-.43,.29-.66,.36-.04,.01-.3-.38-.25-.45,.13-.21,.36-.34,.56-.51,.1,.16,.19,.33,.36,.6Z"/>
      <path class="cls-22" d="M461.95,74.87c-.28,.31-.56,.62-.84,.93,.28-.31,.56-.62,.84-.93Z"/>
      <path class="cls-22" d="M460.87,75.95c-.06,.23-.2,.36-.42,.4,.14-.13,.28-.27,.42-.4Z"/>
      <path class="cls-22" d="M460.26,76.57c-.18,.17-.36,.34-.55,.52,.18-.17,.36-.34,.55-.52Z"/>
      <path class="cls-22" d="M216.98,191.68c-2.33-2.16-4.66-4.32-6.99-6.49-1.05-1.56-2.1-3.12-3.6-5.34,1.88-.5,3.6-.86,5.25-1.43,1.87-.65,3.9-1.18,5.46-2.34,2.39-1.78,4.31-2.26,6.27,1.13,.82-1.13,1.4-1.92,1.97-2.71,1.23-.21,2.45-.59,3.68-.59,19.99-.04,39.99-.07,59.98,.02,3.62,.02,7.23,.55,10.84,.85,.08,.4,.16,.79,.23,1.19-3.6,1.26-7.19,2.53-10.81,3.75-.89,.3-1.94,.24-2.74,.68-2.83,1.54-5.37,3.21-8.96,3.15-3.34-.06-4.5,2.2-3.7,5.54-3.07,.17-6.18-.19-8.98,.6-13.43,3.77-27.1,1.02-40.62,1.86-2.43,.15-4.86,.09-7.29,.13Z"/>
      <path class="cls-22" d="M321.57,174.35c-.04-.07-.09-.13-.13-.2,.08-.05,.15-.09,.23-.14,.06,.11,.12,.22,.18,.33-.09,0-.18,0-.27,0Z"/>
      <path class="cls-10" d="M30.8,320.19c-.21,.28-.42,.57-.63,.85-.07-.07-.13-.13-.2-.2,.28-.22,.55-.44,.83-.65,0,0,0,0,0,0Z"/>
      <path class="cls-3" d="M441.54,78.71c-.17-1.93,.67-2.8,2.54-2.63-.85,.88-1.7,1.75-2.54,2.63Z"/>
      <path class="cls-20" d="M352.53,154.77h2.26c-.02,.3-.04,.59-.06,.89-.75-.09-1.51-.17-2.26-.26,.02-.21,.04-.42,.06-.63Z"/>
      <path class="cls-20" d="M358.76,153.31c.45-.29,.91-.58,1.36-.87,.09,.19,.18,.37,.27,.56-.49,.2-.98,.41-1.47,.61-.05-.1-.11-.2-.16-.3Z"/>
      <path class="cls-20" d="M356.36,149.56c.27,.22,.54,.45,.81,.67-.06,.07-.13,.13-.19,.2-.22-.28-.43-.56-.65-.84,0,0,.03-.03,.03-.03Z"/>
      <path class="cls-20" d="M358.88,154.83c-.27-.22-.55-.44-.82-.66,.27-.22,.55-.44,.82-.66v1.31Z"/>
      <path class="cls-8" d="M36.54,366.51c.07,.05,.14,.1,.21,.16-.1,.12-.19,.24-.3,.34-.01,.01-.13-.09-.2-.15,.1-.12,.19-.23,.29-.35Z"/>
      <path class="cls-9" d="M169.41,435.67c-.28-.22-.55-.43-.83-.65,.06-.07,.13-.13,.19-.2,.21,.28,.42,.57,.63,.85,0,0,0,0,0,0Z"/>
      <path class="cls-8" d="M488.53,99.63c.21-2.2,.43-4.4,.64-6.59,.27,2.25,2.03,4.65-.64,6.59Z"/>
      <path class="cls-16" d="M73.9,192.21c.06,1.31,.12,2.62,.18,3.92-.44-.64-.88-1.29-1.31-1.93,.04-2.4,.09-4.8,.13-7.2,.12,0,.24-.01,.36-.03,.07,.84,.14,1.67,.2,2.51,.15,.91,.3,1.81,.45,2.72Z"/>
      <path class="cls-11" d="M500.04,136.46c.1-.68,.2-1.35,.3-2.03,.19-.02,.38-.04,.57-.06,.13,.7,.27,1.39,.4,2.09h0c-.42,0-.85,0-1.27,0Z"/>
      <path class="cls-3" d="M187.21,144.33c-.07,3.22-1.65,5.17-4.61,4.97-.91-.06-1.73-1.62-2.59-2.5,.23-.35,.46-.69,.69-1.04,1.04,.2,2.09,.41,2.77,.54,1.38-.73,2.56-1.35,3.73-1.98h0Z"/>
      <path class="cls-3" d="M173.74,151.04c-.98-.71-1.96-1.42-2.93-2.13,1.19-.65,2.37-1.29,4.32-2.35-.66,2.13-1.02,3.3-1.39,4.48Z"/>
      <path class="cls-16" d="M160.4,139.13c-1.44-1.31-2.87-2.63-4.31-3.94,1.91,.77,4.61,.6,4.31,3.94Z"/>
      <path class="cls-3" d="M183,143.47c.34-1.43,.48-2.03,.62-2.62,.18,0,.35-.01,.53-.02,.11,.43,.34,.89,.28,1.29-.05,.29-.5,.51-1.43,1.35Z"/>
      <path class="cls-3" d="M181.06,140.55c-.55,.81-1.11,1.63-1.66,2.44-.28-.25-.56-.5-.84-.74,.73-.65,1.46-1.3,2.19-1.95,.1,.08,.21,.17,.31,.25Z"/>
      <path class="cls-3" d="M163.67,142.27c-.42-.4-.85-.8-1.27-1.2,.43-.53,.85-1.06,1.28-1.59,.2,.09,.41,.18,.61,.27-.21,.84-.41,1.68-.62,2.52Z"/>
      <path class="cls-16" d="M156.9,130.61c.06-.49,.12-.99,.18-1.48,.19,.02,.37,.05,.56,.07-.05,.5-.11,.99-.16,1.49-.19-.03-.38-.05-.58-.08Z"/>
      <path class="cls-16" d="M155.36,134.5c-.43-.38-.86-.77-1.3-1.15,.43,.38,.86,.77,1.3,1.15Z"/>
      <path class="cls-3" d="M187.21,144.33c.21-.28,.42-.57,.63-.85l.2,.2c-.28,.22-.55,.43-.83,.65h0Z"/>
      <path class="cls-3" d="M186.81,141.14c-.15,.01-.3,.03-.44,.02-.02,0-.03-.16-.04-.25,.15-.01,.3-.03,.44-.03,.02,0,.03,.16,.04,.25Z"/>
      <path class="cls-3" d="M180.47,140c.34-.15,.67-.31,1.02-.44,.04-.01,.19,.15,.18,.19-.13,.36-.28,.7-.43,1.05l-.77-.79Z"/>
      <path class="cls-16" d="M163.72,137.39c-.09-.12-.18-.24-.27-.37,.07-.05,.19-.15,.21-.13,.1,.11,.19,.24,.28,.36-.07,.05-.14,.09-.22,.14Z"/>
      <path class="cls-16" d="M170.31,127.89c-.12,.09-.24,.18-.36,.28-.05-.07-.14-.2-.13-.21,.1-.11,.23-.19,.35-.29,.05,.07,.09,.15,.14,.22Z"/>
      <path class="cls-16" d="M167.59,125.06c.01,.15,.03,.31,.02,.46,0,.02-.16,.03-.24,.04-.01-.15-.03-.31-.02-.46,0-.02,.16-.03,.24-.04Z"/>
      <path class="cls-16" d="M161.73,140.42c-.42-.41-.85-.83-1.27-1.24,.42,.41,.85,.83,1.27,1.24Z"/>
      <path class="cls-16" d="M156.01,135.13c-.21-.2-.41-.4-.62-.6,.21,.2,.41,.4,.62,.6Z"/>
      <path class="cls-3" d="M67.41,193.58v3.23l-.62,.02v-3.24c.21,0,.41,0,.62,0Z"/>
      <path class="cls-3" d="M68.03,191.01v-1.48c.16-.02,.32-.04,.48-.06l.26,1.44c-.25,.03-.5,.06-.74,.1Z"/>
      <path class="cls-3" d="M71.14,186.89v1.47c-.16,.02-.33,.03-.49,.05-.08-.48-.16-.96-.24-1.44,.24-.03,.49-.05,.73-.08Z"/>
      <path class="cls-3" d="M65,201c-.17,.27-.27,.43-.37,.59-.19-.17-.42-.31-.54-.52-.04-.07,.22-.46,.26-.45,.23,.08,.43,.24,.65,.38Z"/>
      <path class="cls-3" d="M70.09,204.27c-.17,.27-.27,.43-.37,.59-.19-.17-.42-.31-.54-.52-.04-.07,.22-.46,.26-.45,.23,.08,.43,.24,.65,.38Z"/>
      <path class="cls-3" d="M73.25,186.98c-.12,.02-.24,.03-.36,.03-.03-1.32-.06-2.64-.09-3.96,.15,1.31,.3,2.62,.45,3.93Z"/>
      <path class="cls-8" d="M484.07,144.24c.22-1.99,.44-3.98,.67-5.97v7.62c-.14,.02-.28,.03-.42,.05-.08-.57-.16-1.13-.24-1.7Z"/>
      <path class="cls-8" d="M500.04,136.46c.42,0,.85,0,1.27,0-.07,.89-.14,1.77-.22,2.66-.25,.03-.51,.05-.76,.08-.1-.91-.2-1.82-.29-2.73Z"/>
      <path class="cls-17" d="M386.02,362.12c3.35-1.48,6.76-2.81,10.03-4.46,9.65-4.87,19.23-9.87,28.85-14.8,.46-.23,1-.29,1.51-.43,.38-.82,1.06-1.63,1.1-2.47,.24-4.7,.57-8.63,5.07-12.13,4.26-3.31,7.6-8.05,12.45-10.84,3.11-1.79,6.11-4.37,9.45-5.01,5.37-1.02,8.56-4.52,12.33-8.56,.41,1.25,.78,2.37,1.16,3.55,.92,.04,1.87,.09,2.81,.14,.67,.63,1.46,1.17,2,1.91,8.56,11.67,17.09,23.36,25.61,35.05,.18,.25,.24,.59,.51,1.28-54.56,27.82-109.12,55.64-164.14,83.7,2.4-7.14,4.73-13.83,6.91-20.58,1.99-6.18,3.82-12.41,5.72-18.62,.05-4.23,.09-8.46,.14-12.69,1.59-1.81,3.01-3.83,4.79-5.41,4.63-4.1,9.41-8.01,14.14-11.99,.15-.13,.4-.13,.6-.18,4.18-1.12,6.83-4.07,8.84-7.81,.09-.16,.34-.22,.65-.41,.49,.42,1.02,.88,1.05,.9,2.91-1.19,5.4-2.22,7.9-3.24,.17,4.37,.34,8.73,.51,13.1Zm82.18-52.24c-.33-.26-.66-.53-.99-.79-.51,.73-1.03,1.45-1.54,2.18,.3,.23,.59,.47,.89,.7,.54-.7,1.09-1.39,1.63-2.09Z"/>
      <path class="cls-11" d="M427.5,197.51v-15.09c-8.09,7.5-15.38,14.27-22.68,21.03-.52-.88-1.05-1.75-1.97-3.3-.99,3.18,.56,3.18,1.93,3.34-.88,.86-1.75,1.72-2.63,2.58-.69-1.7-1.66-3.17-3.69-2.32-2.52,1.05-.41,2.61-.21,3.95,.06,.42,.17,.83,.25,1.25,0,0,.08-.09,.08-.09-1.6-.7-3.2-1.41-4.72-2.07-.75,.28-1.58,.86-2.39,.85-3.72-.06-5.7,2.38-7.51,5.2-.41,.64-1.08,1.28-1.77,1.54-3.76,1.46-7.74,2.44-11.32,4.27-7,3.58-13.95,7.08-22,7.13-.4,0-.81,.47-1.04,.62,.72,1.34,1.32,2.47,1.93,3.6-.72,.31-1.45,.61-2.17,.92-.15-.66-.3-1.33-.57-2.52-.7,.96-1.09,1.5-1.48,2.04-2.04,5.19-4.02,10.41-6.24,15.51-.24,.54-1.9,.59-2.89,.59-22.62,.04-45.23,.03-67.85,.05-1.48,0-2.95,.08-4.43,.13-.21,1.26-.6,2.52-.61,3.78-.06,7.87-.03,15.75-.04,23.62,0,1.16-.09,2.32-.18,4.32-2.96-2.73-4.61-.95-6.34,.83-.58,.6-1.41,.94-2.15,1.35-3.32,1.85-6.52,3.98-9.99,5.46-5.49,2.35-10.45,5.5-15.23,9.07-.5,.37-2.33-.07-2.58-.62-.79-1.72-1.55-3.66-1.57-5.53-.13-9.51-.03-19.02,0-28.54,6.14-2.94,12.3-5.84,18.43-8.82,4.26-2.07,8.4-4.43,12.72-6.33,3.13-1.37,6.48-2.21,10.09-3.41,.23,.29,.79,.99,1.67,2.09,.76-1.38,1.31-2.5,1.97-3.55,.56-.88,1.07-2.04,1.9-2.43,4.69-2.25,9.43-4.38,14.21-6.41,3.77-1.6,7.92-2.5,11.36-4.63,3.41-2.11,6.37-4.79,10.47-5.75,3.53-.83,7.29-1.53,9.87-4.78,.58-.73,1.9-.8,2.85-1.25,3.31-1.56,6.63-3.11,9.88-4.78,.41-.21,.46-1.13,.68-1.73,.21-.04,.42-.15,.62-.11,6.97,1.33,12.19-1.66,16.86-6.73,2.79-3.03,6.16-5.5,9.26-8.22,2.54,.88,2.86,2.87,2.4,5.58,4.65-7.45,14.27-5.69,19.36-11.98,.1-.13,.44-.19,.6-.11,3.32,1.55,4.9-1.53,7.19-2.78,4.01-2.19,8.08-4.25,12.17-6.27,.6-.3,1.46,.01,2.17-.13,1.68-.32,3.43-.53,5.01-1.17,3.79-1.52,7.39-3.65,11.27-4.81,7.41-2.2,15-3.73,21.76-7.87,1.8-1.1,3.91-2.5,5.81-2.41,5.27,.24,8.3-4.46,12.89-5.49,1.44-.32,3.02-1.09,4.27-.71,.7,.21,.92,2.32,1.24,3.61,.15,.62,.04,1.3,.05,1.96-.69,5.38-1.37,10.75-2.06,16.13-.15,2.2-.3,4.39-.44,6.59-.05,.64-.09,1.29-.13,1.93-.3,.54-.6,1.07-.91,1.62-.35-1.14-.69-2.26-.97-3.18-4.12,1.71-7.7,4-11.52,4.57-4.62,.69-8.35,3.17-12.48,4.79-2.89,1.13-5.64,2.66-8.46,4.02Zm-34.68,6.62c-.01-.09-.02-.25-.04-.25-.15,0-.3,.01-.44,.03,.01,.09,.02,.25,.04,.25,.15,0,.3-.01,.44-.03Zm12.51-3.75c.07-.05,.14-.1,.22-.14-.09-.12-.17-.25-.28-.36-.01-.01-.14,.09-.21,.13,.09,.12,.18,.25,.27,.37Z"/>
      <path class="cls-15" d="M91.9,191.57c-1.69-14.73-3.39-29.46-5.06-44.19-1.7-14.95-3.39-29.9-5.05-44.85-.42-3.76-.72-7.53-1.14-12.01,3.39,3.02,6.32,5.62,9.23,8.24,17.51,15.79,35.03,31.57,52.52,47.39,6.06,5.48,12.05,11.04,18.08,16.56-3.51-1.44-6.88-1.22-9.48,.96-1.87-2.71-3.53-5.1-4.91-7.11-2.32,.85-4.92,.96-5.85,2.31-2.45,3.57-6.09,3.54-9.45,4.59-.77,.24-1.49,1.03-1.98,1.75-.75,1.1-1.27,2.36-2.1,3.94,.64,.26,1.61,.66,2.84,1.16-4.24,2.95-4.76,2.72-6.68-1.92-.2,.56-.37,.91-.46,1.28-.9,3.47-3.22,4.45-6.54,4.01-2.69-.36-5.66,.05-8.28,.88-3.48,1.11-6.63,3.32-10.11,4.42-3.37,1.06-3.57,.88-2.22,4.44,1.54,4.1,.44,6.8-3.33,8.17Zm57.16-35.43c.5-.17,1-.34,1.5-.5-.36-.46-.73-.91-1.09-1.37-.13,.62-.27,1.25-.4,1.87-.28,.22-.55,.43-.83,.65,.07,.07,.13,.13,.2,.2,.21-.28,.42-.57,.63-.85Zm-56.09,31.73c-.22-.14-.42-.3-.65-.38-.04-.01-.31,.38-.27,.45,.13,.21,.36,.35,.54,.52,.1-.16,.2-.32,.37-.59Zm59.35-30.01c-.08,.01-.24,.02-.24,.04,0,.15,.01,.31,.02,.46,.08-.01,.24-.02,.24-.04,0-.15-.01-.31-.02-.46Z"/>
      <path class="cls-26" d="M100.86,275.58c-.55-5.66-1.1-11.32-1.64-16.97,1.5-.88,3.01-1.76,4.75-2.78,1.74,2.58,3.38,.16,5.08-1.02,2.59-1.8,5.09-3.73,7.69-5.53,3.52-2.43,7.08-4.79,10.63-7.18,.06,1.68,.12,3.35,.17,5.03,.36,2.39,2.79,2.05,4.04,3.26,.18-1.72,.35-3.43,.51-4.98,1.19-.33,2.74-.46,3.96-1.18,1.75-1.04,3.27-2.52,4.88-3.81,.17,.21,.34,.42,.51,.63,.18-.85,.37-1.69,.55-2.54l.37,.93c1.53-.12,3.34,.25,4.55-.46,4.09-2.39,7.76-5.63,12-7.65,4.03-1.93,7.21-5.75,12.04-5.93,.27,0,.63-.28,.77-.54,2.22-4.07,6.22-3.87,9.92-4.52,2.83-.5,5.44-1.15,8.09-2.99,3.01-2.08,7.18-2.37,11.43-3.61-.02,.05,.36-.75,.95-1.99,.96,1.19,1.63,2.03,2.77,3.45v-5.78c1.08,1.37,1.62,2.04,2.17,2.74,1.58-1.31,2.97-2.46,4.36-3.62,18.43,.05,36.85,.1,55.28,.14-1.17,1.66-2,4-3.58,4.85-5.04,2.72-10.36,4.92-15.59,7.27-1.62,.73-3.38,1.12-4.94,1.96-4.31,2.32-8.57,4.77-12.81,7.22-3.21,1.86-6.38,3.81-9.56,5.73-4.29-3.53-8.65-6.96-12.8-10.66-.77-.69-1.03-2.45-.9-3.65,.22-2.02,.95-3.97,.92-6.45-1.54,1.56-3.07,3.14-4.64,4.67-1.45,1.41-2.99,2.72-4.4,4.17-3.14,3.23-6.22,6.52-9.32,9.78-3.03-.33-4.67,1.94-6.57,3.72-2.19,2.05-3.66,5.34-7.48,4.38,.29,1.44,.51,2.57,.74,3.71-.7-.2-1.65-.17-2.07-.63-2.56-2.88-4.31-1.26-6.57,.67-3.44,2.95-7.03,5.91-10.99,7.97-6.13,3.2-12.69,5.55-18.96,8.47-5.05,2.36-9.97,5.02-14.93,7.59-1.66,.86-3.2,1.98-4.88,2.78-4.01,1.93-8.07,3.75-12.12,5.61,.04,.35,.08,.69,.12,1.04-1.51-1.1-3.01-2.21-4.52-3.31Z"/>
      <path class="cls-4" d="M225.43,260.47c-.02,9.51-.13,19.03,0,28.54,.03,1.87,.78,3.81,1.57,5.53,.25,.54,2.08,.99,2.58,.62,4.78-3.57,9.75-6.72,15.23-9.07,3.47-1.48,6.67-3.61,9.99-5.46,.74-.41,1.58-.75,2.15-1.35,1.73-1.78,3.38-3.56,6.34-.83,.09-2,.18-3.16,.18-4.32,.02-7.87-.02-15.75,.04-23.62,0-1.26,.4-2.52,.61-3.78,0,22.73,0,45.46,0,68.74h4.53c13.35,0,26.7-.02,40.05,.03,1.08,0,2.17,.42,3.25,.64-1.53,.06-3.07,.12-4.6,.17-14.6-.02-29.19-.14-43.79,.05-1.86,.02-4.26,1.2-5.46,2.67-5.74,7.07-13.65,10.66-21.2,14.9-4.09,2.29-8.13,4.72-11.94,7.45-3.57,2.56-6.78,5.66-10.24,8.4-.34,.27-1.37-.22-1.99-.55-.58-.31-1.04-.86-1.56-1.31-.36,.81-.72,1.62-1.08,2.43-.28,.22-.55,.43-.83,.65,.07,.07,.13,.13,.2,.2,.21-.28,.42-.57,.63-.85,.22,1.31,.43,2.62,.65,3.93-.22,.01-.43,.02-.65,.03,0,0-.02-.04-.02-.04-.26-.41-.52-.82-.78-1.24,0,0,.08,.07,.08,.07-.17-.25-.35-.51-.52-.76-6.38-10-12.77-20-19.14-30.01-1.31-2.06-2.58-4.17-4.22-6.82h39.15c0-1.68,0-2.95,0-4.22,0-22.5,0-44.99,.01-67.49,0-1.2,.1-2.39,.15-3.59,.18,1.14,.5,2.29,.52,3.43,.08,5.6,.08,11.2,.11,16.8Z"/>
      <path class="cls-2" d="M91.9,191.57c3.77-1.37,4.87-4.07,3.33-8.17-1.34-3.57-1.15-3.38,2.22-4.44,3.48-1.1,6.63-3.3,10.11-4.42,2.62-.84,5.59-1.24,8.28-.88,3.33,.44,5.64-.53,6.54-4.01,.1-.37,.26-.72,.46-1.28,1.92,4.64,2.44,4.87,6.68,1.92-1.23-.5-2.2-.9-2.84-1.16,.83-1.59,1.35-2.84,2.1-3.94,.49-.72,1.21-1.51,1.98-1.75,3.36-1.04,7-1.02,9.45-4.59,.92-1.35,3.53-1.46,5.85-2.31,1.39,2.01,3.04,4.4,4.91,7.11,2.6-2.19,5.97-2.4,9.48-.96,7.07,6.29,14.15,12.57,21.2,18.88,.44,.4,.72,1,1.07,1.5-.39,.72-.7,1.5-1.2,2.13-.52,.65-1.68,1.72-1.78,1.64-2.81-2.41-4.87-.13-6.17,1.62-2.06,2.78-4.7,3.35-7.67,3.8-2.07,.32-4.2,.71-6.11,1.55-2.04,.9-4.11,2.24-2.12,5.38-1.58,.61-2.94,1.13-4.29,1.66,0,0,0,0,0,0-.05-.98-.1-1.95-.15-2.93-1.14,.08-2.29,.16-3.43,.25-9.12-7.98-18.24-15.96-28.13-24.6,.75,9.33,1.41,17.6,2.07,25.86-.05,2.5,.14,5.03-.21,7.49-.36,2.52-.9,5.13-1.99,7.38-.93,1.92-2.75,3.39-4.16,5.04-.47-.55-1.2-2.01-2.35-2.6-2.02-1.04-13.71,2.81-15.02,4.66-.37,.52-.55,1.18-.92,1.71-1.08,1.54-2.21,3.05-3.32,4.57-1.3-12.04-2.6-24.07-3.9-36.11Z"/>
      <path class="cls-19" d="M464.47,161.05c0-.66,.1-1.34-.05-1.96-.32-1.29-.54-3.4-1.24-3.61-1.25-.37-2.83,.39-4.27,.71-4.58,1.03-7.62,5.74-12.89,5.49-1.91-.09-4.02,1.31-5.81,2.41-6.76,4.14-14.35,5.66-21.76,7.87-3.88,1.15-7.48,3.29-11.27,4.81-1.58,.63-3.32,.84-5.01,1.17-.71,.14-1.57-.17-2.17,.13-4.09,2.02-8.16,4.09-12.17,6.27-2.29,1.25-3.87,4.34-7.19,2.78-.16-.07-.5-.01-.6,.11-5.08,6.29-14.71,4.52-19.36,11.98,.46-2.71,.14-4.69-2.4-5.58,2.29-2.02,4.57-4.04,6.86-6.06,.05,.42-.03,.95,.19,1.23,.38,.5,.92,.89,1.46,1.2,.09,.05,.79-.68,.74-.77-.31-.56-.69-1.11-1.17-1.5-.28-.22-.79-.14-1.19-.19,5.62-5.19,11.2-10.43,16.86-15.57,10.93-9.91,21.9-19.77,32.87-29.64,.78-.71,1.65-1.31,2.48-1.96,1.69,0,3.39,.06,5.08,0,1.79-.05,3.87,.35,5.28-.46,1.31-.75,1.9-2.84,2.33-3.56,2.34,.22,4.64,1.02,6.6,.5,5.37-1.43,10.6-3.42,15.88-5.2,3.94-1.33,7.88-2.71,11.83-4,1.27-.42,2.6-.65,3.9-.97-1.27,11.46-2.55,22.91-3.82,34.37Zm-98.5,31.22c-.27-.37-.54-.73-.81-1.1-.74,.65-1.48,1.29-2.23,1.94,.26,.3,.69,.9,.74,.86,.79-.52,1.54-1.12,2.29-1.7Zm10.63-6.98l.04,.83,1.42-.22c0-.18-.02-.36-.03-.54-.48-.03-.96-.05-1.44-.08Z"/>
      <path class="cls-5" d="M225.43,260.47c-.03-5.6-.03-11.2-.11-16.8-.02-1.15-.34-2.29-.52-3.43-1.53-1.51-3.07-3.02-4.6-4.53,3.19-1.91,6.35-3.87,9.56-5.73,4.24-2.46,8.5-4.9,12.81-7.22,1.55-.84,3.32-1.23,4.94-1.96,5.23-2.35,10.55-4.55,15.59-7.27,1.58-.85,2.41-3.19,3.58-4.85,1.48,0,2.96,0,4.45,0,.64,1.51,1.28,1.51,1.91,0,19.5,0,39,0,58.5,0-.22,.59-.28,1.52-.68,1.73-3.26,1.67-6.57,3.22-9.88,4.78-.95,.45-2.27,.52-2.85,1.25-2.58,3.25-6.34,3.95-9.87,4.78-4.1,.97-7.05,3.65-10.47,5.75-3.45,2.13-7.59,3.03-11.36,4.63-4.78,2.03-9.52,4.16-14.21,6.41-.82,.39-1.34,1.55-1.9,2.43-.66,1.05-1.22,2.17-1.97,3.55-.88-1.1-1.44-1.8-1.67-2.09-3.61,1.2-6.96,2.03-10.09,3.41-4.33,1.9-8.47,4.26-12.72,6.33-6.12,2.98-12.28,5.89-18.43,8.82Zm3.36-27.54c-.11-.1-.23-.2-.34-.3-.05,.07-.16,.19-.14,.21,.1,.11,.22,.21,.33,.31,.05-.07,.1-.14,.15-.21Z"/>
      <path class="cls-13" d="M307.36,316.32c1.53-.06,3.07-.12,4.6-.17,3.13-.25,6.25-.5,10.11-.81-3.88,6.19-7.36,11.74-10.84,17.29-4.54,7.23-9.12,14.42-13.58,21.69-1.09,1.77-2.31,2.42-4.37,2.41-9.74-.04-19.48,.13-29.22,.22-.19,4.1-.77,8.23-.44,12.29,.33,4.03-2.15,5.74-4.56,7.63-4.58,3.59-9.33,6.97-13.93,10.54-3.77,2.93-7.37,6.1-11.16,8.99-2.74,2.08-5.69,3.87-8.54,5.79,0-10.28,.01-20.55,.02-30.83,3.55,1.66,5.16-.97,6.93-3.31,.75-1,1.47-2.42,2.49-2.76,7.14-2.42,12.31-8.11,18.66-11.81,1.8-1.05,3.26-2.7,5.01-3.88,3.34-2.25,6.66-4.6,10.21-6.46,4.94-2.58,8.02-7.95,13.69-9.38,.92-.23,1.86-1.16,2.4-2.03,3.59-5.71,9.26-7.72,15.12-9.78,2.82-1,6.5-1.6,7.42-5.62Z"/>
      <path class="cls-1" d="M263.96,490.66c4.02,9.59,8.05,19.18,12.07,28.77-.17,.15-.33,.31-.5,.46-4.55-3.56-9.1-7.13-13.65-10.68-11.22-8.74-22.45-17.48-33.66-26.23-.58-.45-1.08-1.01-1.62-1.53-.42-1.3-1.17-2.6-1.2-3.92-.13-4.56,0-9.13,.02-13.7,.8-.81,1.59-1.63,2.39-2.44,1.4-1.41,2.73-2.9,4.21-4.2,5.57-4.9,11.18-9.73,16.77-14.6,.24-.21,.34-.58,.58-.76,4.67-3.6,9.35-7.18,14.02-10.77,.04,18.47,.07,36.94,.14,55.41,0,1.4,.27,2.79,.42,4.18Z"/>
      <path class="cls-14" d="M153.41,200.86c1.36-.52,2.71-1.05,4.29-1.66-1.99-3.14,.08-4.48,2.12-5.38,1.91-.84,4.04-1.24,6.11-1.55,2.97-.45,5.61-1.02,7.67-3.8,1.3-1.75,3.36-4.03,6.17-1.62,.1,.08,1.26-.99,1.78-1.64,.5-.63,.81-1.41,1.2-2.13,2.66,2.21,5.41,4.32,7.98,6.65,6.21,5.64,12.34,11.38,18.51,17.07,.69,.63,1.46,1.17,2.19,1.75-1.39,1.16-2.79,2.31-4.36,3.62-.55-.7-1.09-1.37-2.17-2.74v5.78c-1.14-1.42-1.81-2.26-2.77-3.45-.59,1.23-.97,2.04-.95,1.99-4.25,1.24-8.42,1.53-11.43,3.61-2.65,1.83-5.26,2.49-8.09,2.99-3.7,.65-7.7,.45-9.92,4.52-.14,.26-.5,.53-.77,.54-4.83,.18-8.01,4.01-12.04,5.93-4.23,2.02-7.9,5.26-12,7.65-1.21,.71-3.02,.34-4.55,.46l-.37-.93c-.18,.85-.37,1.69-.55,2.54-.17-.21-.34-.42-.51-.63-1.62,1.29-3.13,2.77-4.88,3.81-1.22,.72-2.77,.85-3.96,1.18-.16,1.55-.33,3.27-.51,4.98-1.25-1.21-3.68-.87-4.04-3.26,.46-.2,1.05-.27,1.35-.61,4.24-4.89,8.44-9.81,12.64-14.74,6.52-7.66,13.03-15.34,19.4-22.84-2.65-2.84-5.09-5.46-7.52-8.08Z"/>
      <path class="cls-28" d="M194.19,359.56c3.89,5.94,7.79,11.87,11.66,17.83,.21,.33,.25,.83,.25,1.26,.01,14.28,0,28.57,0,43.26-1.05-.3-1.82-.45-2.53-.74-.78-.32-1.48-.87-2.27-1.14-10.13-3.57-17.31-10.27-22.12-20.29-3.44-7.16-8.13-13.68-12.26-20.49,6.36-3.33,10.81-8.96,15.72-14.02,1.22-1.26,2.24-2.75,3.34-4.13,1.05,1.25,2.1,2.5,3.43,4.08,.21-1.6,.39-2.94,.58-4.3,1.44-.45,2.82-.88,4.2-1.3Z"/>
      <path class="cls-4" d="M194.19,359.56c-1.38,.43-2.76,.85-4.2,1.3-.18,1.37-.36,2.7-.58,4.3-1.33-1.58-2.38-2.83-3.43-4.08-1.11,1.38-2.12,2.86-3.34,4.13-4.91,5.06-9.36,10.69-15.72,14.02-.18-.08-.25-.22-.19-.42-.42-.68-.83-1.36-1.25-2.04-5.46-8.73-10.93-17.46-16.37-26.21-2.04-3.29-3.98-6.64-5.97-9.96,1.15-1.67,2.29-3.34,3.72-5.43,.62-.25,2.02-.79,3.4-1.4,2.11-.94,4.13-2.56,6.3-2.8,6.36-.71,6.6-.71,7.02-7.24,1.08,.43,2.44,1.48,3.06,1.13,2.34-1.31,3.14,.64,4.53,1.64,.73,.52,1.86,.46,2.8,.66,6.31,10.09,12.62,20.17,18.93,30.26,.44,.71,.86,1.43,1.29,2.14Z"/>
      <path class="cls-21" d="M347.6,230.93c.72-.31,1.45-.61,2.17-.92-.61-1.13-1.21-2.26-1.93-3.6,.23-.15,.63-.62,1.04-.62,8.05-.05,15-3.56,22-7.13,3.58-1.83,7.56-2.81,11.32-4.27,.69-.27,1.36-.9,1.77-1.54,1.82-2.82,3.79-5.26,7.51-5.2,.81,.01,1.64-.57,2.39-.85,1.52,.67,3.12,1.37,4.72,2.07-1.46,1.7-2.83,3.51-4.42,5.08-2.35,2.32-4.87,4.47-7.31,6.69-.42,1.08-1.19,2.16-1.22,3.25-.13,5.46,.03,10.93-.15,16.39-.04,1.11-.86,2.63-1.77,3.21-4.21,2.66-8.6,5.02-12.89,7.56-3.25,1.92-6.31,4.23-9.68,5.86-3.35,1.62-6.98,2.63-10.92,4.06-.26,.3-.97,1.1-1.67,1.9-.36-1.03-1.03-2.05-1.04-3.08-.04-9.62,.03-19.24,.07-28.85Z"/>
      <path class="cls-28" d="M347.6,230.93c-.04,9.62-.11,19.24-.07,28.85,0,1.03,.68,2.06,1.04,3.08,.7-.8,1.4-1.6,1.67-1.9,3.95-1.43,7.58-2.44,10.92-4.06,3.37-1.64,6.43-3.94,9.68-5.86,4.29-2.54,8.68-4.9,12.89-7.56,.91-.58,1.73-2.09,1.77-3.21,.18-5.46,.02-10.93,.15-16.39,.03-1.09,.79-2.17,1.22-3.25-.22,1.49-.63,2.97-.63,4.46-.04,44.8-.05,89.61-.07,134.41,0,.87-.09,1.74-.14,2.61-.17-4.37-.34-8.73-.51-13.1,0-15.3-.01-30.6-.02-45.9v-30.7c-2.68,1.48-4.87,2.73-7.11,3.9-3,1.57-6.09,2.97-9.05,4.62-5.79,3.22-11.65,6.34-17.2,9.97-1.99,1.3-4.38,3.89-4.49,6-.45,9.24-.12,18.53-.08,27.8,0,17.48-.02,34.96-.03,52.45-.05,4.23-.09,8.46-.14,12.69-.07-1.63-.21-3.26-.22-4.88-.08-50.43-.15-100.86-.29-151.29,0-1.07-.88-2.14-1.35-3.21,.39-.54,.78-1.08,1.48-2.04,.27,1.19,.42,1.86,.57,2.52Z"/>
      <path class="cls-24" d="M427.5,197.51c2.81-1.35,5.56-2.88,8.46-4.02,4.13-1.62,7.86-4.09,12.48-4.79,3.82-.57,7.4-2.86,11.52-4.57,.28,.93,.62,2.04,.97,3.18,.31-.55,.61-1.09,.91-1.62-1.06,10.09-2.08,20.18-3.23,30.26-.09,.8-.88,1.72-1.58,2.2-11.85,8.19-23.73,16.31-35.61,24.44-.15,.1-.41,.04-1.11,.08,1.12-4.3,2.03-8.51,3.33-12.58,3.16-9.87,4.34-19.96,3.68-30.31-.05-.75,.11-1.51,.18-2.27Z"/>
      <path class="cls-25" d="M100.86,275.58c1.51,1.1,3.01,2.21,4.52,3.31-.04-.35-.08-.69-.12-1.04,4.04-1.86,8.11-3.68,12.12-5.61,1.68-.81,3.22-1.92,4.88-2.78,4.96-2.57,9.88-5.23,14.93-7.59,6.28-2.93,12.83-5.27,18.96-8.47,3.96-2.07,7.55-5.02,10.99-7.97,2.25-1.94,4-3.55,6.57-.67,.42,.47,1.36,.44,2.07,.63h0l1.08,1.12,.13,.14c-10.15,10.69-20.3,21.37-30.44,32.06,.25-.91,.5-1.83,1.03-3.75-1.86,.54-3.3,.7-4.49,1.34-3.95,2.15-7.75,4.6-11.72,6.7-4.55,2.41-9.29,4.44-13.82,6.89-3.83,2.07-7.48,4.49-11.34,6.84-.23-1.29-.49-2.68-.74-4.07-.3,.01-.61,.02-.91,.04,0,3.4-.04,6.8,.02,10.2,.03,1.8-.36,3.05-2.43,2.88-.05-3.58-.06-7.15-.14-10.73-.11-5.07-.26-10.14-.4-15.21-.24-1.41-.49-2.82-.73-4.23Z"/>
      <path class="cls-7" d="M470.79,307.1c-.95-.05-1.89-.09-2.81-.14-.39-1.18-.75-2.3-1.16-3.55-3.77,4.04-6.96,7.54-12.33,8.56-3.34,.63-6.34,3.22-9.45,5.01-4.85,2.79-8.2,7.54-12.45,10.84-4.5,3.5-4.83,7.43-5.07,12.13-.04,.84-.72,1.65-1.1,2.47,.1-5.89,.25-11.77,.28-17.66,.05-8.95-.02-17.9,.1-26.85,.01-1.13,.52-2.77,1.33-3.3,7.62-5,15.36-9.82,23.35-14.87,4.84,6.64,9.61,13.12,14.29,19.65,1.78,2.49,3.36,5.12,5.04,7.69Z"/>
      <path class="cls-27" d="M68.95,352.84c-4.91-2.43-9.82-4.85-15.14-7.48,12.9-17.72,25.55-35.08,38.61-53.01,.89,4.52,1.7,8.4,2.42,12.3,1.57,8.44,3.1,16.89,4.65,25.34-.74-.52-1.48-1.03-2.09-1.45-2.14,2.41-4.22,4.77-6.31,7.12-.15-.3-.3-.61-.46-.91-1.2,.26-2.88,.1-3.53,.86-3.62,4.25-8.23,6.57-13.37,7.93-4.15,1.1-4.37,1.67-1.16,5.28-1.2,1.33-2.42,2.67-3.63,4.02Z"/>
      <path class="cls-12" d="M127.42,333.97v48.55c-3.01-1.5-5.73-2.83-8.44-4.2-10.03-5.06-20.05-10.13-30.07-15.22-.36-.18-.66-.51-.98-.78,.72-.2,1.44-.4,2.87-.8-1.82-.88-2.94-1.43-4.05-1.97,.65-.82,1.14-2.04,1.98-2.4,3.55-1.53,7.12-3.15,10.84-4.07,4.35-1.08,6-2.57,6.27-7.14,.05-.79,.26-1.56,.4-2.34,.24-.03,.47-.07,.71-.1,.46,1.09,.91,2.19,1.66,3.97,2.09-1.57,3.96-3.03,5.88-4.4,4.3-3.06,8.62-6.08,12.93-9.11Z"/>
      <path class="cls-14" d="M95.8,227.68c1.11-1.52,2.24-3.03,3.32-4.57,.37-.52,.55-1.19,.92-1.71,1.32-1.85,13.01-5.7,15.02-4.66,1.15,.59,1.88,2.05,2.35,2.6,1.41-1.65,3.23-3.12,4.16-5.04,1.09-2.25,1.63-4.86,1.99-7.38,.35-2.45,.16-4.99,.21-7.49,1.2,14.22,2.4,28.45,3.6,42.67-3.55,2.39-7.11,4.74-10.63,7.18-2.59,1.79-5.09,3.73-7.69,5.53-1.7,1.18-3.34,3.6-5.08,1.02-1.75,1.02-3.25,1.9-4.75,2.78-.98-8.58-1.96-17.17-2.93-25.75-.19-1.72-.33-3.45-.49-5.18Z"/>
      <path class="cls-11" d="M127.42,333.97c-4.31,3.03-8.64,6.05-12.93,9.11-1.92,1.37-3.79,2.83-5.88,4.4-.75-1.79-1.2-2.88-1.66-3.97-.24,.03-.47,.07-.71,.1-.14,.78-.36,1.55-.4,2.34-.28,4.57-1.93,6.06-6.27,7.14-3.72,.92-7.29,2.54-10.84,4.07-.84,.36-1.33,1.58-1.98,2.4h0l-2.87,.79c-.37-.2-.74-.4-1.11-.6-.38-.25-.76-.51-1.14-.77-1.68-.72-3.37-1.44-5.05-2.15-.59-2.57-2.51-2.59-4.49-2.49-.21-.06-.41-.13-.62-.19-.65-.37-1.31-.74-1.96-1.11h-.32s-.26-.19-.26-.19c1.22-1.35,2.43-2.69,3.63-4.02-3.21-3.62-2.99-4.18,1.16-5.28,5.14-1.37,9.75-3.69,13.37-7.93,.65-.76,2.33-.6,3.53-.86,.15,.3,.3,.61,.46,.91,2.08-2.35,4.17-4.7,6.31-7.12,.6,.42,1.34,.93,2.09,1.45,0,0,0,.05,0,.05-.69,2-1.37,3.99-2.11,6.14,1.12-.08,2.23-.17,3.34-.25,.3-2.49,.59-4.98,.88-7.47,.18-.78,.36-1.57,.54-2.36,2.64-1.76,3.25,.15,3.63,2.23,.24,1.32,.25,2.68,.4,4.45,3.59-1.74,6.02-3.84,7.56-7.12,.73-1.56,1.48-4.14,3.98-1.46,.27,.29,1.7-.22,2.34-.7,2.52-1.9,4.93-3.94,7.39-5.92v16.41Zm-26.42,11.9c.27-.02,.53-.03,.8-.05-.07-.49-.14-.98-.21-1.46-.17,0-.35,.02-.52,.03-.02,.5-.05,.99-.07,1.49Zm-25.33,2.51c.11,.1,.23,.2,.34,.3,.05-.07,.16-.19,.14-.21-.1-.11-.22-.21-.33-.31-.05,.07-.1,.14-.15,.21Z"/>
      <path class="cls-9" d="M263.96,490.66c-.15-1.39-.42-2.79-.42-4.18-.07-18.47-.1-36.94-.14-55.41,.03-9.05,.18-18.1,0-27.15-.05-2.43-1.09-4.84-1.52-6.63-2.53,1.72-4.9,3.31-7.25,4.94-1.4,.97-3.34,1.68-4.04,3.05-2.16,4.24-6.59,5.6-9.49,8.74-4.82,5.2-12.44,7.34-15.13,14.82-.05,.14-.36,.19-.55,.28,0-8.98,0-17.95,0-26.93,2.85-1.92,5.8-3.71,8.54-5.79,3.8-2.89,7.39-6.06,11.16-8.99,4.6-3.57,9.34-6.95,13.93-10.54,2.41-1.89,4.89-3.6,4.56-7.63-.33-4.05,.26-8.19,.44-12.29,0,40.86,.02,81.72,.01,122.58,0,3.71-.07,7.42-.11,11.13Z"/>
      <path class="cls-26" d="M468.3,126.68c-1.3,.32-2.63,.55-3.9,.97-3.95,1.3-7.89,2.67-11.83,4-5.28,1.78-10.51,3.77-15.88,5.2-1.96,.52-4.25-.28-6.6-.5-.44,.72-1.02,2.81-2.33,3.56-1.41,.81-3.49,.41-5.28,.46-1.69,.05-3.39,0-5.08,0,4.15-3.84,8.27-7.71,12.46-11.5,9.39-8.5,18.82-16.96,28.21-25.46,4.6-4.16,9.16-8.37,13.73-12.56,0,0-.06,.04-.06,.04-.18,3.96-.21,7.93-.58,11.87-.57,6.01-1.36,12-2.08,18-.24,1.98-.53,3.95-.79,5.93Z"/>
      <path class="cls-5" d="M127.44,317.56c-2.45,1.99-4.87,4.03-7.39,5.92-.64,.48-2.07,.99-2.34,.7-2.5-2.68-3.25-.09-3.98,1.46-1.54,3.28-3.97,5.38-7.56,7.12-.15-1.77-.16-3.14-.4-4.45-.38-2.07-.98-3.98-3.63-2.23,0-3.06,0-6.12,0-9.17,1.03-1.32,2.06-2.64,3.14-4.04,.92-.18,2.09-.23,3.13-.63,4.91-1.87,9.78-3.87,14.69-5.76,1.99-.76,4.14-1.28,2.89-3.96,2.32-1.19,4.38-2.3,6.49-3.31,1.67-.8,3.54-1.24,5.07-2.24,2.53-1.67,4.53-4.1,7.95-4.21,1.94-.07,3.85-1.03,5.78-1.58,1.79,2.94,3.58,5.88,5.36,8.83-.93,.83-2.06,1.52-2.74,2.53-1.09,1.62-2.22,1.46-3.58,.59-.13-.7-.27-1.41-.4-2.11-.28,.14-.55,.27-.83,.41,.41,.57,.82,1.13,1.23,1.7,.67,2.38,.18,4.26-2.14,5.4-1.88,.92-3.68,2.02-5.61,2.81-3.06,1.26-6.09,2.38-8.01,5.51-.62,1-2.08,1.46-3.15,2.16-.2-.25-.39-.5-.59-.75,.18-.76,.37-1.51,.64-2.62-1.02,.31-1.7,.51-2.38,.71-.55,.4-1.1,.81-1.66,1.21Z"/>
      <path class="cls-11" d="M150.33,303.12c1.36,.86,2.48,1.03,3.58-.59,.68-1.01,1.81-1.7,2.74-2.53,4.26,6.64,8.53,13.28,12.78,19.93,1.53,2.4,3.04,4.82,4.55,7.23-.95-.2-2.07-.14-2.8-.66-1.39-1-2.2-2.94-4.53-1.64-.62,.35-1.98-.7-3.06-1.13-.42,6.53-.66,6.53-7.02,7.24-2.17,.24-4.19,1.86-6.3,2.8-1.38,.62-2.79,1.15-3.4,1.4-1.43,2.09-2.58,3.76-3.72,5.43-4.55-7.35-9.12-14.7-13.62-22.08-.36-.59-.29-1.45-.42-2.18,.68-.2,1.36-.41,2.38-.71-.27,1.1-.45,1.86-.64,2.62,.2,.25,.39,.5,.59,.75,1.07-.71,2.53-1.16,3.15-2.16,1.92-3.13,4.95-4.24,8.01-5.51,1.92-.79,3.73-1.89,5.61-2.81,2.32-1.14,2.8-3.02,2.14-5.4h0Zm9.77,21.74c-.01-.09-.02-.25-.04-.25-.15,0-.3,.01-.44,.03,.01,.09,.02,.25,.04,.25,.15,0,.3-.01,.44-.03Z"/>
      <path class="cls-19" d="M151.28,291.17c-1.92,.56-3.84,1.52-5.78,1.58-3.42,.12-5.42,2.55-7.95,4.21-1.53,1.01-3.4,1.45-5.07,2.24-2.1,1.01-4.16,2.12-6.49,3.31,1.25,2.69-.9,3.2-2.89,3.96-4.91,1.89-9.78,3.89-14.69,5.76-1.05,.4-2.22,.45-3.13,.63-1.09,1.4-2.11,2.72-3.14,4.04,0-3.72,0-7.44,0-11.16,2.07,.17,2.46-1.08,2.43-2.88-.06-3.4-.02-6.8-.02-10.2,.3-.01,.61-.02,.91-.04,.25,1.39,.5,2.78,.74,4.07,3.86-2.35,7.51-4.77,11.34-6.84,4.53-2.45,9.27-4.48,13.82-6.89,3.97-2.1,7.77-4.55,11.72-6.7,1.19-.65,2.63-.81,4.49-1.34-.53,1.93-.78,2.84-1.03,3.75-1.53,1.52-1.39,2.9-.11,4.65,1.8,2.47,3.26,5.21,4.86,7.83Z"/>
      <path class="cls-28" d="M225.42,402.19c0,8.98,0,17.95,0,26.93,0,11.58,0,23.15,0,34.73-.03,4.57-.15,9.13-.02,13.7,.04,1.32,.78,2.61,1.2,3.92-.64-1.32-1.82-2.64-1.82-3.96-.12-38.6-.12-77.19-.13-115.79,0-1.51,0-3.02,0-5.02-3.86,0-7.42-.06-10.97,.03-1.8,.04-3.11-.42-3.57-2.38,.22-.01,.43-.02,.65-.03,1.24,.44,2.46,1.17,3.72,1.26,2.84,.19,5.7,.11,8.55,.05,1.86-.04,2.55,.57,2.45,2.69-.21,4.35-.04,8.71-.03,13.07,0,10.28-.01,20.55-.02,30.83Z"/>
      <path class="cls-25" d="M175.76,245.38c-.23-1.13-.45-2.27-.74-3.71,3.82,.96,5.28-2.33,7.48-4.38,1.9-1.78,3.55-4.05,6.57-3.72-4.03,4.35-8.07,8.71-12.1,13.06,0,0-.13-.14-.13-.14-.36-.37-.72-.75-1.08-1.12h0Z"/>
      <path class="cls-28" d="M102.14,305.75c0,3.72,0,7.44,0,11.16,0,3.06,0,6.12,0,9.17-.18,.79-.36,1.58-.53,2.36,0-16.22,0-32.44-.01-48.65,.14,5.08,.29,10.15,.4,15.22,.08,3.58,.1,7.15,.14,10.73Z"/>
      <path class="cls-21" d="M398.51,208.96c-.09-.42-.19-.83-.25-1.25-.2-1.34-2.31-2.9,.21-3.95,2.03-.85,3,.62,3.69,2.32-1.21,.96-2.43,1.92-3.64,2.88Z"/>
      <path class="cls-27" d="M100.72,335.92c-1.11,.08-2.22,.17-3.34,.25,.74-2.15,1.43-4.14,2.11-6.14,.41,1.96,.82,3.92,1.23,5.89Z"/>
      <path class="cls-11" d="M86.75,359.55c1.11,.54,2.23,1.08,4.05,1.97-1.43,.4-2.15,.6-2.87,.8-.22,.04-.41-.03-.56-.21-.27-.14-.53-.29-.8-.43,0,0-.02,.04-.02,.04,.06-.72,.13-1.44,.19-2.16h0Z"/>
      <path class="cls-27" d="M72.1,354.33c1.98-.1,3.9-.08,4.49,2.49-1.5-.83-2.99-1.66-4.49-2.49Z"/>
      <path class="cls-24" d="M461.97,183.77c.15-2.2,.3-4.39,.44-6.59-.15,2.2-.3,4.39-.44,6.59Z"/>
      <path class="cls-12" d="M86.75,359.55c-.06,.72-.13,1.44-.19,2.16-.89-.46-1.78-.92-2.68-1.38,.96-.26,1.91-.53,2.87-.79Z"/>
      <path class="cls-26" d="M273.05,208.69c-.64,1.51-1.28,1.52-1.91,0,.64,0,1.28,0,1.91,0Z"/>
      <path class="cls-28" d="M165.48,376.78c.42,.68,.83,1.36,1.25,2.04-.42-.68-.83-1.36-1.25-2.04Z"/>
      <path class="cls-27" d="M69.52,353.03c.65,.37,1.31,.74,1.96,1.11-.65-.37-1.31-.74-1.96-1.11Z"/>
      <path class="cls-12" d="M81.63,358.97c.38,.26,.76,.51,1.14,.77-.38-.26-.76-.51-1.14-.77Z"/>
      <path class="cls-3" d="M73.9,192.21c-.15-.91-.3-1.81-.45-2.72,.15,.91,.3,1.81,.45,2.72Z"/>
      <path class="cls-28" d="M209.3,353.06c.26,.41,.52,.82,.78,1.24-.26-.41-.52-.82-.78-1.24Z"/>
      <path class="cls-12" d="M86.57,361.68c.27,.14,.53,.29,.8,.43-.27-.14-.53-.29-.8-.43Z"/>
      <path class="cls-28" d="M208.85,352.36c.17,.25,.35,.51,.52,.76-.17-.25-.35-.51-.52-.76Z"/>
      <polygon class="cls-26" points="471.8 90.85 471.89 90.97 471.75 90.89 471.8 90.85"/>
      <path class="cls-23" d="M347.55,377.15c0-17.48,.02-34.96,.03-52.44,4.48,.68,7.86-1.28,10.68-4.69,.45-.54,1.26-.75,1.89-1.14,4.54-2.83,9.07-5.69,13.61-8.51,3.9-2.43,7.83-4.83,11.74-7.24,0,15.3,.01,30.6,.02,45.9-2.49,1.02-4.99,2.04-7.9,3.24-.03-.02-.56-.48-1.05-.9-.31,.19-.56,.25-.65,.41-2.01,3.74-4.66,6.69-8.84,7.81-.2,.05-.45,.06-.6,.18-4.73,3.97-9.51,7.89-14.14,11.99-1.78,1.58-3.21,3.59-4.79,5.41Z"/>
      <path class="cls-7" d="M468.2,309.88c-.54,.7-1.09,1.39-1.63,2.09-.3-.23-.59-.47-.89-.7,.51-.73,1.03-1.45,1.54-2.18,.33,.26,.66,.53,.99,.79Z"/>
      <path class="cls-21" d="M404.77,203.5c-1.37-.16-2.91-.16-1.93-3.34,.93,1.55,1.45,2.43,1.97,3.3,0,0-.05,.04-.05,.04Z"/>
      <path class="cls-21" d="M392.82,204.13c-.15,.01-.3,.03-.44,.02-.02,0-.03-.16-.04-.25,.15-.01,.3-.03,.44-.03,.02,0,.03,.16,.04,.25Z"/>
      <path class="cls-21" d="M405.33,200.38c-.09-.12-.18-.24-.27-.37,.07-.05,.19-.15,.21-.13,.1,.11,.19,.24,.28,.36-.07,.05-.14,.1-.22,.14Z"/>
      <path class="cls-2" d="M149.06,156.14l.4-1.87c.36,.46,.73,.91,1.09,1.37-.5,.17-1,.34-1.5,.5h0Z"/>
      <path class="cls-2" d="M92.97,187.87c-.17,.27-.27,.43-.37,.59-.19-.17-.42-.31-.54-.52-.04-.07,.23-.46,.27-.45,.23,.08,.43,.24,.65,.38Z"/>
      <path class="cls-2" d="M152.33,157.87c.01,.15,.03,.31,.02,.46,0,.02-.16,.03-.24,.04-.01-.15-.03-.31-.02-.46,0-.02,.16-.03,.24-.04Z"/>
      <path class="cls-2" d="M149.06,156.14c-.21,.28-.42,.57-.63,.85-.07-.07-.13-.13-.2-.2l.83-.65s0,0,0,0Z"/>
      <path class="cls-6" d="M127.37,242.1c-1.2-14.22-2.4-28.45-3.6-42.67-.66-8.26-1.32-16.52-2.07-25.86,9.88,8.64,19.01,16.62,28.13,24.6,1.19,.89,2.39,1.79,3.58,2.68,0,0,0,0,0,0,2.44,2.62,4.88,5.24,7.52,8.08-6.37,7.5-12.88,15.18-19.4,22.84-4.19,4.93-8.4,9.85-12.64,14.74-.3,.34-.89,.42-1.35,.61-.06-1.68-.12-3.35-.17-5.03Z"/>
      <path class="cls-29" d="M225.44,371.36c-.01-4.36-.18-8.72,.03-13.07,.1-2.12-.59-2.73-2.45-2.69-2.85,.06-5.71,.14-8.55-.05-1.26-.09-2.48-.82-3.72-1.26-.22-1.31-.43-2.62-.65-3.93h0c.36-.81,.72-1.62,1.08-2.43,.51,.45,.98,1,1.56,1.31,.62,.33,1.65,.82,1.99,.55,3.46-2.74,6.67-5.83,10.24-8.4,3.81-2.74,7.86-5.16,11.94-7.45,7.55-4.24,15.46-7.82,21.2-14.9,1.19-1.47,3.59-2.65,5.46-2.67,14.59-.19,29.19-.08,43.79-.05-.92,4.02-4.6,4.63-7.42,5.63-5.86,2.07-11.53,4.07-15.12,9.78-.54,.87-1.48,1.8-2.4,2.03-5.68,1.43-8.76,6.81-13.69,9.38-3.55,1.85-6.86,4.21-10.21,6.46-1.75,1.17-3.21,2.83-5.01,3.88-6.35,3.7-11.52,9.39-18.66,11.81-1.02,.34-1.74,1.76-2.49,2.76-1.77,2.35-3.38,4.97-6.93,3.31Zm-8.6-21.67c.11,.1,.23,.2,.34,.3,.05-.07,.15-.19,.14-.21-.1-.11-.22-.21-.33-.31-.05,.07-.1,.14-.15,.21Z"/>
      <path class="cls-29" d="M210.1,350.37c-.21,.28-.42,.57-.63,.85-.07-.07-.13-.13-.2-.2,.28-.22,.55-.43,.83-.65h0Z"/>
      <path class="cls-14" d="M153.41,200.85c-1.19-.89-2.39-1.79-3.58-2.68,1.15-.08,2.29-.16,3.43-.25,.05,.98,.1,1.95,.15,2.93Z"/>
      <path class="cls-11" d="M365.97,192.27c-.76,.58-1.5,1.18-2.29,1.7-.05,.03-.49-.56-.74-.86,.74-.65,1.48-1.29,2.23-1.94,.27,.37,.54,.73,.81,1.1Z"/>
      <path class="cls-11" d="M365.17,187.54c.4,.05,.92-.03,1.19,.19,.48,.39,.86,.95,1.17,1.5,.05,.09-.65,.82-.74,.77-.54-.31-1.08-.71-1.46-1.2-.22-.28-.14-.81-.19-1.23,0,0,.03-.03,.03-.03Z"/>
      <path class="cls-11" d="M376.6,185.29c.48,.03,.96,.05,1.44,.08,0,.18,.02,.36,.03,.54l-1.42,.22-.04-.83Z"/>
      <path class="cls-26" d="M228.8,232.94c-.05,.07-.1,.14-.15,.21-.11-.1-.23-.19-.33-.31-.01-.01,.09-.13,.14-.21,.11,.1,.23,.2,.34,.3Z"/>
      <path class="cls-23" d="M225.42,463.84c0-11.58,0-23.15,0-34.73,.19-.09,.5-.14,.56-.28,2.69-7.47,10.32-9.62,15.13-14.82,2.9-3.13,7.33-4.5,9.49-8.74,.7-1.37,2.64-2.08,4.04-3.05,2.35-1.63,4.72-3.22,7.25-4.94,.43,1.79,1.48,4.2,1.52,6.63,.18,9.05,.02,18.1,0,27.15-4.68,3.59-9.36,7.17-14.02,10.77-.24,.19-.35,.56-.58,.76-5.59,4.87-11.21,9.71-16.77,14.6-1.48,1.31-2.82,2.79-4.21,4.2-.8,.81-1.6,1.63-2.39,2.44Z"/>
      <path class="cls-13" d="M385.49,303.12c-3.91,2.41-7.84,4.81-11.74,7.24-4.54,2.83-9.07,5.68-13.61,8.51-.63,.39-1.45,.6-1.89,1.14-2.82,3.41-6.19,5.37-10.68,4.69-.04-9.27-.37-18.55,.08-27.8,.1-2.11,2.49-4.7,4.49-6,5.54-3.63,11.41-6.75,17.2-9.97,2.96-1.65,6.05-3.05,9.05-4.62,2.23-1.17,4.43-2.42,7.11-3.9v30.7Z"/>
      <path class="cls-26" d="M175.77,245.38c.36,.37,.72,.75,1.08,1.12-.36-.37-.72-.75-1.08-1.12Z"/>
      <path class="cls-12" d="M101.01,345.87c.02-.5,.05-.99,.07-1.49,.17,0,.35-.02,.52-.03,.07,.49,.14,.98,.21,1.46-.27,.02-.53,.03-.8,.05Z"/>
      <path class="cls-27" d="M75.68,348.37c.05-.07,.1-.14,.15-.21,.11,.1,.23,.19,.33,.31,.01,.01-.09,.13-.14,.21-.11-.1-.23-.2-.34-.3Z"/>
      <path class="cls-11" d="M150.33,303.12c-.41-.57-.82-1.13-1.23-1.7,.28-.14,.55-.27,.83-.41,.13,.7,.27,1.41,.4,2.11h0Z"/>
      <path class="cls-4" d="M160.11,324.87c-.15,.01-.3,.03-.44,.02-.02,0-.03-.16-.04-.25,.15-.01,.3-.03,.44-.03,.02,0,.03,.16,.04,.25Z"/>
      <path class="cls-4" d="M216.84,349.69c.05-.07,.1-.14,.15-.21,.11,.1,.23,.19,.33,.31,.01,.01-.09,.13-.14,.21-.11-.1-.23-.2-.34-.3Z"/>
    </g>
  </g>
</svg>