<?xml version="1.0" encoding="UTF-8"?>
<svg id="Layer_2" data-name="Layer 2" xmlns="http://www.w3.org/2000/svg" viewBox="0 0 236.53 281.19">
  <defs>
    <style>
      .cls-1 {
        fill: #f3d944;
      }

      .cls-2 {
        fill: #100d0e;
      }

      .cls-3 {
        fill: #ca5c4d;
      }

      .cls-4 {
        fill: #150e0d;
      }

      .cls-5 {
        fill: #d45f4a;
      }

      .cls-6 {
        fill: #1c1006;
      }

      .cls-7 {
        fill: #9a7d5a;
      }

      .cls-8 {
        fill: #230f08;
      }

      .cls-9 {
        fill: #b36952;
      }

      .cls-10 {
        fill: #ebb94d;
      }

      .cls-11 {
        fill: #f1eff0;
      }

      .cls-12 {
        fill: #d3714d;
      }

      .cls-13 {
        fill: #eaca51;
      }

      .cls-14 {
        fill: #5a150a;
      }

      .cls-15 {
        fill: #1f1708;
      }

      .cls-16 {
        fill: #2a2526;
      }

      .cls-17 {
        fill: #eaaf4b;
      }

      .cls-18 {
        fill: #edd853;
      }

      .cls-19 {
        fill: #de8f4e;
      }

      .cls-20 {
        fill: #1e0c0b;
      }

      .cls-21 {
        fill: #d1a559;
      }

      .cls-22 {
        fill: #310c0c;
      }

      .cls-23 {
        fill: #dcb75a;
      }

      .cls-24 {
        fill: #de854d;
      }

      .cls-25 {
        fill: #140f0c;
      }

      .cls-26 {
        fill: #e9c252;
      }

      .cls-27 {
        fill: #2b1c0d;
      }

      .cls-28 {
        fill: #130e0e;
      }

      .cls-29 {
        fill: #cf5c4c;
      }

      .cls-30 {
        fill: #e4a14f;
      }
    </style>
  </defs>
  <g id="Layer_1-2" data-name="Layer 1">
    <g>
      <path class="cls-11" d="M236.53,281.19H0V0H236.53V281.19Zm-10-4.04h2.08c.65-.02,1.3-.04,1.95-.06,.91-.89,2.54-1.73,2.62-2.69,.27-3.28,0-6.6-.08-9.9,.02-1.34,.03-2.68,.05-4.02,0-1.31,0-2.62,0-3.93,0-4.02,0-8.04,0-12.07v-5.94c0-19.02,0-38.04,.01-57.06,0-.32,0-.64,0-.96,0-15.68-.01-31.36-.02-47.03,0-.32,0-.64,0-.97,.06-5.48,.18-10.95,.18-16.43-.04-36.87-.1-73.74-.15-110.61-.22-.49-.44-.97-.66-1.46-4.64-.04-9.28-.08-13.93-.13-24.32-.01-48.64-.03-72.96-.04-2.36,0-4.73,0-7.09,0-.65,.01-1.3,.03-1.95,.04-.35,0-.7,0-1.05,0-.3-.21-.6-.22-.92-.04-1.36,0-2.72,0-4.08,0-3.98,.02-7.97,.03-11.95,.05h-10.01c-2.32-.02-4.64-.03-6.95-.05h-7c-4.03,0-8.06,0-12.09,0-1.64,0-3.27,0-4.91,0-1.36,0-2.73,0-4.09,0h-2.91c-7.36,0-14.72,0-22.09,0-2.32,.02-4.63,.03-6.95,.05-12.32,0-24.63,.01-36.95,.02-.24,.85-.48,1.7-.71,2.56,0,.66,0,1.32-.01,1.98,0,1.36-.01,2.71-.02,4.07,0,1.98,0,3.96,0,5.94,0,.69,.01,1.38,.02,2.08,.01,33.98,.02,67.97,.03,101.95-.02,.67-.03,1.34-.05,2,0,1.33,0,2.65,.01,3.98,0,.67,0,1.35,0,2.02,0,.33,0,.66-.01,.99,0,3.34,.02,6.67,.03,10.01,0,.33,0,.66,0,.99-.01,1.34-.02,2.68-.03,4.01v1.98c-.04,42.32-.09,84.63-.1,126.95,0,.59,.38,1.19,.56,1.71H50.62c1.99-.01,3.97-.03,5.96-.04,1,.02,2,.03,3,.05h1.98c3.68-.02,7.35-.03,11.03-.05,5.67,0,11.33,0,17,0,2.98,.02,5.97,.03,8.95,.05,2.03,0,4.06,0,6.09,0,23.32-.02,46.64-.03,69.95-.05h50c.66,.02,1.31,.03,1.97,.05Z"/>
      <path class="cls-28" d="M233.16,181.49c0,19.02-.01,38.04-.02,57.06,0,1.98,0,3.96,0,5.94,0,4.02,0,8.04,0,12.07,0,1.31,0,2.62,0,3.93-.02,1.34-.03,2.68-.05,4.02-.84,1.1-2.28,2.13-2.42,3.31-.35,3.06-.12,6.18-.12,9.28-.65,.02-1.3,.04-1.95,.06-.69-1.2-1.37-2.4-2.06-3.6,0-7.73,.14-15.46-.08-23.18-.05-1.73-1.34-3.42-2.3-5.71,1.34-7.05,3.8-15.09,4.15-23.22,.4-9.26-.99-18.61-1.91-27.89-.1-1.06-2.18-1.92-3.35-2.87-1.54-.53-3.07-1.06-4.82-1.67,4.4-3.64,6.47-8.11,6.46-13.64,0-12.48,.19-24.96,.15-37.44-.02-4.54-6.19-10.82-10.63-11.49-3.28-.5-6.51-1.3-9.77-1.95-6.97-1.39-12.98-4.15-16.22-11.05-.25-.53-1.29-.69-2.07-1.08-.43,5.43,2.98,16.06,6.41,20.36,0,.59,0,1.19,0,1.78-1.36,.69-2.73,1.37-4.09,2.06-1.24-2.03-2.49-4.05-3.73-6.08-.99-8.02-2.38-16.01-2.86-24.05-.35-5.92,.48-11.91,.78-17.88,.17-1.72,.35-3.43,.52-5.15,.02-1.27,.04-2.54,.06-3.8,.03-1.05,.06-2.11,.09-3.16,.1-3.87,.2-7.74,.3-11.62,.23-1.42,.45-2.84,.68-4.25,.42-10.68,.85-21.36,1.27-32.05,1.32-3.04,3.79-3.6,6.54-2.57,3.38,1.26,6.62,2.9,9.91,4.37,0,0,.33,.21,.33,.21,3.47,3.98,6.95,7.97,10.42,11.95,1.28,2.67,2.56,5.35,3.83,8.02,1.01,3.66,2.02,7.32,3.03,10.99,.62,5.3,1.13,10.61,1.96,15.88,.12,.78,1.76,1.33,2.69,1.98,.46-.3,.91-.6,1.37-.9,.29-1.75,.84-3.5,.85-5.25,.06-20.9,.04-41.8,.03-62.7-1.08-1.02-2.17-2.91-3.25-2.91-5.58,.03-11.16,.55-16.74,.9,2.43-.67,4.91-1.19,7.27-2.05,1.67-.61,3.16-1.68,4.73-2.55,4.64,.04,9.28,.08,13.93,.13,.22,.49,.44,.97,.66,1.46,.05,36.87,.12,73.74,.15,110.61,0,5.48-.11,10.95-.18,16.43-.11,.09-.33,.21-.31,.26,.06,.24,.2,.47,.31,.7,0,15.68,.01,31.36,.02,47.03-.11,.09-.32,.21-.31,.27,.07,.24,.2,.47,.31,.7Z"/>
      <path class="cls-2" d="M3.89,146.51c.01-1.34,.02-2.68,.03-4.01,.11-.09,.32-.22,.3-.28-.06-.25-.2-.48-.31-.71,0-3.34-.02-6.67-.03-10.01,.11-.09,.32-.21,.31-.28-.06-.25-.19-.48-.29-.71,0-.67,0-1.35,0-2.02,.27-.98,.53-1.96,.8-2.94,1.66-.33,3.32-.66,5.18-1.03-.65,2.77-.96,4.99-1.69,7.06-1.81,5.12-1.1,6.3,4.5,6.9,.67,.59,1.34,1.18,2.02,1.78,.62,.75,1.25,1.5,1.87,2.25,0,0,.01,.02,.01,.02-.09,1.12-.53,2.36-.2,3.35,.44,1.31,1.47,2.43,2.24,3.63-.03,1.41-.31,2.87-.03,4.21,.48,2.28,2,4.52,1.86,6.7-.4,6.3-1.41,12.57-2.22,18.85-.02,.17-.49,.29-1.19,.66-.33-2.7-.65-5.25-.96-7.8-1.51,3.2-2.56,5.95-6.42,2.98-.35,.48-.7,.96-1.06,1.43-1.2,1-2.39,2-3.42,2.85,1.86,2.34,3.48,4.56,5.31,6.6,1.19,1.32,2.7,2.37,4.07,3.54,.63,1.28,.95,2.94,1.96,3.76,3.43,2.79,4.23,6.22,4.15,10.49-.24,12.93-.09,25.87-.09,38.81,0,9.34,.26,18.75-9.09,24.72-1.08,.69-1.61,2.26-3.16,4.57,3.87-.49,6.55-.84,9.22-1.18,.34,.01,.67,.03,1.01,.04,.34,.92,.68,1.85,1.01,2.77,.59,.87,1.19,1.73,2.38,3.48,1.1-2.28,1.86-3.86,2.62-5.44,1.33,0,2.66,0,4,0,.1,1.42,.2,2.84,.22,3.09,4.61,.32,8.67,.6,12.74,.87,0,.55,0,1.11,0,1.66H4.34c-.18-.52-.56-1.12-.56-1.71,.02-42.32,.06-84.63,.1-126.95,0-.66,0-1.32,0-1.98Z"/>
      <path class="cls-28" d="M174.57,277.1c-23.32,.02-46.64,.03-69.95,.05h-6.09c-2.98-.02-5.97-.03-8.95-.05,.59-3.86-1.3-4.78-4.86-4.69-3.37,.09-6.76-.59-10.15-.92,.65-.26,1.29-.52,1.94-.77,6.02-.06,12.05-.12,18.07-.19,.31,.17,.61,.35,.92,.52-.24-1.15-.47-2.31-.71-3.46,.28-1.68,.56-3.36,.84-5.05,.59-.25,1.18-.49,1.76-.74,.56,1.33,1.11,2.66,1.67,3.99,.42-.14,.84-.29,1.27-.43v-12.86c5.61-10.66,11.22-21.32,17.29-32.85,3.61,5.42,6.44,9.67,9.27,13.92,.23,.29,.46,.59,.69,.88l.04,.04c-.01,.36,.13,.65,.43,.86,1.87,3.34,3.74,6.67,5.6,10.01l2.85,7.2-.03,.02c0,3.29-.01,6.58-.02,9.87-1.63,2.48-3.26,4.95-5.42,8.24h9.53c.87,.59,1.73,1.68,2.62,1.7,4.82,.11,9.64-.07,14.46-.1,1.26,0,2.98-.34,3.72,.33,3.6,3.23,5.53,1.32,7.24-1.93,.65,0,1.31-.01,1.96-.02,.02,.59,.03,1.18,.05,1.78,1.32,1.55,2.65,3.1,3.97,4.66Z"/>
      <path class="cls-2" d="M3.94,122.5c-.01-33.98-.02-67.97-.03-101.95,1.54-.04,3.08-.07,4.62-.11,1.94-.31,3.89-.62,5.83-.94,.11,4.6,.21,9.21,.32,13.81-.11,29.42-.23,58.84-.34,89.19H3.94Z"/>
      <path class="cls-25" d="M41.58,3.91c2.32-.02,4.63-.03,6.95-.05,.22,1.06,.44,2.12,.66,3.18,.25-.43,.5-.85,.76-1.28,3.21,.87,6.43,1.75,9.64,2.62-1.68,.91-3.36,1.82-4.28,2.33,.6,2.91,1.99,5.82,1.53,8.39-.71,3.98-2.7,7.73-4.15,11.58-.26-1.24-.51-2.49-.77-3.73-2.83,2.5-2.99,3.99,.8,3.7-.71,2.31-1.43,4.62-2.14,6.93-.34,.98-.68,1.96-1.03,2.93-.34,1.65-.67,3.3-1.01,4.95-.59,1.7-1.17,3.39-1.76,5.09-.69,1.79-1.38,3.58-2.07,5.37-1.5-6.25-3-12.5-4.5-18.74-.52,.05-1.03,.11-1.55,.16,0,1.68-.23,3.41,.05,5.04,.45,2.56,1.81,5.06,1.77,7.57-.06,3.5,.69,6.38,3.17,8.81-.36,1.26-.72,2.52-1.08,3.78-.31-.51-.61-1.01-.92-1.52-.2,.18-.4,.35-.6,.53,.51,.33,1.01,.66,1.52,.99-.42,1.48-.83,2.95-1.53,5.41-1.9-5.5-3.45-9.97-5.01-14.45,.73-1.4,2.1-2.82,2.04-4.18-.11-2.41-.47-5.28-1.88-7.02-1.45-1.79-.39-7.46-5.67-4.69-1.32-5.64-2.71-11.28-3.87-16.95-.14-.67,.97-1.6,1.51-2.41,.49,.56,.97,1.11,1.46,1.66,.17-.21,.34-.42,.51-.64-.62-.38-1.23-.77-1.85-1.15-.8-2.65-.5-3.09,3.18-4.68-.35,5.72,4.12,1.92,6.08,3.08,3.41,1.7,6.83,3.39,10.51,5.22v-5.72c-3.77,.18-7.13,.33-10.49,.49,.59-.66,1.09-1.42,1.78-1.94,.92-.69,1.98-1.19,2.99-1.78-.96-.85-1.87-1.78-2.9-2.54-.88-.65-1.91-1.12-2.87-1.67,1.65-.61,3.29-1.23,5.33-1.99-.02-.16-.18-1.42-.34-2.67Zm1.35,35.85c.37,.02,.74,.03,1.11,.05v-2.57l-.83-.05c-.09,.86-.19,1.72-.28,2.58Z"/>
      <path class="cls-2" d="M218.58,3.91c-1.57,.87-3.07,1.94-4.73,2.55-2.36,.86-4.84,1.38-7.27,2.05-16.33,0-32.65,.09-48.98-.11-2.16-.03-4.31-1.51-7.18-2.59-.66,.46-2.3,1.6-3.93,2.74-.95,.67-1.9,1.34-2.85,2.02-1.65-1.09-3.22-4.04-5.06-.2-.67,0-1.34-.02-2.01-.02,0-2.14,0-4.29,0-6.43,.65-.01,1.3-.03,1.95-.04,1.84,3.53,3.37,3.53,7.09,0,24.32,.01,48.64,.03,72.96,.04Z"/>
      <path class="cls-25" d="M136.58,3.9c0,2.14,0,4.29,0,6.43-4.67,.1-9.34,.21-14.01,.31-2,0-4,0-6,0-1.33,0-2.67,0-4,0-15.69-.06-31.37-.06-47.06-.26-1.71-.02-3.41-1.2-5.11-1.85,4.13,0,8.53,.62,10.22-4.69h2.91c.92,1.93,.6,5.25,4.54,4.11-.17-1.51-.31-2.81-.45-4.11,1.64,0,3.27,0,4.91,0,2.27,3.8,9.83,3.8,12.09,0h1.91c1.7,2.52,3.39,2.53,5.09,0,2.32,.02,4.64,.03,6.95,.05-.42,1.33-.83,2.66-1.44,4.6,2.56,0,4.84-.18,7.09,.04,3.63,.36,4.76-1.35,4.36-4.64,3.98-.02,7.97-.03,11.95-.05,.99,3.93,2.55,3.22,4.36,.54,.26-.11,.47-.27,.65-.5,.35,0,.7,0,1.05,0Z"/>
      <path class="cls-2" d="M174.57,277.1c-1.32-1.55-2.65-3.1-3.97-4.66,2.63,.34,5.27,.67,7.9,1,8.87,.3,17.74,.62,26.62,.81,.47,0,.96-1.15,1.45-1.76,6-.01,11.99-.03,17.99-.04,.01,.67,.02,1.34,.04,2.02l-.03,2.62h-50Z"/>
      <path class="cls-2" d="M41.58,3.91c.16,1.26,.32,2.51,.34,2.67-2.04,.76-3.69,1.37-5.33,1.99-2.14,.13-5.37-3.4-6.01,1.79-1.34,0-2.68,0-4.02,0-.98-2.35-1.97-2.38-2.96,0H15.56c-3.54-2.77-7.58-2.44-11.66-1.89,0-.66,0-1.32,.01-1.98,.24-.85,.48-1.7,.71-2.56,12.32,0,24.63-.01,36.95-.02Z"/>
      <path class="cls-15" d="M3.94,122.5H14.33c.12-30.35,.23-59.77,.34-89.19,.22,1.97,.63,3.94,.65,5.91,.22,20.97,.5,41.95,.49,62.92,0,8.28-.68,16.56-1.05,24.85v.03c-.49,1.11-.96,2.21-1.44,3.32-.25,.37-.5,.74-.75,1.1-4.2,2.4-3.31,4.73,.1,7.02-5.6-.6-6.31-1.79-4.5-6.9,.73-2.07,1.05-4.29,1.69-7.06-1.86,.37-3.52,.7-5.18,1.03-.27-.35-.54-.69-.81-1.04,.02-.67,.03-1.34,.05-2Z"/>
      <path class="cls-2" d="M74.57,271.49c3.38,.34,6.77,1.01,10.15,.92,3.56-.09,5.45,.83,4.86,4.69h-17c0-1.87,0-3.74,0-5.61,.67,0,1.33,0,2,0Z"/>
      <path class="cls-16" d="M70.62,3.86c-1.69,5.31-6.1,4.69-10.22,4.69-.29,.03-.56-.03-.81-.17-3.21-.87-6.43-1.75-9.64-2.62-.25,.43-.5,.85-.76,1.28-.22-1.06-.44-2.12-.66-3.18,7.36,0,14.72,0,22.09,0Z"/>
      <path class="cls-28" d="M72.58,271.49c0,1.87,0,3.74,0,5.61-3.68,.02-7.35,.03-11.03,.05h-1.98c-1-.02-2-.03-3-.05,0-.87,0-1.73,0-2.6,2.67-.67,5.33-1.33,8-2,1.01-.35,2.02-.69,3.03-1.04,1.66,0,3.31,.01,4.97,.02Z"/>
      <path class="cls-15" d="M14.36,19.5c-1.94,.31-3.89,.62-5.83,.94,.01-.28,.01-.56,0-.85-.16-1.2-.32-2.4-.48-3.6l-1.55,2.54c-.87-.02-1.75-.04-2.62-.06,0-1.98,0-3.96,0-5.94,0,0,.42,.02,.42,.02l.42-.05c1.31-.69,2.61-1.39,3.92-2.08,.39,.09,.77,.17,1.16,.26,1.52,2.94,3.04,5.89,4.56,8.83Z"/>
      <path class="cls-2" d="M118.58,3.91c.41,3.29-.72,5-4.36,4.64-2.25-.23-4.53-.04-7.09-.04,.61-1.94,1.02-3.27,1.44-4.6h10.01Z"/>
      <path class="cls-2" d="M230.57,277.09c0-3.1-.22-6.22,.12-9.28,.13-1.18,1.57-2.21,2.42-3.31,.07,3.3,.34,6.63,.08,9.9-.08,.96-1.7,1.79-2.62,2.69Z"/>
      <path class="cls-16" d="M94.62,3.86c-2.26,3.8-9.82,3.8-12.09,0,4.03,0,8.06,0,12.09,0Z"/>
      <path class="cls-2" d="M56.58,274.51c0,.87,0,1.73,0,2.6-1.99,.01-3.97,.03-5.96,.04-1.34-.85-2.68-1.69-4.02-2.54,0-.7-.02-1.4-.03-2.1,2,0,4,0,6,0,1.33,.67,2.67,1.33,4,2h0Z"/>
      <path class="cls-16" d="M9.8,10.67c-.39-.09-.77-.17-1.16-.25-1.31,.7-2.61,1.39-3.92,2.08,0,0-.42,.05-.42,.05,0,0-.42-.02-.42-.02,0-1.36,.01-2.71,.02-4.07,4.08-.55,8.12-.87,11.66,1.9-1.92,.11-3.84,.21-5.76,.32Z"/>
      <path class="cls-16" d="M46.6,274.61c1.34,.85,2.68,1.69,4.02,2.54h-9.09c0-.55,0-1.11,0-1.66,1.69-.29,3.38-.59,5.07-.88Z"/>
      <path class="cls-16" d="M77.62,3.86c.14,1.3,.28,2.59,.45,4.11-3.93,1.14-3.62-2.18-4.54-4.11,1.36,0,2.73,0,4.09,0Z"/>
      <path class="cls-16" d="M145.62,3.86c-3.72,3.53-5.25,3.53-7.09,0,2.36,0,4.73,0,7.09,0Z"/>
      <path class="cls-16" d="M134.89,4.4c-1.81,2.67-3.37,3.39-4.36-.54,1.36,0,2.72,0,4.08,0,.09,.18,.19,.36,.27,.54Z"/>
      <path class="cls-16" d="M101.62,3.86c-1.7,2.53-3.39,2.52-5.09,0h5.09Z"/>
      <path class="cls-16" d="M8.53,19.6c0,.28,0,.56,0,.85-1.54,.03-3.08,.07-4.62,.11,0-.69-.01-1.38-.02-2.08,.87,.02,1.75,.04,2.62,.06,.68,.35,1.35,.71,2.02,1.06Z"/>
      <path class="cls-16" d="M226.56,273.55c.69,1.2,1.37,2.4,2.06,3.6h-2.08c-.29-.9-.59-1.81-.88-2.71,.3-.29,.6-.59,.91-.88Z"/>
      <path class="cls-28" d="M225.66,274.43c.29,.91,.59,1.81,.88,2.72-.66-.02-1.31-.03-1.97-.05,.01-.87,.02-1.75,.03-2.62,.35-.02,.7-.03,1.06-.05Z"/>
      <path class="cls-16" d="M233.15,244.48c0-1.98,0-3.96,0-5.94,0,1.98,0,3.96,0,5.94Z"/>
      <path class="cls-16" d="M3.89,124.5c.27,.35,.54,.69,.81,1.04-.26,.98-.53,1.96-.8,2.95,0-1.33,0-2.65-.01-3.98Z"/>
      <path class="cls-16" d="M233.16,260.48c0-1.31,0-2.62,0-3.93,0,1.31,0,2.62,0,3.93Z"/>
      <path class="cls-16" d="M4.63,3.93c-.24,.85-.48,1.7-.71,2.56,.24-.85,.48-1.7,.71-2.56Z"/>
      <path class="cls-16" d="M233.17,5.49c-.22-.49-.44-.97-.66-1.46,.22,.49,.44,.97,.66,1.46Z"/>
      <path class="cls-16" d="M3.89,146.51c0,.66,0,1.32,0,1.98,0-.66,0-1.32,0-1.98Z"/>
      <path class="cls-16" d="M233.16,181.49c-.11-.23-.25-.45-.31-.7-.02-.06,.2-.18,.31-.27,0,.32,0,.64,0,.96Z"/>
      <path class="cls-16" d="M3.9,130.51c.1,.24,.24,.47,.29,.71,.02,.06-.2,.18-.31,.28,0-.33,0-.66,.01-.99Z"/>
      <path class="cls-16" d="M233.13,133.49c-.11-.23-.24-.46-.31-.7-.01-.06,.2-.17,.31-.26,0,.32,0,.64,0,.97Z"/>
      <path class="cls-16" d="M3.92,141.51c.11,.24,.24,.46,.31,.71,.02,.06-.2,.18-.3,.28,0-.33,0-.66,0-.99Z"/>
      <path class="cls-2" d="M134.89,4.4c-.09-.18-.18-.36-.27-.54,.31-.18,.62-.16,.92,.04-.17,.22-.39,.39-.65,.5Z"/>
      <path class="cls-29" d="M192.57,132.72c-3.43-4.3-6.84-14.93-6.41-20.36,.79,.39,1.82,.55,2.07,1.08,3.25,6.9,9.26,9.66,16.22,11.05,3.26,.65,6.49,1.46,9.77,1.95,4.44,.67,10.61,6.96,10.63,11.49,.05,12.48-.15,24.96-.15,37.44,0,5.53-2.07,10-6.46,13.64,1.75,.61,3.29,1.14,4.82,1.66,.58,2.2,1.63,4.4,1.66,6.61,.16,11.78,.1,23.56,.04,35.35-.03,6.13-2.46,11.23-7.06,15.28-.42-2.55-1.66-4.06-4.39-2.9-3.78,1.61-6.08,6.36-4.74,9.44-3.74,.97-7.48,1.94-12.2,3.17,1.87-3.43,3.11-5.69,4.34-7.95,.28-1.26,.8-2.53,.8-3.79,.06-15.07,.05-30.14,0-45.21,0-1.08-.52-2.17-.8-3.25-.63-.36-1.26-.72-1.89-1.07,3.36-4.19,2.66-9.15,2.66-13.97,0-11.95-.26-23.9,.07-35.84,.12-4.37-.97-7.35-4.88-9.23-1.36-1.53-2.73-3.06-4.09-4.58Zm23.19,63.05c-6.78,.48-8.06,1.61-8.07,6.83-.04,12.79-.03,25.58,0,38.37,0,1.37,.25,2.75,.46,4.81,4.81-3.61,7.76-7.2,7.69-12.82-.13-9.96-.06-19.93-.07-29.9,0-2.42,0-4.84,0-7.3Zm-7.86-7.95c5.35-1,7.76-3.63,7.83-8.92,.09-7.32,.03-14.64,.03-21.96,0-4.59,0-9.18,0-13.97-3.05-.28-5.31-.49-7.86-.73v45.57Z"/>
      <path class="cls-20" d="M200.71,249.67c-1.23,2.26-2.47,4.52-4.34,7.95,4.71-1.23,8.46-2.2,12.2-3.17,3.05-2.18,6.09-4.36,9.14-6.54,4.61-4.05,7.03-9.15,7.06-15.28,.06-11.78,.12-23.57-.04-35.35-.03-2.21-1.08-4.4-1.66-6.61,1.16,.95,3.24,1.81,3.34,2.87,.92,9.28,2.31,18.63,1.91,27.89-.35,8.13-2.81,16.16-4.15,23.22,.96,2.29,2.25,3.98,2.3,5.71,.22,7.72,.08,15.45,.08,23.18-.3,.29-.6,.59-.91,.88-.35,.02-.7,.03-1.06,.05-.01-.67-.02-1.34-.04-2.02,0-.64,0-1.29,0-1.93,0-7.38,0-14.77,0-20.98-5.51,3.09-10.96,7.06-17.06,9.25-4.36,1.57-9.58,.86-14.41,.96-8.14,.18-15.46-2.63-22.46-6.48-.03-26.79-.04-53.58-.1-80.37,0-1.8-.31-3.6-.48-5.4,.56-1.64,1.13-3.28,1.69-4.92,.27,1.93,.77,3.87,.78,5.8,.06,25.28,.02,50.57,.1,75.85,0,2.02,.72,4.04,1.11,6.06,3.49,1.66,6.88,3.63,10.51,4.91,6.92,2.46,7.85,1.92,11.31-4.8,.34-1.72,.96-3.45,.97-5.18,.09-16.24,.07-32.49,.09-48.73,.74-.06,1.48-.11,2.22-.17,.63,.36,1.26,.72,1.89,1.07,0,17.42,0,34.84,0,52.25Z"/>
      <path class="cls-12" d="M182.67,88.55c-.3,5.96-1.13,11.95-.78,17.88,.48,8.05,1.86,16.04,2.86,24.05-1.07-1.6-2.14-3.2-3.42-5.12-.33,.05-1.35,.19-3.4,.48,.89-2.5,1.69-4.22,2.07-6.03,.19-.9-.4-1.97-.64-2.96-.91,.63-2.06,1.1-2.65,1.95-.49,.71-.32,1.88-.46,2.99-1.24-.18-2.26-.32-2.78-.4-1.01,4.78-2.5,9.2-2.7,13.67-.18,3.84,1.11,7.75,1.75,11.63-5.38-5.05-7.98-10.86-6.67-18.55,1.33-7.8,1.75-15.75,2.57-23.64l.35-1.64c1.85-2.56,4.71-4.9,5.34-7.73,1.12-5.1,4.64-5.79,8.55-6.58Z"/>
      <path class="cls-10" d="M202.05,30.32c-3.3-1.48-6.54-3.11-9.91-4.38-2.76-1.03-5.22-.46-6.54,2.57-.38,2.66-.75,5.32-1.13,7.97-7.48,.04-1.68,6.9-5.03,9.43-.58-.99-1.15-1.96-1.69-2.88-1.12,1.69-2.03,3.06-2.95,4.44l-.9-1.97c.37-2.03,.73-4.05,1.1-6.08l-.09-1.86c-.06-4.35-.12-8.7-.18-13.05,3.05,1,5.91,1.56,7.29-2.48,.17-.5,.94-1.04,1.49-1.11,6.3-.86,12.62-1.62,18.93-2.43,1.14-.15,2.27-.39,3.41-.58l-.1-1.41h-10.18c1.11-.67,2.25-1.3,3.33-2.01,1.91-1.25,3.78-2.55,5.67-3.83,6.65-.05,13.31-.1,19.96-.14,0,1.33,0,2.65,0,3.98-6.56,1.79-13.12,3.58-20.54,5.61,5.58,6.86-.5,5.92-3.18,7.19,.75,.93,1.27,1.56,1.78,2.19-.22,.25-.4,.53-.53,.83Z"/>
      <path class="cls-5" d="M172.52,146.68c-.64-3.88-1.93-7.79-1.75-11.63,.21-4.47,1.7-8.88,2.7-13.67,.51,.07,1.54,.22,2.78,.4,.14-1.1-.04-2.27,.46-2.99,.59-.85,1.74-1.32,2.65-1.95,.24,.99,.83,2.06,.64,2.96-.37,1.81-1.18,3.53-2.07,6.03,2.05-.29,3.07-.43,3.4-.48,1.28,1.92,2.35,3.52,3.42,5.12,1.24,2.03,2.49,4.05,3.73,6.08,2.01,2.03,4.02,4.06,6.03,6.09,.73,.62,1.47,1.25,2.2,1.87-3.41,1.98-6.81,3.96-10.22,5.94-2.21,.96-4.36,2.18-6.66,2.77-1.18,.3-2.65-.53-4-.84-1.11-1.9-2.21-3.81-3.32-5.71Z"/>
      <path class="cls-30" d="M212.8,42.48c-3.47-3.98-6.95-7.97-10.42-11.95,.73-.01,1.46-.02,2.19-.03,5.35,.35,10.75,1.31,14.35-4.48,1.35-2.17,3.72-3.7,5.62-5.52,0,4.67-.01,9.34-.02,14-3.91,2.66-7.82,5.32-11.73,7.98Z"/>
      <path class="cls-25" d="M224.53,10.52c-6.65,.05-13.31,.1-19.96,.14-6.67,0-13.33,0-20-.01-11.31-.06-22.61-.05-33.91-.26-1.4-.03-2.77-1.2-4.16-1.85,1.63-1.14,3.26-2.28,3.93-2.74,2.87,1.08,5.01,2.56,7.18,2.59,16.32,.2,32.65,.11,48.98,.11,5.58-.35,11.16-.87,16.74-.9,1.08,0,2.17,1.89,3.25,2.91-.33,0-.65,0-.98-.01-.36,0-.71,.02-1.07,.02Z"/>
      <path class="cls-24" d="M182.67,88.55c-3.91,.79-7.43,1.48-8.55,6.58-.62,2.83-3.48,5.17-5.34,7.73-.05-.39,.11-.63,.5-.71l.17-2.03c.43-5.21,.86-10.41,1.28-15.62,1.09,.18,2.17,.36,3.95,.66-1.73-7.08,3.33-8.14,7.88-9.67,.26,.32,.52,.63,.78,.95-.03,1.05-.06,2.11-.09,3.16-.02,1.27-.04,2.54-.06,3.81-.17,1.72-.35,3.43-.52,5.15Z"/>
      <path class="cls-19" d="M212.8,42.48c3.91-2.66,7.82-5.32,11.73-7.98-.01,5.33-.02,10.67-.03,16-2.62,0-5.24,0-7.87,0-1.28-2.67-2.56-5.35-3.83-8.02Z"/>
      <path class="cls-21" d="M183.34,76.43c-.26-.32-.52-.63-.78-.95,0-5.33,.14-10.67-.07-15.99-.05-1.36-1.2-2.68-1.85-4.02,.33-3.17-1.58-7.12,3.21-8.77,.48-.16,.6-1.79,.63-2.74,.07-2.49,0-4.98-.02-7.47,.38-2.66,.75-5.32,1.13-7.97-.42,10.68-.85,21.36-1.27,32.05-.23,1.42-.45,2.84-.68,4.25-.1,3.87-.2,7.74-.3,11.62Z"/>
      <path class="cls-24" d="M216.64,50.51c2.62,0,5.24,0,7.87,0,0,5.33,0,10.66,0,15.99-.64-.82-1.22-1.71-1.94-2.45-.9-.91-1.92-1.71-2.89-2.55-1.01-3.66-2.02-7.32-3.03-10.99Z"/>
      <path class="cls-16" d="M224.5,66.49c0-5.33,0-10.66,0-15.99,.01-5.33,.02-10.67,.03-16,0-4.67,.01-9.34,.02-14,0-2-.02-4-.02-6,0-1.33,0-2.65,0-3.98,.36,0,.71-.02,1.07-.02,.03,22.65,.07,45.31,.1,67.96-.46,.3-.91,.6-1.37,.9,.06-4.29,.12-8.57,.18-12.86Z"/>
      <path class="cls-6" d="M225.69,78.46c-.03-22.65-.07-45.31-.1-67.96,.33,0,.65,0,.98,.01,0,20.9,.02,41.8-.03,62.7,0,1.75-.55,3.5-.85,5.25Z"/>
      <path class="cls-12" d="M224.5,66.49c-.06,4.29-.12,8.57-.18,12.86-.94-.65-2.57-1.2-2.69-1.98-.83-5.26-1.34-10.58-1.96-15.88,.97,.84,1.99,1.64,2.89,2.55,.73,.74,1.3,1.63,1.94,2.45Z"/>
      <path class="cls-20" d="M196.71,144.52c-.73-.62-1.47-1.25-2.2-1.87-.65-2.72-1.3-5.43-1.94-8.15,0-.59,0-1.19,0-1.78,1.36,1.53,2.73,3.06,4.09,4.58,1.04,2.18,2.08,4.37,3.24,6.8-1.07,.14-2.13,.28-3.19,.42Z"/>
      <path class="cls-22" d="M192.57,134.5c.65,2.72,1.3,5.43,1.94,8.15-2.01-2.03-4.02-4.06-6.03-6.09,1.36-.69,2.73-1.37,4.09-2.06Z"/>
      <path class="cls-12" d="M183.19,83.4c.02-1.27,.04-2.54,.06-3.81-.02,1.27-.04,2.54-.06,3.81Z"/>
      <path class="cls-19" d="M183.65,64.82c.23-1.42,.45-2.84,.68-4.25-.23,1.42-.45,2.84-.68,4.25Z"/>
      <path class="cls-10" d="M204.57,30.5c-.73,.01-1.46,.02-2.19,.03,0,0-.33-.22-.33-.21,.14-.3,.32-.58,.53-.83,.66,.34,1.33,.67,1.99,1.01Z"/>
      <path class="cls-19" d="M18.56,270.72c-.34-.01-.67-.03-1.01-.04-1.15-.15-2.3-.3-3.8-.5,6.35-5.4,7.88-9.11,7.94-19.33,.12-18.07,.15-36.15,.23-54.22,.22,1.78,.62,3.56,.64,5.35,.1,9.49,.11,18.98,.15,28.47v19.42c.77,.12,1.53,.24,2.3,.36,1.19-4.19,2.21-8.44,3.66-12.54,.58-1.63,1.82-3.64,3.27-4.23,6.03-2.45,6.08-11.78,2.64-16.98,0-1,0-2,0-3,0-.33,0-.65,.01-.98,.67-1.31,1.34-2.61,1.99-3.92,.65-1.32,1.17-3.7,1.94-3.78,1.71-.17,3.58,.68,5.29,1.36,.74,.29,1.23,1.2,1.83,1.83,.3-.15,.61-.31,.91-.46-.42-1.43-.85-2.86-1.11-3.75,1.15-1.87,2.13-3.45,3.12-5.04,2.68,.6,5.36,1.2,8.04,1.8,.96,.73,2.69,1.4,2.75,2.2,.31,3.9,.18,7.84,.21,11.77-.51,2.01-1.02,4.02-1.55,6.15-1.42-.07-2.89-.15-4.36-.22-3.46-6.3-8.55-10.84-15.06-14.69-.13,1.45-.24,2.1-.23,2.76,.12,5.99,.26,11.97,.39,17.96-.05,5.66-.09,11.33-.14,16.99-.68,1.76-1.74,3.48-1.94,5.29-.33,2.95,.22,6.01-.23,8.92-.26,1.67-1.53,4.28-2.73,4.51-4.93,.97-5.36,4.22-5.14,8.14-1.34,.12-2.67,.24-4.01,.36-.99,0-1.98,0-2.96,0-1.01,0-2.02,.01-3.04,.02Zm12.34-10.92c.39,.02,.78,.03,1.17,.05v-2.66c-.29-.02-.58-.03-.87-.05-.1,.89-.2,1.77-.29,2.66Z"/>
      <path class="cls-13" d="M12.68,138.47c-3.42-2.29-4.3-4.62-.1-7.02,3.22,1.01,6.66,3.2,9.58,2.65,2.33-.44,4.03-4.24,5.92-6.45,.38,1.22,.85,2.72,1.32,4.22,.45-.08,.9-.15,1.35-.23,0-3.08,0-6.16,0-9.24,4.93,8.01,9.86,16.02,14.8,24.03-1.93-.08-4.11,.38-5.75-.35-5.48-2.44-10.76-5.34-16.14-7.99-.79-.39-1.75-.42-2.63-.62l-.23,.87c6.28,3.37,12.57,6.74,18.85,10.12-1.83,.01-3.68,.23-5.48,0-4.32-.55-6.13,1-5.65,5.51,.34,3.21,.07,6.49,.07,9.74-.39-.02-.78-.03-1.18-.05-.93-4.85-1.85-9.69-2.78-14.54-.55,.07-1.09,.14-1.64,.21-.13,1.08-.51,2.19-.36,3.24,.56,4.01,1.62,7.97,1.87,11.98,.33,5.29,.08,10.62,.07,15.94-1.09,1.29-2.18,2.57-3.27,3.86,.13-8.78,.44-17.55,.3-26.32-.05-2.85-1.25-5.69-1.93-8.53-1.03-2.33-2.06-4.66-3.09-6.99,0,0-.01-.02-.01-.02-.62-.75-1.25-1.5-1.87-2.25-.67-.59-1.34-1.18-2.02-1.78Z"/>
      <path class="cls-8" d="M21.92,196.64c-.07,18.07-.11,36.15-.23,54.22-.07,10.22-1.59,13.92-7.94,19.33,1.5,.19,2.65,.34,3.8,.5-2.68,.34-5.35,.68-9.22,1.18,1.56-2.31,2.08-3.88,3.16-4.57,9.35-5.97,9.09-15.37,9.09-24.72,0-12.94-.15-25.87,.09-38.81,.08-4.27-.72-7.71-4.15-10.49-1.01-.82-1.32-2.48-1.96-3.76,.34,0,.68-.02,1.01-.02,.97,1.1,1.94,2.2,2.92,3.31,.67,.58,1.35,1.16,2.02,1.74,.47,.7,.94,1.4,1.41,2.1Z"/>
      <path class="cls-6" d="M19.67,149.5c.68,2.84,1.88,5.68,1.93,8.53,.14,8.77-.17,17.55-.3,26.32-3.86-1.88-7.71-3.77-11.57-5.65-.38-.72-.75-1.45-1.13-2.17,.35-.48,.7-.96,1.06-1.43,3.86,2.97,4.91,.23,6.42-2.98,.31,2.55,.63,5.1,.96,7.8,.69-.38,1.16-.49,1.19-.66,.81-6.28,1.81-12.54,2.22-18.85,.14-2.18-1.38-4.43-1.86-6.7-.28-1.34,0-2.8,.03-4.21,.35,0,.7,0,1.05,.01Z"/>
      <path class="cls-25" d="M46.6,274.61c-1.69,.29-3.38,.59-5.07,.88-4.06-.28-8.13-.56-12.74-.87-.02-.25-.12-1.67-.22-3.09,.67-.27,1.34-.54,2.01-.81,3.66,0,7.32,0,10.97,0,1.67,.6,3.34,1.2,5.02,1.8,0,.7,.02,1.4,.03,2.1Z"/>
      <path class="cls-15" d="M8.6,176.53c.38,.72,.75,1.45,1.13,2.17,1.95,3.6,3.89,7.19,5.84,10.79-.34,0-.68,.02-1.01,.02-1.37-1.17-2.87-2.21-4.07-3.54-1.83-2.03-3.45-4.26-5.31-6.6,1.03-.86,2.22-1.85,3.42-2.85Z"/>
      <path class="cls-25" d="M21.6,270.7c.99,0,1.98,0,2.96,0,0,.27,.01,.54,.02,.82-.76,1.58-1.52,3.16-2.62,5.44-1.2-1.75-1.79-2.61-2.38-3.48,.67-.93,1.35-1.86,2.02-2.79Z"/>
      <path class="cls-15" d="M19.67,149.5c-.35,0-.7,0-1.05-.01-.77-1.2-1.8-2.32-2.24-3.63-.33-.98,.1-2.22,.2-3.35,1.03,2.33,2.06,4.66,3.09,6.99Z"/>
      <path class="cls-8" d="M21.6,270.7c-.67,.93-1.35,1.86-2.02,2.79-.34-.92-.68-1.85-1.01-2.77,1.01,0,2.02-.01,3.04-.02Z"/>
      <path class="cls-8" d="M24.58,271.53c0-.27-.01-.54-.02-.82,1.34-.12,2.67-.24,4.01-.36,.67,.12,1.35,.24,2.02,.36-.67,.27-1.34,.54-2.01,.81-1.33,0-2.66,0-4,0Z"/>
      <path class="cls-15" d="M14.69,140.25c.62,.75,1.25,1.5,1.87,2.25-.62-.75-1.25-1.5-1.87-2.25Z"/>
      <path class="cls-5" d="M97.4,261.8c-.59,.25-1.18,.49-1.76,.74-.35,0-.7-.02-1.05-.03h0c-2.05-7.81-7.93,.03-11.2-2.57,.44-1.87,.84-3.57,1.24-5.27,0,0,.08-.13,.08-.13,.6-.75,1.2-1.49,1.8-2.24,4.69-8.6,9.38-17.2,14.07-25.8,0,0,0,0,0,0,.72-1.31,1.44-2.62,2.16-3.92,1.88-2.91,3.5-6.04,5.72-8.66,2.73-3.24,1.85-5.82-1.01-7.86-1.74-1.24-4.12-1.6-6.17-2.34v-15.45c2.52,1.71,4.41,2.99,6.3,4.27,2.28,1.68,4.56,3.35,6.84,5.03,1.91,.63,4.37,2.32,5.63,1.67,3.16-1.62,5.78-4.3,8.61-6.56,2.03-1.29,4.06-2.58,6.76-4.3v16.84c-2.86-2.25-5.01-1.22-7.14,1.27-2.08,2.43-2.67,4.38-.35,7.24,2.66,3.28,4.59,7.14,6.85,10.75,.3,.94,.6,1.88,.9,2.82,.61,1.06,1.21,2.13,1.82,3.19,.36,.7,.72,1.39,1.08,2.09,.31,.65,.62,1.29,.93,1.94l.06,.09c.22,.28,.44,.55,.65,.83,1.17,2.27,2.34,4.55,3.5,6.82-.13,.88-.27,1.76-.4,2.64,.51-.25,1.01-.5,1.52-.75,3.91,5.23,7.83,10.46,11.74,15.69,1.07,.89,2.14,1.77,3.21,2.66,2.69,1.57,5.47,3.01,8.03,4.78,1.15,.8,1.85,2.25,2.75,3.41-.65,0-1.31,.01-1.96,.02-9.35,0-18.69,0-28.04,0h-9.53c2.16-3.28,3.79-5.76,5.42-8.24,3.03-2.67,3.04-7.2,.02-9.87,0,0,.03-.02,.03-.02-.07-2.75,1.05-5.97-2.85-7.2-1.87-3.34-3.74-6.67-5.6-10.01-.14-.29-.28-.57-.43-.86,0,0-.04-.04-.04-.04-.23-.29-.46-.59-.69-.88-2.83-4.25-5.66-8.5-9.27-13.92-6.07,11.54-11.68,22.2-17.29,32.85-.98,3.1-1.96,6.2-2.93,9.3Zm38.81-26.91c-.5-.02-.99-.05-1.49-.07-.33,1.4-1.32,3.14-.81,4.12,.48,.94,2.5,1.08,5.19,2.06-1.41-2.99-2.15-4.55-2.89-6.11Zm6.78,18.96c.4-.02,.8-.05,1.19-.07v-6.55c-.4,.02-.8,.05-1.19,.07v6.56Z"/>
      <path class="cls-29" d="M94.58,262.51c.35,0,.7,.02,1.05,.03-.28,1.68-.56,3.36-.84,5.05-.07,.98-.14,1.96-.21,2.95-6.02,.06-12.05,.12-18.07,.19-2.98-.02-5.97-.04-8.95-.05q-2.66-1.6,1.3-4.01c6.87-1.87,11.27-6.98,15.75-11.98-.4,1.7-.8,3.4-1.24,5.27,3.27,2.6,9.15-5.23,11.2,2.56-5.08,0-10.15,0-15.23,0,.03,.67,.05,1.33,.08,2,4.07,0,8.15,.13,12.21-.09,1.02-.06,1.97-1.23,2.95-1.9Z"/>
      <path class="cls-22" d="M170.56,270.67c-.9-1.16-1.6-2.61-2.75-3.41-2.55-1.77-5.34-3.2-8.03-4.78-.06-.67-.12-1.34-.17-2.01l-.06,.08c1.29,.12,2.69-.05,3.85,.4,6.42,2.44,12.78,5.03,19.17,7.56-4.02-.55-4.2,2.05-4.05,4.93-2.64-.33-5.27-.67-7.9-1-.02-.59-.03-1.18-.05-1.78Z"/>
      <path class="cls-22" d="M140.56,270.69c9.35,0,18.69,0,28.04,0-1.71,3.25-3.65,5.16-7.24,1.93-.74-.67-2.45-.33-3.72-.33-4.82,.03-9.64,.2-14.46,.1-.88-.02-1.75-1.11-2.62-1.7Z"/>
      <path class="cls-29" d="M97.4,261.8c.98-3.1,1.96-6.2,2.93-9.3,0,4.29,0,8.57,0,12.86-.42,.14-.84,.29-1.27,.43-.56-1.33-1.11-2.66-1.67-3.99Z"/>
      <path class="cls-29" d="M136.47,252.59c3.02,2.66,3.02,7.2-.02,9.87,0-3.29,.01-6.58,.02-9.87Z"/>
      <path class="cls-29" d="M133.65,245.37c3.9,1.23,2.77,4.46,2.85,7.2-.95-2.4-1.9-4.8-2.85-7.2Z"/>
      <path class="cls-16" d="M67.56,270.66c2.98,.02,5.97,.04,8.95,.05-.65,.26-1.29,.52-1.94,.77-.67,0-1.33,0-2,0-1.66,0-3.31-.01-4.97-.02-.01-.27-.03-.54-.04-.81Z"/>
      <path class="cls-16" d="M94.58,270.53c.07-.98,.14-1.96,.21-2.95,.24,1.16,.47,2.31,.71,3.47-.31-.17-.61-.35-.92-.52Z"/>
      <path class="cls-29" d="M126.9,233.57c.23,.29,.46,.59,.69,.88-.23-.29-.46-.59-.69-.88Z"/>
      <path class="cls-29" d="M127.62,234.5c.14,.29,.28,.58,.43,.86-.29-.21-.44-.5-.43-.86Z"/>
      <path class="cls-18" d="M9.8,10.67c1.92-.11,3.84-.21,5.76-.32,2.68,0,5.36,0,8.04,0,.98,0,1.97,0,2.96,0,1.34,0,2.68,0,4.02,0,1.33,.72,2.66,1.44,3.99,2.16-.34-.03-.66,.02-.98,.14-.7,.26-1.4,.52-2.1,.78-3.68,1.59-3.98,2.02-3.18,4.68l-.12,.12c-.53,.81-1.64,1.74-1.5,2.41,1.16,5.68,2.55,11.31,3.87,16.95,1.84,5.3,3.67,10.6,5.51,15.89,1.55,4.48,3.1,8.95,5.01,14.45,.69-2.45,1.11-3.93,1.53-5.41h0c.36-1.26,.72-2.51,1.08-3.77,.35-.95,.7-1.89,1.05-2.84,.69-1.79,1.38-3.58,2.07-5.37,.59-1.7,1.17-3.39,1.76-5.09,.34-1.65,.67-3.3,1.01-4.95,.34-.98,.68-1.95,1.03-2.93,.71-2.31,1.43-4.62,2.14-6.93l-.03,.03c1.45-3.85,3.43-7.6,4.15-11.58,.46-2.58-.94-5.49-1.53-8.39,.92-.5,2.6-1.41,4.28-2.33,.25,.14,.52,.2,.81,.17,1.7,.64,3.4,1.83,5.11,1.85,15.68,.2,31.37,.2,47.06,.26-1.52,.62-3.03,1.74-4.56,1.76-9.98,.16-19.96,.08-29.94,.08-1.47,0-2.95,0-4.93,0,.86,1.21,1.15,1.61,1.44,2.01-1.8,.11-3.61,.23-6.82,.43,2.61,1.4,3.73,2.01,4.86,2.61-6.66,2.45-10.26,7.09-10.32,14.31,0,.22-.43,.43-.66,.65-2.86,1.56-6.82,2.44-8.32,4.85-1.93,3.09-1.9,7.42-2.71,11.21l-.02,2.93c-1.27,1.16-3.7,2.44-3.6,3.46,.31,3.03,1.62,5.96,2.58,9.1,.99-.89,1.93-1.74,2.87-2.59l.18,.05c-.52,1.87-.95,3.77-1.57,5.61-3.25,9.63-7.15,19.19-2.43,29.49,.07,.15-.31,.51-.89,1.43-2.26-1.83-5.49-3.16-6.51-5.47-5.22-11.88-9.86-24.01-14.71-36.05-.72-2.22-1.43-4.44-2.15-6.66-.2-.24-.49-.7-.58-.67-.38,.16-1,.47-1,.71,.22,8.2,.51,16.39,.78,24.59l.48,.05,.16-.45c.09,2.13,.17,4.26,.26,6.39-1.02,1.08-2.04,2.16-4.1,4.35v-15.56c-1.88,13.66-3.01,27.21-3.52,40.79-.1,2.63,2.35,5.3,.02,8.16-.29,.36,.78,1.68,.96,2.61,.54,2.79,1.38,5.81-3.06,6.17,.37-8.28,1.05-16.56,1.05-24.85,0-20.97-.27-41.95-.49-62.92-.02-1.97-.42-3.94-.65-5.91-.11-4.6-.21-9.21-.32-13.81-1.52-2.94-3.04-5.89-4.56-8.83Zm29.68,58.33c-4.42,5.96-3.66,10.94,2.72,18.49,2.67-6.51,5.86-12.88,2.81-20.25-.29,2.16-.58,4.32-1.06,7.83-1.9-2.58-3.07-4.18-4.47-6.07ZM59.35,17.64c.27,.43,.54,.86,.82,1.29,2.09-1.41,4.19-2.81,6.21-4.32,.06-.05-.71-1.21-1.1-1.86-1.92,1.32-3.86,2.63-5.75,3.99-.18,.13-.13,.59-.18,.9Z"/>
      <path class="cls-16" d="M31.49,13.43c.7-.26,1.4-.52,2.1-.78,.19,.37,.38,.74,.57,1.1,.14-.41,.27-.83,.41-1.24-1.33-.72-2.66-1.44-3.99-2.16,.64-5.19,3.87-1.66,6.01-1.79,.96,.55,1.98,1.02,2.87,1.67,1.03,.76,1.94,1.69,2.9,2.54-1,.58-2.07,1.08-2.99,1.78-.69,.52-1.2,1.29-1.78,1.94h-.01c-1.96-1.14-6.43,2.66-6.08-3.07Z"/>
      <path class="cls-16" d="M36.07,53.49c-1.84-5.3-3.67-10.6-5.51-15.89,5.28-2.76,4.23,2.9,5.68,4.69,1.41,1.74,1.77,4.61,1.88,7.02,.06,1.36-1.31,2.79-2.04,4.18Z"/>
      <path class="cls-16" d="M44.72,55.91c-.35,.95-.7,1.89-1.05,2.84-2.49-2.43-3.23-5.31-3.17-8.81,.04-2.51-1.32-5.02-1.77-7.57-.29-1.63-.05-3.36-.05-5.04,.52-.05,1.03-.11,1.55-.16,1.5,6.25,3,12.5,4.5,18.74Z"/>
      <path class="cls-16" d="M37.58,16.5c3.36-.16,6.72-.31,10.49-.49v5.72c-3.68-1.83-7.09-3.52-10.51-5.22,0,0,.01-.01,.01-.01Z"/>
      <path class="cls-16" d="M52.72,30.64c-3.79,.28-3.63-1.2-.8-3.7,.26,1.24,.51,2.49,.77,3.73,0,0,.03-.03,.03-.03Z"/>
      <path class="cls-16" d="M42.93,39.75c.09-.86,.19-1.72,.28-2.58l.83,.05v2.57c-.37-.02-.74-.03-1.11-.05Z"/>
      <path class="cls-16" d="M50.58,37.58c-.34,.98-.68,1.95-1.03,2.93,.34-.98,.68-1.95,1.03-2.93Z"/>
      <path class="cls-13" d="M48.55,45.46c-.59,1.7-1.17,3.39-1.76,5.09,.59-1.7,1.17-3.39,1.76-5.09Z"/>
      <path class="cls-16" d="M42.6,62.53c-.51-.33-1.01-.66-1.52-.99,.2-.18,.4-.35,.6-.53,.31,.51,.61,1.01,.92,1.52,0,0,0,0,0,0Z"/>
      <path class="cls-16" d="M28.31,18.11c.62,.38,1.23,.77,1.85,1.15-.17,.21-.34,.42-.51,.64-.48-.55-.97-1.11-1.46-1.66,0,0,.12-.12,.12-.12Z"/>
      <path class="cls-13" d="M146.5,8.55c1.39,.64,2.76,1.82,4.16,1.85,11.3,.21,22.61,.2,33.91,.26-1.11,3.17-3.49,4.01-6.61,3.9-2.53-.09-5.08,.18-7.62,.29,.03,.55,.06,1.11,.09,1.66h35.31l.1,1.41c-1.14,.2-2.27,.44-3.41,.58-6.31,.81-12.63,1.57-18.93,2.43-.55,.08-1.32,.62-1.49,1.11-1.38,4.05-4.24,3.48-7.29,2.48-5.38-.62-10.75-1.23-16.13-1.85-3.91-.24-7.92-.73-10.1,3.73-1.36,.77-2.72,1.54-4.84,2.74V10.56c.95-.67,1.9-1.34,2.85-2.02Z"/>
      <path class="cls-1" d="M74.57,14.51c-.29-.4-.58-.81-1.44-2.01,1.98,0,3.46,0,4.93,0,9.98,0,19.96,.08,29.94-.08,1.53-.02,3.04-1.15,4.56-1.76,1.33,0,2.67,0,4,0,2,2.88,4,2.88,6,0,4.67-.1,9.34-.21,14.01-.31,.67,0,1.34,.02,2.01,.02,.65,.74,1.8,1.43,1.86,2.21,.22,2.93,.09,5.89,.09,9.59-3.36-1.34-6.15-2.45-8.95-3.57-5.01-.79-10.01-1.7-15.05-2.32-2.92-.36-4.09,1.54-4.18,4.24-.59,1.55-1.64,3.08-1.68,4.64-.18,8.44-.11,16.89-.13,25.34-1.94-2.01-3.89-4.03-5.83-6.04-.07-8.63-.14-17.26-.22-25.89,.56-3.47-1.31-4.14-4.3-4.1-8.54,.12-17.08,.04-25.63,.04Z"/>
      <path class="cls-27" d="M131.58,18.6c2.8,1.12,5.59,2.23,8.95,3.57,0-3.7,.13-6.66-.09-9.59-.06-.78-1.21-1.48-1.86-2.21,1.84-3.84,3.42-.89,5.06,.2,0,5.91,0,11.82,0,18.58,2.12-1.2,3.48-1.97,4.84-2.74,.64,1.1,1.29,2.2,1.93,3.31-2.25,1.08-4.5,2.16-6.86,3.28,.88,1.39,1.56,2.46,2.23,3.52,.06,18.62,.11,37.25,.17,55.87-.44,3.36-.89,6.73-1.49,11.28-1.53-1.99-2.02-2.63-2.52-3.27-.05-.32-.16-.62-.35-.88-.3-3.09-.6-6.18-.9-9.27-.01-1.9-.03-3.81-.04-5.71-.02-2.67-.03-5.34-.05-8.01-.21-5.35-.43-10.7-.64-16.06,.45-10.18,.9-20.37,1.37-31.14-2.15,.65-3.36,1.01-4.57,1.38,2.41-6.44,1.89-7.27-5.7-8.8,.17-1.08,.35-2.18,.52-3.28Z"/>
      <path class="cls-18" d="M122.57,10.65c-2,2.88-4,2.88-6,0,2,0,4,0,6,0Z"/>
      <path class="cls-28" d="M178.51,273.45c-.15-2.88,.03-5.48,4.05-4.93,.66,.05,1.33,.11,1.99,.16,1.38,.61,2.72,1.63,4.14,1.74,3.31,.25,6.66,.06,9.99,.04,.96,.06,1.93,.11,2.89,.17,1.67,.62,3.34,1.24,5.01,1.87-.48,.61-.98,1.77-1.45,1.76-8.87-.19-17.75-.51-26.62-.81Z"/>
      <path class="cls-22" d="M206.58,272.5c-1.67-.62-3.34-1.24-5.01-1.87,7.66-.03,15.33-.07,22.99-.1,0,.64,0,1.29,0,1.93-6,.01-11.99,.02-17.99,.04Z"/>
      <path class="cls-16" d="M26.56,10.36c-.99,0-1.97,0-2.96,0,.99-2.38,1.97-2.35,2.96,0Z"/>
      <path class="cls-1" d="M14.76,127c4.44-.35,3.6-3.38,3.06-6.17-.18-.93-1.26-2.25-.96-2.61,2.32-2.87-.12-5.53-.02-8.16,.51-13.58,1.64-27.14,3.52-40.79v15.56c2.06-2.19,3.08-3.27,4.1-4.35,1.4,10.93,2.8,21.86,4.21,32.8,.74,3.03-2.13,6.89,2.08,9.13h0v9.24c-.45,.08-.9,.15-1.35,.23-.47-1.5-.94-3.01-1.32-4.22-1.9,2.21-3.59,6.01-5.92,6.45-2.92,.55-6.36-1.64-9.58-2.65,.25-.37,.5-.74,.75-1.1,.48-1.11,.95-2.21,1.43-3.32v-.03Zm10.35-7.28h.96v-5.42h-.96v5.42Z"/>
      <path class="cls-18" d="M14.75,127.03c-.48,1.11-.95,2.22-1.43,3.32,.48-1.11,.95-2.22,1.43-3.32Z"/>
      <path class="cls-20" d="M67.56,270.66c.01,.27,.03,.54,.04,.81-1.01,.35-2.02,.69-3.03,1.04-2,0-3.99-.01-5.99-.02-.49-1.13-.99-2.26-1.82-4.16,4.34-.61,8.22-1.15,12.09-1.69q-3.96,2.42-1.3,4.01Z"/>
      <path class="cls-2" d="M58.59,272.49c2,0,3.99,.01,5.99,.02-2.67,.67-5.33,1.33-8,2,0,0,0,0,0,0,.67-.67,1.34-1.34,2.01-2.01Z"/>
      <path class="cls-2" d="M4.72,12.5c1.31-.69,2.61-1.39,3.92-2.08-1.31,.69-2.61,1.39-3.92,2.08Z"/>
      <path class="cls-2" d="M8.53,19.6c-.67-.35-1.35-.71-2.02-1.06,.51-.85,1.03-1.69,1.54-2.54,.16,1.2,.32,2.4,.48,3.6Z"/>
      <path class="cls-28" d="M58.59,272.49c-.67,.67-1.34,1.34-2.01,2.01-1.33-.67-2.67-1.33-4-2-.52-1.65-.53-3.89-1.65-4.84-3.16-2.68-6.78-4.82-10.21-7.18-.25-.2-.34-.45-.25-.75,.68-5.81,1.98-11.64,1.85-17.44-.12-5.35,3.08-11.82-3.58-15.79-.13-5.99-.27-11.97-.39-17.96-.01-.65,.11-1.31,.23-2.76,6.51,3.85,11.6,8.38,15.06,14.69,1.03,2.28,2.05,4.56,3.08,6.85-.36,4.49-.55,8.93,3.52,12.98,.32-5.36,.6-10,.87-14.64l1.47,.07c0,6.54-.08,13.08,.06,19.62,.04,1.69,.76,3.36,1.17,5.05,.23,.09,.45,.2,.67,.32,1.43,2.92,2.28,7.55,4.44,8.28,2.32,.78,6.06-1.83,8.82-3.53,1.87-1.15,3.13-3.3,4.66-5.01,.72,.01,1.44,.03,2.16,.04,0,0,.02,.02,.02,.02,.03,1.06,.06,2.12,.08,3.18,0,.28,0,.56,.02,.84,0,0-.08,.13-.08,.13-4.48,5.01-8.88,10.12-15.75,11.98-3.88,.54-7.75,1.08-12.09,1.69,.83,1.89,1.32,3.03,1.82,4.16Z"/>
      <path class="cls-8" d="M40.72,260.49c3.44,2.36,7.05,4.5,10.21,7.18,1.12,.94,1.13,3.19,1.65,4.84-2,0-4,0-6,0-1.67-.6-3.34-1.2-5.02-1.8,2.38-.12,4.76-.25,6.82-.36-2.57-3.3-5.12-6.58-7.67-9.86Z"/>
      <path class="cls-20" d="M215.77,195.77c0,2.46,0,4.88,0,7.3,.01,9.97-.06,19.93,.07,29.9,.07,5.61-2.88,9.21-7.69,12.82-.2-2.07-.45-3.44-.46-4.81-.03-12.79-.04-25.58,0-38.37,.02-5.22,1.29-6.35,8.07-6.83Z"/>
      <path class="cls-20" d="M207.91,187.81v-45.57c2.55,.24,4.82,.45,7.86,.73,0,4.79,0,9.38,0,13.97,0,7.32,.06,14.64-.03,21.96-.07,5.28-2.48,7.92-7.83,8.92Z"/>
      <path class="cls-22" d="M196.71,144.52c1.06-.14,2.12-.28,3.19-.42-1.16-2.43-2.2-4.62-3.24-6.8,3.91,1.88,5,4.86,4.88,9.23-.33,11.94-.07,23.89-.07,35.84,0,4.82,.7,9.79-2.66,13.97-.74,.06-1.48,.11-2.22,.17-.02-6.1,.04-12.2-.07-18.3-.13-7.55-.39-15.09-.59-22.64,.46-2.3,.93-4.6,1.55-7.68-1.84,.93-2.84,1.42-3.83,1.92-1.64,.66-3.28,1.32-4.91,1.99-.75-.45-1.5-.89-2.24-1.34,3.41-1.98,6.81-3.96,10.22-5.94Z"/>
      <path class="cls-3" d="M217.71,247.92c-3.05,2.18-6.09,4.36-9.14,6.54-1.34-3.07,.96-7.82,4.74-9.44,2.73-1.16,3.97,.35,4.39,2.9Z"/>
      <path class="cls-14" d="M200.71,249.67c0-17.42,0-34.84,0-52.25,.28,1.08,.8,2.17,.8,3.25,.05,15.07,.06,30.14,0,45.21,0,1.26-.52,2.53-.8,3.79Z"/>
      <path class="cls-29" d="M193.66,149.82c.99-.5,1.99-1,3.83-1.92-.62,3.08-1.08,5.38-1.55,7.68-.13,1.98-.37,3.96-.38,5.95-.03,29.63-.02,59.26-.03,88.9-3.46,6.73-4.39,7.26-11.31,4.8-3.63-1.29-7.01-3.25-10.5-4.91-.04-6.82-.12-13.63-.13-20.45-.03-21.62,0-43.25-.12-64.87,0-1.21-1.2-2.42-1.84-3.63-.02-.22-.04-.43-.07-.65,2.06-1.35,4.12-2.69,6.18-4.04,1.38-.28,2.76-.56,3.28-.67-.44,7.87-1.19,15.71-1.26,23.56-.18,19.78-.05,39.56-.04,59.34,0,1.16-.47,2.78,.12,3.4,1.43,1.52,3.22,2.89,5.13,3.69,.77,.33,2.23-.97,3.38-1.53,.02-21.32,.04-42.64,.06-63.96,.1-8.35,.2-16.69,.3-25.04,5.15,.51,6.28-.79,4.93-5.66Z"/>
      <path class="cls-29" d="M224.56,270.53c-7.66,.03-15.33,.07-22.99,.1-.96-.06-1.93-.11-2.89-.17-4.71-.59-9.42-1.19-14.13-1.78-.66-.05-1.33-.11-1.99-.16-6.38-2.54-12.75-5.12-19.17-7.56-1.17-.44-2.56-.28-3.85-.4-1.9-3.7,2.69-4.45,3.22-7.05,.94-3,1.87-6,2.81-8.99,.34-6.67,.69-13.35,1.03-20.02,.6,.49,1.74,.98,1.73,1.46-.13,8.14-.45,16.28-.58,24.42-.01,.71,1.02,1.43,1.57,2.15l1.29,.77c7,3.85,14.33,6.65,22.46,6.48,4.84-.1,10.05,.6,14.41-.96,6.09-2.19,11.55-6.16,17.06-9.25v20.98Zm-2.79-6.44c-.01-.33-.02-.67-.04-1h-14.32c0,.33,0,.67,.01,1h14.34Z"/>
      <path class="cls-3" d="M169.33,252.52c-.55-.72-1.59-1.44-1.57-2.15,.13-8.14,.44-16.28,.58-24.42,0-.48-1.13-.97-1.73-1.46,0-16.39,0-32.78,0-49.16-.51-.01-1.01-.02-1.52-.03-.17,.9-.48,1.79-.48,2.69-.03,20.94-.04,41.87,.02,62.81,0,1.24,.62,2.48,.95,3.71-.94,3-1.87,6-2.81,8.99-.06-26.39,.24-52.79-.4-79.16-.19-7.64,2.19-11.75,9.22-13.64,.03,.21,.05,.43,.07,.65,.03,.41,.06,.82,.09,1.23-.56,1.64-1.13,3.28-1.69,4.92-.2,2.8-.56,5.59-.57,8.39-.08,25.54-.11,51.08-.15,76.61Z"/>
      <path class="cls-14" d="M195.54,250.42c0-29.63,0-59.26,.03-88.9,0-1.98,.24-3.96,.38-5.95,.2,7.55,.46,15.09,.59,22.64,.1,6.1,.05,12.2,.07,18.3-.02,16.24,0,32.49-.09,48.73,0,1.73-.63,3.45-.97,5.18Z"/>
      <path class="cls-14" d="M171.74,162.59c-.03-.41-.06-.82-.09-1.23,.64,1.21,1.83,2.42,1.84,3.63,.12,21.62,.09,43.25,.12,64.87,0,6.82,.08,13.64,.13,20.45-.39-2.02-1.1-4.04-1.11-6.06-.08-25.28-.04-50.57-.1-75.85,0-1.94-.51-3.87-.78-5.8Z"/>
      <path class="cls-14" d="M169.33,252.52c.04-25.54,.06-51.08,.15-76.61,0-2.8,.37-5.59,.57-8.39,.17,1.8,.47,3.6,.48,5.4,.06,26.79,.07,53.58,.1,80.37-.43-.26-.86-.51-1.3-.77Z"/>
      <path class="cls-4" d="M107.57,192.53c-1.89-1.28-3.78-2.56-6.3-4.27v15.45c2.05,.74,4.43,1.09,6.17,2.34,2.85,2.04,3.74,4.62,1.01,7.86-2.22,2.63-3.84,5.76-5.72,8.66-.72,1.31-1.44,2.62-2.16,3.92h0c-1.15,.7-2.3,1.39-3.99,2.41v-8.42c-.32-2.7-.63-5.39-.95-8.09-.58-3.01-1.16-6.02-1.74-9.03-.17-.28-.33-.56-.5-.84-3.88-3.03-7.76-6.06-11.64-9.09-2.84-1.86-5.6-3.88-8.55-5.54-3.44-1.93-6.68-.54-8.78,3.44-.24,.1-.49,.21-.73,.32-.16-.06-.31-.17-.47-.16-.14,0-.38,.13-.39,.22-.3,4.03-.58,8.05-.86,12.08-1.07-1.09-1.02-2.24-1.39-3.23-.5-1.34-1.32-2.57-2-3.85-.66,1.29-1.31,2.57-1.97,3.86-2.68-.6-5.36-1.2-8.04-1.8-.25-.25-.56-.35-.91-.31-1.03-.57-2.06-1.15-3.09-1.72-6.7-.99-7.37-5.57-7.14-11.19,.27-6.65-.06-13.32-.14-19.99,.78-.76,1.57-1.52,2.35-2.27,.97,.02,1.93,.04,2.9,.05,.96,.44,1.93,.87,2.89,1.31,2.38,1.29,4.76,2.58,7.14,3.88,4.63,2.49,9.26,4.97,13.88,7.46,6.68,3.57,13.36,7.14,20.04,10.72,3.93,4.29,7.86,8.58,12,13.09v-22.09c-.91-2.9-1.16-6.29-2.89-8.56-2.12-2.78-5.25-5.06-8.37-6.75-2.91-1.57-6.4-2.08-9.63-3.06-2.5-1.94-5-3.88-7.59-5.9,3.84-6.6,7.46-12.83,11.45-19.69-1.8,.11-2.69,.16-3.89,.23-.74-6.06-1.47-12.11-2.21-18.17-.25-1.46-.92-2.99-.68-4.36,1.37-7.73-2.1-13.24-7.77-17.84-.06-1.04-.12-2.07-.18-3.11,.45-.35,.89-.7,1.34-1.05-.49-.32-.97-.64-1.46-.96v-.03c.17-1.13,.03-2.45,.58-3.35,3.23-5.3,.44-9.44-2.39-13.61-.09-2.29-.19-4.59-.28-6.88,1-5.44,2.01-10.88,3.01-16.32,1.05,5.24,.91,10.45,1.14,15.66,.07,1.54,1.15,3.04,1.77,4.56,.06,.98,.11,1.96,.17,2.93-.01,4.41,.09,8.82-.07,13.22-.12,3.07,1.23,4.17,4.11,3.79l-.02-.02c-1.1,1.78-2.21,3.55-3.28,5.29,4,4.33,6.79,5.14,9.22,2.79l.02-.02c1.72,.64,3.44,1.28,5.16,1.92,3.64,3.27,7.29,6.53,10.93,9.8,.87,2.58,1.74,5.15,2.61,7.73,.68-.19,1.36-.37,2.03-.56-.89-3.63-1.78-7.26-2.67-10.88-.23-.2-.3-.44-.2-.73,2.48-2.14,3.89-1.47,4.09,1.69,.14,2.3,0,4.62,0,6.94,1.32,1.38,2.65,2.76,3.97,4.14,7.37,.17,14.73,.35,22.1,.52-.06-.41-.13-.81-.19-1.22-.62-1.42-1.25-2.83-1.87-4.25,1.58-1.62,3.37-3.09,4.65-4.93,.62-.9,.28-2.47,.37-3.74-.99,.52-2.02,.97-2.94,1.59-.42,.28-.62,.9-.91,1.36-1.13-2.38-1.13-4.6-1.13-6.81-.01-7.21-.03-14.43-.04-21.64,1.71-1.63,3.42-3.25,5.13-4.88,.99-.01,1.97-.03,2.96-.04,0,.69-.01,1.39-.02,2.08-.26,.14-.52,.28-.78,.43,.26,.14,.52,.29,.77,.43,.09,.37,.18,.74,.28,1.12v13.97c-.03,6.32-.04,12.63-.06,18.95-.1,.34-.2,.67-.29,1.01-.42,.6-.84,1.21-1.26,1.81,1.45,.08,2.89,.15,4.34,.23l-.07-.03c-.02,4.86-3.73,6.79-7.14,8.96h-16.78c-.02,.34-.03,.68-.05,1.02,4.89,.39,9.78,.79,14.67,1.18,3.18,1.64,5.62,.75,7.73-2.01,1.39-1.82,3.1-3.41,4.66-5.1,4.21-3.86,8.41-7.72,12.63-11.57,1.66-1.52,4.59-2.86,4.78-4.52,.37-3.19-.53-6.65-1.5-9.81-.31-1-2.48-1.44-3.81-2.13-.1-1.55-.19-3.11-.29-4.66,1.36-2.37-2.45-7.6,3.98-7.17,1.15,4.61,2.29,9.23,3.44,13.85,2.8-.88,4.57-1.44,6.48-2.04,.13-1.24,.26-2.54,.39-3.83,.97-1.79,1.94-3.59,3.11-5.74,.29,1.01,.52,1.83,.75,2.65,.05,.99,.1,1.97,.15,2.96-.43,5.21-.86,10.41-1.28,15.62-.06,.68-.11,1.35-.17,2.03-.38,.09-.55,.32-.5,.71-.12,.55-.24,1.09-.35,1.64-.97,2.09-1.95,4.19-3.31,7.12-.44-3.96-.79-7.04-1.13-10.12-.47,.04-.94,.08-1.41,.13-.6,7.08-1.21,14.16-1.81,21.25-.52,3.69-1.03,7.38-1.6,11.46-1.6-1.16-2.79-2.01-3.97-2.86-.26,.22-.53,.44-.79,.66,4.07,6.73,8.13,13.46,12.2,20.19-.03,.67-.06,1.34-.09,2.01-1.98,1.38-3.96,2.75-5.94,4.13-4.5,2.81-9,5.61-13.5,8.42,.12,.27,.24,.54,.36,.81,1.36-.4,2.71-.8,4.07-1.19,3.7-.15,2.33,1.71,1.35,3.41-3.07,1.54-6.15,3.08-9.22,4.62-2.52,1.19-5.38,1.98-7.39,3.74-.88,.77,.19,3.54-.03,5.36-.13,1.02-.96,2.05-1.7,2.88-1.89,2.12-3.9,4.13-5.85,6.18-2.83,2.26-5.45,4.93-8.61,6.56-1.26,.65-3.72-1.05-5.63-1.67,.24-.48,.77-1.02,.68-1.42-.48-2.24-1.13-4.45-1.69-6.67-.19-.77-.04-1.96-.51-2.26-4.07-2.68-4.22-6.75-4.36-10.98-.15-4.58-.6-9.14-.92-13.71-.38-2.3-.76-4.59-1.13-6.89-.55-.41-1.1-.81-1.64-1.22-2.88-2.2-5.75-4.39-8.63-6.59-.35,.41-.71,.81-1.06,1.22,2.44,2.54,4.88,5.08,7.32,7.61,1.06,7.28,2.13,14.56,3.19,21.83,.65,2.02,1.3,4.05,1.95,6.07l-.06-.07c.36,.36,.71,.71,1.07,1.07l-.07-.07c.34,.48,.68,.96,1.01,1.44-.81,1.82,3.7,5.52-1.99,5.62Zm28.7-41.35c-2.28,2.12-6.15,4-6.52,6.41-.94,6.17-.31,12.57-.31,18.88,.43,.03,.87,.07,1.3,.1,3.14-7.88,.56-17.4,6.59-24.45,.29-.45,.58-.91,.88-1.36-.64,.14-1.29,.28-1.93,.42Zm17.74-20.81c.1-.09,.27-.16,.28-.26,.01-.1-.13-.21-.21-.32-.1,.09-.27,.16-.28,.26-.01,.1,.13,.21,.21,.32Z"/>
      <path class="cls-22" d="M160.75,122.86c.6-7.08,1.21-14.16,1.81-21.25,.47-.04,.94-.08,1.41-.13,.34,3.08,.69,6.16,1.13,10.12,1.37-2.93,2.34-5.02,3.31-7.12-.82,7.88-1.24,15.84-2.57,23.64-1.31,7.68,1.29,13.5,6.67,18.55,1.11,1.9,2.21,3.81,3.32,5.71-.78,.41-1.56,.83-2.33,1.24-1.63-1.71-3.27-3.41-4.9-5.12-6.52-7.02-7.67-15.31-5.8-24.33,.07-.33,.14-.65,.21-.97-.76-.12-1.51-.23-2.27-.35Z"/>
      <path class="cls-17" d="M204.57,30.5c-.66-.34-1.33-.67-1.99-1.01-.51-.63-1.03-1.26-1.78-2.19,2.68-1.26,8.76-.33,3.18-7.19,7.42-2.03,13.98-3.82,20.54-5.61,0,2,.02,4,.02,6-1.9,1.82-4.27,3.35-5.62,5.52-3.61,5.78-9.01,4.82-14.35,4.48Z"/>
      <path class="cls-6" d="M158.59,22.67c5.38,.62,10.75,1.23,16.13,1.85,.06,4.35,.12,8.7,.18,13.05,.03,.62,.06,1.24,.09,1.86-.37,2.03-.73,4.05-1.1,6.08-.33,4.36-.65,8.73-.98,13.09,.02,.62,.03,1.23,.05,1.85-.08,.69-.16,1.38-.24,2.07l-1.15,6.05c-.95-.02-1.9-.05-2.84-.07,.57-8.01,1.13-16.02,1.7-24.03,.04-1.66,.09-3.32,.13-4.99,.5-3.16,1-6.32,1.6-10.08-4.73-.5-9.43-1-14.13-1.5,1.97-.78,3.94-1.56,5.89-2.33-1.97-1.07-3.65-1.98-5.34-2.9Z"/>
      <path class="cls-26" d="M195.57,16.5h-25.14c-.03-.55-.06-1.11-.09-1.66,2.54-.11,5.09-.39,7.62-.29,3.13,.11,5.51-.73,6.61-3.9,6.67,0,13.33,0,20,.01-1.89,1.28-3.77,2.58-5.67,3.83-1.08,.71-2.22,1.34-3.33,2.01Z"/>
      <path class="cls-17" d="M184.47,36.49c.02,2.49,.09,4.98,.02,7.47-.03,.95-.15,2.58-.63,2.74-4.79,1.65-2.89,5.6-3.22,8.77-.03,1.03-.06,2.06-.09,3.09-1.02-1.46-2.04-2.92-2.99-4.29-.87,.16-1.72,.32-2.75,.52v-7.32c.91-1.37,1.82-2.75,2.95-4.44,.54,.92,1.11,1.89,1.69,2.88,3.34-2.53-2.45-9.39,5.03-9.43Z"/>
      <path class="cls-21" d="M174.8,47.47v7.32c1.04-.19,1.88-.35,2.75-.52,.96,1.37,1.98,2.83,2.99,4.29-.14,2.1-.29,4.2-.43,6.3-.3-.03-.6-.07-.91-.1-.47-1.25-.93-2.5-1.78-4.78-.71,2.42-1.08,3.72-1.49,5.1-1.29-1.03-2.26-1.8-3.22-2.57,.08-.69,.16-1.38,.24-2.07-.02-.62-.03-1.23-.05-1.85,.33-4.36,.65-8.73,.98-13.09,.3,.66,.6,1.31,.9,1.97Z"/>
      <path class="cls-17" d="M174.99,39.43c-.03-.62-.06-1.24-.09-1.86,.03,.62,.06,1.24,.09,1.86Z"/>
      <path class="cls-8" d="M173.51,153.63c.78-.41,1.56-.83,2.33-1.24,1.34,.32,2.81,1.14,4,.84,2.31-.59,4.45-1.81,6.66-2.77,.75,.45,1.5,.89,2.24,1.34,0,1.22-.01,2.45-.02,3.67-.1,8.35-.2,16.69-.3,25.04-.61-.01-1.22-.02-1.83-.03,0-4.32,.11-8.65-.11-12.95-.05-.97-1.26-1.88-1.93-2.82-.65,.96-1.81,1.88-1.88,2.89-.78,10.8-1.96,21.62-1.9,32.43,.07,13.82,1.08,27.65,1.99,41.45,.07,1.07,2.49,1.99,3.82,2.98h1.8c-1.15,.57-2.61,1.87-3.38,1.54-1.91-.8-3.7-2.17-5.13-3.69-.58-.62-.12-2.24-.12-3.4,0-19.78-.14-39.56,.04-59.34,.07-7.85,.82-15.69,1.26-23.56-.52,.11-1.9,.39-3.28,.67-1.41-.39-2.81-.78-4.22-1.17-.01-.62-.02-1.25-.04-1.87Z"/>
      <path class="cls-19" d="M172.73,62.51c.97,.77,1.93,1.54,3.22,2.57,.4-1.38,.78-2.68,1.49-5.1,.85,2.28,1.31,3.53,1.78,4.78,.3,.03,.6,.07,.91,.1,.14-2.1,.29-4.2,.43-6.3,.03-1.03,.06-2.06,.09-3.09,.65,1.34,1.8,2.66,1.85,4.02,.21,5.32,.08,10.66,.07,15.99-4.55,1.53-9.61,2.6-7.88,9.67-1.77-.3-2.86-.48-3.95-.66-.05-.99-.1-1.97-.15-2.96,.33-4.33,.66-8.65,.99-12.98l1.15-6.05Z"/>
      <path class="cls-12" d="M169.28,102.14c.06-.68,.11-1.35,.17-2.03-.06,.67-.11,1.35-.17,2.03Z"/>
      <path class="cls-17" d="M47.65,198.46c.35-.04,.66,.07,.91,.31-.98,1.59-1.96,3.17-3.12,5.04,.26,.88,.69,2.32,1.11,3.75-.3,.15-.61,.31-.91,.46-.6-.63-1.09-1.54-1.83-1.83-1.71-.68-3.58-1.53-5.29-1.36-.76,.08-1.28,2.46-1.94,3.78-.65,1.32-1.33,2.62-1.99,3.92-.12,.09-.35,.22-.33,.27,.07,.25,.21,.47,.32,.7,0,1,0,2,0,3-1.49,2.9-2.98,5.81-4.96,9.67-.87-2.55-1.3-3.8-1.73-5.05-.35,0-.71,.02-1.06,.03-.16,3.57-.33,7.14-.51,11.06-1.62-.79-2.61-1.27-3.61-1.75-.04-9.49-.05-18.98-.15-28.47-.02-1.79-.42-3.57-.64-5.35-.47-.7-.94-1.4-1.41-2.1,7.65-.2,7.81-7.72,11.68-12.3,1.29,1.36,2.39,2.52,4.36,4.59v-21.21c.24-.05,.49-.07,.74-.06,.07,6.66,.41,13.34,.14,19.99-.23,5.62,.44,10.2,7.14,11.19,.54,1.45,.32,4.27,3.09,1.72Z"/>
      <path class="cls-30" d="M22.71,230.46c.99,.48,1.98,.96,3.61,1.75,.18-3.92,.34-7.49,.51-11.06,.35,0,.71-.02,1.06-.03,.43,1.25,.86,2.5,1.73,5.05,1.98-3.86,3.47-6.77,4.96-9.67,3.44,5.2,3.39,14.53-2.64,16.98-1.45,.59-2.69,2.6-3.27,4.23-1.45,4.1-2.47,8.35-3.66,12.54-.77-.12-1.53-.24-2.3-.36v-19.42Z"/>
      <path class="cls-24" d="M40.72,260.49c2.55,3.28,5.1,6.56,7.67,9.86-2.06,.11-4.44,.23-6.82,.36-3.66,0-7.32,0-10.97,0-.67-.12-1.35-.24-2.02-.36-.22-3.92,.21-7.17,5.14-8.14,1.2-.24,2.47-2.84,2.73-4.51,.45-2.92-.1-5.98,.23-8.92,.2-1.81,1.26-3.53,1.94-5.29,.21,1.76,.43,3.51,.63,5.27,.42,3.65,.83,7.31,1.24,10.97-.09,.31,0,.56,.25,.75Z"/>
      <path class="cls-22" d="M56.6,200.57c.66-1.29,1.31-2.57,1.97-3.86,.68,1.28,1.5,2.5,2,3.85,.37,.99,.32,2.14,1.39,3.23,.28-4.03,.56-8.06,.86-12.08,0-.09,.25-.22,.39-.22,.15,0,.31,.1,.47,.16,.05,19.58,.09,39.17,.14,58.75-.41-1.68-1.14-3.36-1.17-5.05-.14-6.54-.06-13.08-.06-19.62l-1.47-.07c-.28,4.64-.55,9.28-.87,14.64-4.08-4.05-3.88-8.49-3.53-12.98,.79,1.81,1.58,3.63,2.84,6.52v-19.3c-.03-3.93,.11-7.86-.21-11.77-.06-.8-1.79-1.47-2.75-2.2Z"/>
      <path class="cls-8" d="M40.47,259.73c-.41-3.66-.82-7.31-1.24-10.97-.2-1.76-.42-3.52-.63-5.27,.05-5.66,.09-11.33,.14-16.99,6.66,3.97,3.46,10.44,3.58,15.79,.13,5.8-1.17,11.62-1.85,17.44Z"/>
      <path class="cls-12" d="M59.56,214.53v19.3c-1.26-2.89-2.05-4.71-2.84-6.52-1.03-2.28-2.05-4.56-3.08-6.85,1.47,.07,2.94,.15,4.36,.22,.54-2.13,1.05-4.14,1.55-6.15Z"/>
      <path class="cls-24" d="M30.9,259.8c.1-.89,.2-1.77,.29-2.66,.29,.02,.58,.03,.87,.05v2.66c-.39-.02-.78-.03-1.17-.05Z"/>
      <path class="cls-30" d="M34.58,213.5c-.11-.23-.25-.46-.32-.7-.02-.06,.22-.18,.33-.27,0,.33,0,.65-.01,.98Z"/>
      <path class="cls-25" d="M28.66,113.27c-1.4-10.93-2.8-21.86-4.21-32.8-.09-2.13-.17-4.26-.26-6.38,.13-4.38,.12-8.78,.49-13.15,.13-1.51,1.19-2.95,1.83-4.42,4.85,12.04,9.49,24.17,14.71,36.05,1.01,2.31,4.25,3.65,6.51,5.47,.59-.92,.96-1.28,.89-1.43-4.72-10.29-.82-19.86,2.43-29.49,.62-1.84,1.05-3.74,1.57-5.61,.65,.25,1.85,.45,1.87,.75,1.23,14.68,2.37,29.36,3.51,44.05,.47,3.43,.95,6.87,1.43,10.3,0,8.86,.01,17.73,.02,26.59-.87,3.74-1.73,7.48-2.6,11.22-1.17,.06-2.34,.12-3.51,.18-.58-.74-1.16-1.48-1.74-2.22-.13-1.23,.19-3.1-.48-3.57-1.61-1.14-3.69-1.63-5.58-2.38-4.93-8.01-9.86-16.02-14.8-24.03,0,0,0,0,0,0-.69-3.04-1.38-6.09-2.08-9.13Z"/>
      <path class="cls-26" d="M51.59,152.39c.58,.74,1.16,1.48,1.74,2.22,1.74,1.05,3.48,2.11,5.22,3.16-.05,.23-.07,.47-.08,.71-.64,.02-1.27,.03-1.91,.05-.67,0-1.34,0-2-.01-3.47-2-6.85-4.19-10.48-5.83-.77-.35-2.85,1.05-3.61,2.14-.95,1.37-1.15,3.25-1.61,4.7,2.94,1.14,5.32,2.06,7.71,2.98-.38,.71-.76,1.43-1.15,2.14-.96-.44-1.93-.87-2.89-1.31-.97-.02-1.93-.04-2.9-.05-.78,.76-1.57,1.52-2.35,2.27-.25,0-.49,.01-.73,.06-1.22,1.52-2.14,3.76-3.71,4.41-3.28,1.35-4.19,3.42-4.48,6.73-.12,1.35-2.45,2.51-3.78,3.75l-.02-.02c0-5.31,.26-10.65-.07-15.94-.25-4.02-1.31-7.98-1.87-11.98-.15-1.04,.23-2.16,.36-3.24,.55-.07,1.09-.14,1.64-.21,.93,4.85,1.85,9.69,2.78,14.54,.39,.02,.78,.03,1.18,.05,0-3.25,.28-6.52-.07-9.74-.48-4.5,1.33-6.06,5.65-5.51,1.8,.23,3.65,.01,5.48,0,1.94,.86,3.83,1.87,5.84,2.53,1.98,.65,4.07,.94,6.11,1.39Z"/>
      <path class="cls-26" d="M15.57,189.49c-1.95-3.6-3.9-7.19-5.84-10.79,3.86,1.88,7.71,3.77,11.57,5.65,1.09-1.29,2.18-2.58,3.27-3.86,0,0,.02,.02,.02,.02,2.82,4.06,1.86,6.7-2.76,8.54-1.39,.55-2.24,2.46-3.34,3.74-.97-1.1-1.94-2.2-2.92-3.31Z"/>
      <path class="cls-8" d="M51.59,152.39c-2.04-.45-4.13-.74-6.11-1.39-2.01-.66-3.9-1.67-5.84-2.53-6.28-3.37-12.57-6.74-18.85-10.12l.23-.87c.88,.2,1.84,.23,2.63,.62,5.39,2.66,10.66,5.55,16.14,7.99,1.64,.73,3.82,.27,5.75,.35,1.89,.75,3.96,1.24,5.58,2.38,.67,.47,.35,2.34,.48,3.57Z"/>
      <path class="cls-10" d="M18.49,192.8c1.1-1.29,1.95-3.19,3.34-3.74,4.62-1.84,5.58-4.48,2.76-8.54,1.33-1.24,3.66-2.4,3.78-3.75,.28-3.31,1.19-5.38,4.48-6.73,1.58-.65,2.5-2.89,3.71-4.41,0,6.69,0,13.38,0,21.21-1.97-2.07-3.07-3.23-4.36-4.59-3.87,4.58-4.03,12.1-11.68,12.3-.67-.58-1.35-1.16-2.02-1.74Z"/>
      <path class="cls-22" d="M173.54,155.5c1.41,.39,2.81,.78,4.22,1.17-2.06,1.35-4.12,2.69-6.19,4.04-7.03,1.89-9.4,6-9.22,13.64,.64,26.37,.34,52.77,.4,79.16-.53,2.6-5.11,3.34-3.22,7.05,0,0,.06-.08,.06-.08-1.01-.22-2.02-.44-3.03-.65-3.91-5.23-7.83-10.46-11.74-15.69-.37-.63-.74-1.26-1.11-1.89-1.17-2.27-2.34-4.55-3.5-6.82-.22-.28-.44-.55-.65-.83,0,0-.06-.09-.06-.09-.31-.65-.62-1.29-.93-1.94-.36-.7-.72-1.39-1.08-2.09-.61-1.06-1.21-2.13-1.82-3.19-.3-.94-.6-1.88-.9-2.82,3.46-6.31,2.07-12.78,.65-19.26v-16.84c-2.7,1.71-4.73,3.01-6.76,4.3,1.96-2.05,3.97-4.06,5.85-6.18,.74-.83,1.57-1.86,1.7-2.88,.22-1.81-.84-4.59,.03-5.36,2.01-1.76,4.87-2.56,7.39-3.74-5.13,1.94-6.2,5.66-5.99,10.94,.46,11.47,.01,22.98,.28,34.46,.07,3.02,.81,6.33,2.26,8.94,3.79,6.83,8,13.44,12.36,19.92,1.39,2.06,3.8,3.42,6.76,5.97v-38.86c-5.51-.64-5.54-.64-5.58,4.15-.04,5.02,0,10.05,0,15.08-.59,.08-1.19,.16-1.78,.25-3.13-4.13-6.37-8.37-6.48-13.86-.25-11.48-.21-22.98,.05-34.46,.04-1.61,1.98-3.17,3.04-4.76-.65,3.15-1.77,6.29-1.87,9.46-.27,8.3,.24,16.64-.22,24.92-.33,5.97,2.27,10.47,6.03,14.99v-17.14c.44,.35,.89,.69,1.33,1.04,2.2-1.51,6.08-2.81,6.3-4.57,.67-5.4,1.99-11.2-1.54-16.33,.46-8.91,.91-17.81,1.42-27.62-3.26,1.31-5.2,2.09-7.14,2.87,.98-1.71,2.35-3.56-1.35-3.41,3.69-1.99,7.37-3.99,11.06-5.98,2.68-1.33,5.35-2.66,8.03-3.99,.99-.34,1.97-.68,2.96-1.01Z"/>
      <path class="cls-20" d="M135.41,205.22c1.42,6.48,2.81,12.95-.65,19.26-2.25-3.61-4.19-7.47-6.85-10.75-2.32-2.86-1.73-4.81,.35-7.24,2.13-2.48,4.28-3.52,7.14-1.27Z"/>
      <path class="cls-22" d="M96.57,220.47v8.42c1.69-1.01,2.84-1.71,3.99-2.4-4.69,8.6-9.38,17.2-14.07,25.8-.61,.47-1.21,.93-1.82,1.4-.03-1.06-.06-2.12-.08-3.18,.52-.32,1.03-.65,1.55-.97-.19-.21-.38-.42-.57-.63-.33,.53-.66,1.06-1,1.58-.72-.01-1.44-.03-2.16-.04,5.62-9.57,13.74-17.95,14.16-29.98Z"/>
      <path class="cls-8" d="M107.57,192.53c5.68-.1,1.17-3.8,1.99-5.62-.34-.48-.68-.96-1.02-1.44,0,0,.07,.07,.07,.07-.36-.36-.71-.71-1.07-1.07,0,0,.06,.07,.06,.07,0-7.35,0-14.69,.01-22.04,.32,4.57,.78,9.14,.92,13.71,.13,4.23,.29,8.31,4.36,10.98,.46,.3,.31,1.5,.51,2.26,.56,2.23,1.21,4.43,1.69,6.67,.09,.41-.44,.95-.68,1.42-2.28-1.68-4.56-3.35-6.84-5.03Z"/>
      <path class="cls-29" d="M136.21,234.89c.74,1.56,1.47,3.12,2.89,6.11-2.69-.98-4.71-1.13-5.19-2.06-.5-.97,.48-2.71,.81-4.12,.5,.02,.99,.05,1.49,.07Z"/>
      <path class="cls-29" d="M142.99,253.85v-6.56c.4-.02,.8-.05,1.19-.07v6.55c-.4,.02-.8,.05-1.19,.07Z"/>
      <path class="cls-29" d="M156.57,259.83c1.01,.22,2.02,.44,3.03,.65,.06,.67,.11,1.34,.17,2.01-1.07-.89-2.14-1.77-3.21-2.66Z"/>
      <path class="cls-22" d="M100.56,226.49c.72-1.31,1.44-2.62,2.16-3.92-.72,1.31-1.44,2.62-2.16,3.92Z"/>
      <path class="cls-29" d="M143.71,242.25c.37,.63,.74,1.26,1.11,1.89-.51,.25-1.01,.5-1.52,.75,.13-.88,.27-1.76,.4-2.64Z"/>
      <path class="cls-29" d="M135.66,227.3c.61,1.06,1.21,2.13,1.82,3.19-.61-1.06-1.21-2.13-1.82-3.19Z"/>
      <path class="cls-29" d="M84.67,253.7c.61-.47,1.21-.93,1.82-1.4-.6,.75-1.2,1.49-1.8,2.24-.02-.28-.02-.56-.02-.84Z"/>
      <path class="cls-29" d="M138.56,232.57c.31,.65,.62,1.29,.93,1.94-.31-.65-.62-1.29-.93-1.94Z"/>
      <path class="cls-29" d="M139.55,234.6c.22,.28,.44,.55,.65,.83-.22-.28-.44-.55-.65-.83Z"/>
      <path class="cls-5" d="M94.58,262.51c-.98,.66-1.94,1.84-2.95,1.9-4.06,.22-8.14,.09-12.21,.09-.03-.67-.05-1.33-.08-2,5.08,0,10.15,0,15.23,0,0,0,0,0,0,0Z"/>
      <path class="cls-1" d="M66.73,90.5c.06,1.04,.12,2.07,.18,3.11-.17,1.63-.33,3.26-.5,4.89-.98,3.2-1.96,6.41-3.07,10.05-4.18-1.71-2.24-5.35-2.79-8.03,.01-.68,.02-1.36,.03-2.04,2.78-1.32,2.77-2.65,0-3.97,.03-1.59,.27-3.21,.05-4.77-.59-4.34-1.49-8.64-2.04-12.98-.84-6.64-1.16-13.28-.09-19.95,.24-1.48-.17-3.06-.28-4.6-.31-.02-.62-.04-.93-.07-.43,1.25-.86,2.5-1.81,5.24-1.34-2.74-2.07-4.36-2.92-5.91-.56-1.02-1.29-1.94-1.95-2.91,.81-3.79,.78-8.12,2.71-11.21,1.5-2.41,5.46-3.29,8.32-4.85,.63,9.67,1.27,19.35,1.9,29.02-3.41,3.73-2.98,11.42,.87,15.95,.73,3.65,1.47,7.31,2.2,10.96,0,0,0,.03,0,.03,.04,.67,.08,1.34,.12,2.01Z"/>
      <path class="cls-15" d="M63.53,61.54c-.63-9.67-1.27-19.35-1.9-29.02,.23-.22,.66-.43,.66-.65,.05-7.22,3.65-11.87,10.32-14.31,1.99-.24,3.98-.49,5.96-.73-.88,.56-1.76,1.13-2.65,1.69-2.11,1.33-4.23,2.65-6.34,3.97-6.32,1.15,.18,4.08-.83,5.97,.2,3.59,.4,7.18,.61,10.77,.37,6.53,.74,13.05,1.11,19.58l-.03,9.72c-.62-1.52-1.71-3.02-1.77-4.56-.22-5.2-.09-10.42-1.14-15.66-1,5.44-2.01,10.88-3.01,16.32-.33-1.03-.66-2.05-.99-3.08Z"/>
      <path class="cls-13" d="M50.6,48.57c.66,.97,1.39,1.89,1.95,2.91,.85,1.55,1.58,3.17,2.92,5.91,.95-2.74,1.38-3.99,1.81-5.24,.31,.02,.62,.04,.93,.07,.11,1.53,.52,3.12,.28,4.6-1.07,6.67-.75,13.32,.09,19.95,.55,4.34,1.45,8.64,2.04,12.98,.21,1.56-.02,3.18-.05,4.77,0,0,0,0,0,0-.49,.33-.98,.66-1.47,.99,.49,.34,.97,.68,1.46,1.02,0,.66,0,1.31,0,1.97-.01,.68-.02,1.36-.03,2.04-.85,1.93-1.7,3.87-2.55,5.8-1.14-14.68-2.28-29.37-3.51-44.05-.03-.3-1.22-.5-1.87-.75,0,0-.18-.05-.18-.05-.62-3.32-1.23-6.64-1.85-9.96,0-.98,.01-1.95,.02-2.93Z"/>
      <path class="cls-1" d="M39.48,69c1.39,1.9,2.57,3.49,4.47,6.07,.47-3.51,.76-5.67,1.06-7.83,3.06,7.37-.13,13.74-2.81,20.25-6.38-7.55-7.13-12.53-2.72-18.49Z"/>
      <path class="cls-13" d="M78.57,16.82c-1.99,.24-3.98,.49-5.96,.73-1.12-.6-2.25-1.21-4.86-2.61,3.21-.2,5.02-.32,6.82-.43,8.54,0,17.09,.08,25.63-.04,3-.04,4.86,.63,4.31,4.1-.28-.03-.55-.05-.83-.05-.95-.72-1.9-1.45-2.85-2.17-4.08,.1-8.16,.2-12.24,.3-3.34,.06-6.67,.12-10.01,.17Z"/>
      <path class="cls-1" d="M50.58,51.5c.62,3.32,1.23,6.64,1.85,9.96-.94,.85-1.88,1.7-2.87,2.59-.97-3.13-2.27-6.06-2.58-9.1-.1-1.02,2.33-2.3,3.6-3.46Z"/>
      <path class="cls-27" d="M26.5,56.52c-.64,1.47-1.7,2.91-1.83,4.42-.37,4.37-.36,8.77-.49,13.15,0-.01-.15,.44-.15,.44,0,0-.48-.05-.48-.05,.08-1.64,.19-3.27,.23-4.91,.2-6.57,.37-13.15,.56-19.72,.72,2.22,1.43,4.44,2.15,6.66Z"/>
      <path class="cls-1" d="M59.35,17.64c.05-.31,0-.77,.18-.9,1.89-1.36,3.83-2.67,5.75-3.99,.38,.64,1.16,1.81,1.1,1.86-2.02,1.51-4.12,2.9-6.21,4.32-.27-.43-.54-.86-.82-1.29Z"/>
      <path class="cls-23" d="M24.35,49.87c-.19,6.57-.36,13.15-.56,19.72-.05,1.64-.15,3.27-.23,4.91-.28-8.2-.56-16.39-.78-24.59,0-.24,.62-.55,1-.71,.09-.04,.38,.43,.58,.67Z"/>
      <path class="cls-25" d="M34.57,12.51c-.14,.41-.27,.83-.41,1.24-.19-.37-.38-.74-.57-1.1,.32-.12,.64-.17,.98-.14Z"/>
      <path class="cls-4" d="M158.59,22.67c1.69,.92,3.37,1.83,5.34,2.9-1.95,.77-3.92,1.55-5.9,2.33,2.17,3.56,4.35,7.12,6.52,10.69,0,1.97,.01,3.95,.02,5.92,0,0-.05-.07-.05-.07-.79,6.91-1.57,13.81-2.5,21.97-1.82-2.04-2.65-2.97-3.48-3.9-2.71-10.93-5.42-21.87-8.12-32.8-.64-1.1-1.29-2.21-1.93-3.31,2.18-4.46,6.19-3.97,10.1-3.73Z"/>
      <path class="cls-25" d="M131.58,18.6c-.17,1.1-.35,2.2-.52,3.28,7.59,1.53,8.11,2.36,5.7,8.8,0,0-.01,0-.01,0-1.36,.68-2.71,1.37-4.07,2.05-3.62,1.87-7.06,4.45-10.91,5.4-3.8,.94-5.19,2.64-5.06,6.21-.03,3.7-.19,7.4-.07,11.09,.24,7.49,.8,14.98,.93,22.47,.17,9.7,.16,19.41-.09,29.11-.04,1.48-1.8,2.92-2.76,4.39-.79-6.3-1.58-12.6-2.37-18.9,0-.67,0-1.33,0-2v-5.95c.02-5.01,.03-10.03,.04-15.04,0-.33,0-.65,0-.98,0-3.35,0-6.69,0-10.04,0-4.65,.01-9.3,.02-13.95-.02-8-.04-16.01-.06-24.01,.1-2.7,1.26-4.59,4.18-4.24,5.03,.62,10.03,1.53,15.05,2.32Z"/>
      <path class="cls-21" d="M112.35,92.48c.79,6.3,1.58,12.6,2.37,18.9,1.21,.52,1.41,4.41,3.77,1.13,.7,1.25,1.4,2.5,2.09,3.75-4.69,.09-9.39,.17-14.08,.26-1.32-1.38-2.65-2.76-3.97-4.14,.38-2.74,1.09-5.47,1.1-8.21,.08-28.55,.04-57.11,.04-85.66,.28,0,.56,.02,.83,.05,.07,8.63,.14,17.26,.21,25.89,.01,13.34,.02,26.67,.03,40.01,0,7.13,0,14.25,0,21.62,6.84-3.1,5.94-8.47,5.85-13.53,.58-.02,1.17-.05,1.75-.07Z"/>
      <path class="cls-13" d="M104.75,84.46c-.01-13.34-.02-26.67-.03-40.01,1.94,2.01,3.89,4.03,5.83,6.04,0,9.01,.01,18.01,.02,27.02-1.11-.47-2.22-.93-3.01-1.26-.99,2.89-1.9,5.55-2.81,8.21Z"/>
      <path class="cls-26" d="M110.57,77.51c0-9.01-.01-18.01-.02-27.02,.02-8.45-.06-16.89,.13-25.34,.03-1.56,1.09-3.09,1.68-4.64,.02,8,.04,16.01,.06,24.01,0,4.65-.01,9.3-.02,13.95,0,3.35,0,6.69,0,10.04-.1,.1-.29,.21-.27,.29,.05,.24,.17,.46,.27,.69,0,5.01-.01,10.03-.02,15.04,0,1.98,0,3.97-.01,5.95,0,.67,0,1.33,0,2-.58,.02-1.17,.05-1.75,.07-.01-5.01-.02-10.03-.04-15.04Z"/>
      <path class="cls-13" d="M116.71,44.34c-.14-3.57,1.25-5.27,5.06-6.21,3.85-.95,7.29-3.53,10.91-5.4,1.36-.68,2.71-1.37,4.07-2.05,0,0,.01,0,.01,0,1.21-.36,2.42-.73,4.57-1.38-.47,10.78-.92,20.96-1.37,31.14-.8-.65-1.59-1.3-2.39-1.96-.33-1.93-.87-3.86-.95-5.8-.16-3.81,.03-7.63-.15-11.43-.03-.53-1.31-1-2.02-1.5-3.07,1.59-6.13,3.17-9.2,4.76-1.17,9.76-2.33,19.52-3.52,29.51-1.14-2.11-2.07-3.82-3-5.54-.06-6.54,0-13.08-.26-19.6-.06-1.54-1.15-3.04-1.77-4.55Z"/>
      <path class="cls-10" d="M137.58,58.49c.8,.65,1.59,1.3,2.39,1.96,.21,5.35,.43,10.7,.64,16.06-1.34,0-2.69,0-4.03,0,0-2-.01-3.99-.02-5.99,.53-.72,1.06-1.44,1.59-2.17-.87,.4-1.74,.8-2.62,1.19-1.29,1-2.58,1.99-3.87,2.99-1.71,1.63-3.42,3.25-5.13,4.88-.31,.38-.63,.75-.94,1.13-.36,3.32-.71,6.64-1.07,9.95-4.91,3.65-3.83,9-3.98,14-.57,0-1.13,0-1.7-.01-.03-11.33-.07-22.66-.1-33.98,.93,1.71,1.85,3.43,2.99,5.54,1.19-9.99,2.36-19.75,3.52-29.51,0,7.63,0,15.27,0,23.9,3.89-2.04,6.62-3.47,9.34-4.9,.37-.34,.73-.68,1.1-1.02,.63-1.33,1.25-2.67,1.88-4Z"/>
      <path class="cls-24" d="M152.44,83.82c.1,1.55,.19,3.11,.29,4.66,.46,2.06,.93,4.12,1.43,6.38-1.49,1.33-3.17,2.69-4.67,4.22-4.18,4.28-10.19,6.95-11.89,13.43-1.45-.08-2.89-.15-4.34-.23,.42-.6,.84-1.21,1.26-1.81,.54-.39,1.07-.77,1.61-1.16-.44,.05-.88,.1-1.31,.15,.02-6.32,.03-12.63,.05-18.95,.23,0,.47-.02,.71-.02v7.74c.29,.01,.57,.02,.86,.03,.08-1.25,.16-2.5,.24-3.74,.64,1.15,1.11,2.45,1.97,3.4,.91,1,2.19,1.66,3.31,2.47,.5,.64,.99,1.29,2.52,3.27,.6-4.55,1.05-7.92,1.49-11.28,.24-1.98,.48-3.96,.72-5.94,1.68-1,3.36-1.99,5.05-2.99,.24,.12,.48,.24,.71,.38Zm-15.48,22.18c.91-1.38,1.47-1.84,1.44-2.27-.04-.58-.53-1.12-1.44-2.84v5.11Z"/>
      <path class="cls-26" d="M150.42,29.7c2.71,10.93,5.42,21.87,8.12,32.8,0,0-.24,.01-.24,.02-.54-.56-1.32-1.03-1.57-1.7-1.55-4.08-2.97-8.2-4.22-11.69-2.06,2.6-3.94,4.97-5.81,7.34-.3-6.65-.61-13.31-.91-19.96-.68-1.07-1.35-2.13-2.23-3.52,2.36-1.13,4.61-2.21,6.86-3.28Z"/>
      <path class="cls-21" d="M145.79,36.51c.3,6.65,.61,13.31,.91,19.96,0,6.99,0,13.97,0,20.96-.01,3-.02,6-.03,9-.24,1.98-.48,3.96-.72,5.94-.06-18.62-.11-37.25-.17-55.87Z"/>
      <path class="cls-19" d="M141.95,100.39c-1.12-.81-2.4-1.47-3.31-2.47-.86-.95-1.33-2.25-1.97-3.4-.03-2.34-.05-4.67-.08-7.01l4.07-2.99c.01,1.9,.03,3.81,.04,5.71,.3,3.09,.6,6.18,.9,9.27,.19,.27,.31,.56,.35,.88Z"/>
      <path class="cls-17" d="M140.66,84.52c-1.36,1-2.71,1.99-4.07,2.99,0-3.67,0-7.34,0-11.01,1.34,0,2.69,0,4.03,0,.02,2.67,.03,5.34,.05,8.01Z"/>
      <path class="cls-24" d="M141.6,99.5c-.3-3.09-.6-6.18-.9-9.27,.3,3.09,.6,6.18,.9,9.27Z"/>
      <path class="cls-22" d="M184.55,268.69c4.71,.59,9.42,1.19,14.13,1.78-3.33,.01-6.68,.2-9.99-.04-1.42-.11-2.76-1.13-4.14-1.74Z"/>
      <path class="cls-13" d="M25.1,119.72v-5.42h.96v5.41h-.96Z"/>
      <path class="cls-13" d="M28.66,113.27c.69,3.04,1.38,6.09,2.08,9.13-4.2-2.25-1.34-6.1-2.08-9.13Z"/>
      <path class="cls-5" d="M96.57,220.47c-.42,12.02-8.54,20.41-14.16,29.98-1.53,1.7-2.79,3.85-4.66,5.01-2.76,1.7-6.5,4.31-8.82,3.53-2.16-.73-3.01-5.36-4.44-8.28,.06-3.07,.11-6.15,.17-9.22,.52,.34,1.34,.58,1.52,1.05,.7,1.86,1.2,3.79,1.78,5.7,1.58-1.27,3.16-2.53,4.74-3.8,.6-.3,1.21-.6,1.81-.89,3.97-5.69,7.93-11.38,11.9-17.08,.73-1.23,1.97-2.42,2.08-3.7,.3-3.41-.37-6.96,.24-10.29,.65-3.6,.37-7.95,4.67-9.96,.17,.28,.33,.56,.5,.84,0,3.96,0,7.92,0,11.88,.52,0,1.03-.01,1.55-.02,.06-.94,.12-1.88,.19-2.83,.32,2.7,.63,5.39,.95,8.09Z"/>
      <path class="cls-7" d="M64.65,241.49c-.06,3.07-.11,6.15-.17,9.22-.21-.12-.44-.23-.67-.32-.05-19.58-.09-39.17-.14-58.75,.24-.11,.48-.21,.73-.32,.08,12.04,.17,24.08,.25,36.11,0,4.69,0,9.37,0,14.06Z"/>
      <path class="cls-5" d="M188.72,155.47c0-1.22,.01-2.45,.02-3.67,1.64-.66,3.28-1.32,4.91-1.99,1.35,4.87,.21,6.17-4.93,5.66Z"/>
      <path class="cls-28" d="M186.59,180.49c.61,.01,1.22,.02,1.83,.03-.02,21.32-.04,42.64-.06,63.96-.6,0-1.2,0-1.8-.01,0-21.32,.01-42.65,.02-63.97Z"/>
      <path class="cls-5" d="M165.57,244.52c-.33-1.24-.95-2.48-.95-3.71-.06-20.94-.05-41.87-.02-62.81,0-.9,.31-1.79,.48-2.69,.51,.01,1.01,.02,1.52,.03,0,16.39,0,32.78,0,49.16-.34,6.67-.69,13.35-1.03,20.02Z"/>
      <path class="cls-5" d="M221.77,264.1h-14.34c0-.33,0-.67-.01-1h14.32c.01,.33,.02,.67,.04,1Z"/>
      <path class="cls-3" d="M148.54,182.28c-1.06,1.58-3,3.15-3.04,4.76-.26,11.48-.3,22.98-.05,34.46,.12,5.49,3.36,9.74,6.48,13.86,.59-.08,1.19-.16,1.78-.25,0-5.03-.03-10.05,0-15.08,.03-4.79,.06-4.79,5.58-4.15v38.86c-2.96-2.55-5.37-3.92-6.76-5.97-4.37-6.48-8.57-13.09-12.36-19.92-1.45-2.61-2.19-5.92-2.26-8.94-.27-11.48,.19-22.99-.28-34.46-.21-5.27,.86-8.99,5.99-10.94,3.07-1.54,6.15-3.08,9.22-4.62,1.94-.78,3.88-1.56,7.14-2.87-.5,9.8-.96,18.71-1.42,27.62-2.44,0-4.88,0-6.61,0,.6-4.94,1.14-9.43,1.85-15.36-2.81,1.59-4.04,2.3-5.28,3Z"/>
      <path class="cls-6" d="M103.67,18.51c0,28.55,.04,57.11-.04,85.66,0,2.74-.71,5.48-1.1,8.21,0-2.31,.14-4.63,0-6.94-.19-3.15-1.61-3.83-4.09-1.69-.31-3.27-.88-6.53-.9-9.8-.12-15.81-.1-31.63-.13-47.44,.64-1.38,1.28-2.76,1.92-4.14,.37-.81,.73-1.62,1.09-2.43,3.67-6.47,2.72-13.1,.8-19.8-.35-1.21-.29-2.53-.41-3.8,.95,.72,1.9,1.45,2.85,2.17Z"/>
      <path class="cls-24" d="M64.66,227.43c-.08-12.04-.17-24.08-.25-36.11,2.1-3.98,5.34-5.37,8.78-3.44,2.96,1.66,5.71,3.68,8.55,5.54-1.83,2.09-3.67,4.18-5.5,6.28-.81,.29-1.62,.59-2.42,.88-.43,1.5-1.18,2.99-1.23,4.5-.18,5.45-.12,10.91-.16,16.37-1.01-1.39-2.02-2.78-3.86-5.31,0,2.83-.1,4.55,.02,6.26,.22,2.94-.78,4.8-3.94,5.04Z"/>
      <path class="cls-8" d="M58.56,157.77c-1.74-1.05-3.48-2.11-5.22-3.16,1.17-.06,2.34-.12,3.51-.18,1.19-.71,2.75-1.14,3.5-2.17,3.53-4.82,6.85-9.8,10.24-14.72,1.07,.8,2.14,1.61,3.2,2.41-3.39,5.01-6.77,10.01-10.45,15.46,5.4,2.58,10.52,5.03,15.63,7.47,.24-.41,.49-.82,.73-1.22-.7-.77-1.41-1.55-2.11-2.32,3.23,.98,6.72,1.49,9.63,3.06,3.13,1.69,6.25,3.96,8.37,6.75,1.73,2.27,1.98,5.67,2.89,8.56-1.65-.69-3.29-1.37-4.94-2.06-.14-.27-.2-.55-.19-.85,.55-.45,1.1-.9,1.65-1.35-.22-.18-.44-.35-.66-.53-.35,.61-.71,1.21-1.06,1.82-7.89-3.76-15.77-7.51-23.66-11.27-3.69-1.9-7.38-3.79-11.07-5.69Z"/>
      <path class="cls-19" d="M93.35,174.79c-.01,.3,.05,.58,.19,.85-.02,.28-.03,.57-.02,.85-1.92-.65-3.84-1.31-4.86-1.65-2.93,2.52-5.26,4.53-7.59,6.53,.58-.38,1.16-.77,1.75-1.15l3.78,6.12-.11,.36c-6.68-3.57-13.36-7.14-20.04-10.72-1.09-2.26-3.56-5.03-2.95-6.66,.89-2.39,3.98-3.95,6.13-5.87,7.89,3.76,15.77,7.51,23.66,11.27l.07,.06Z"/>
      <path class="cls-23" d="M97.41,46.52c.03,15.81,.01,31.63,.13,47.44,.03,3.27,.59,6.54,.9,9.8-.1,.29-.03,.53,.2,.73,.29,1.82,.59,3.64,.94,5.85-1.19-.88-2.05-1.51-2.91-2.14-3.64-3.27-7.29-6.53-10.93-9.8-1.1-1.21-2.2-2.41-3.29-3.62,.7-2.39,1.4-4.78,2.1-7.18,2.04,.97,4.09,1.93,6.13,2.9,2.75-1.31,3.59-2.64,.03-4,0-3.01-.01-6.02-.02-9.03,.63,1.52,1.16,3.09,1.93,4.53,.47,.87,1.3,1.55,1.97,2.31,.63-.8,1.73-1.56,1.81-2.42,.23-2.47,.04-4.97,.02-7.46,.03-6.13-.02-12.27,.14-18.4,.08-3.18,.55-6.36,.84-9.53Z"/>
      <path class="cls-13" d="M84.55,87.61c-.7,2.39-1.4,4.78-2.1,7.18-2.61-2.12-5.22-4.23-7.83-6.35,0,0,.02,.02,.02,.02-2.69-2.31-3.42-5.26-3.3-8.73,.09-2.75-.46-5.52-.73-8.28-.06-.98-.11-1.96-.17-2.93,.01-3.24,.02-6.48,.03-9.72,.08-2.12,.16-4.24,.23-6.36,.62,1.68,1.63,3.33,1.77,5.06,.28,3.43,.08,6.89,.08,10.34,.88,.03,1.76,.05,2.63,.08,.49-5.87,.98-11.75,1.47-17.62,.64,7.35,.92,14.75,2.06,22.02,.69,4.4-1.15,9.78,3.86,12.96,.26,.22,.52,.45,.78,.67,.39,.56,.79,1.11,1.18,1.67Z"/>
      <path class="cls-15" d="M73.79,139.95c-1.07-.8-2.14-1.61-3.2-2.41-.28-3.71-.55-7.41-.83-11.12-.14-2.02-.28-4.03-.42-6.05-.22-2.01-.43-4.03-.65-6.04-.76-5.27-1.52-10.55-2.28-15.82,.17-1.63,.33-3.26,.5-4.89,5.67,4.6,9.15,10.11,7.77,17.84-.24,1.37,.43,2.9,.68,4.36-.42,3-.92,6-1.25,9.01-.55,5.03,3.19,10.16-.32,15.14Z"/>
      <path class="cls-27" d="M137.6,112.51c1.7-6.48,7.71-9.15,11.89-13.43,1.5-1.53,3.18-2.89,4.67-4.22-.51-2.25-.97-4.32-1.43-6.38,1.32,.69,3.5,1.13,3.81,2.13,.96,3.17,1.87,6.62,1.5,9.81-.19,1.67-3.12,3.01-4.78,4.52-4.22,3.85-8.42,7.71-12.63,11.57-1.03-1.35-2.06-2.7-3.09-4.05l.07,.03Z"/>
      <path class="cls-21" d="M73.79,139.95c3.52-4.98-.23-10.11,.32-15.14,.33-3.01,.83-6,1.25-9.01,.73,6.05,1.47,12.11,2.21,18.17,1.2-.07,2.08-.12,3.89-.23-3.99,6.87-7.61,13.09-11.45,19.69,2.59,2.01,5.09,3.96,7.59,5.9,.7,.77,1.41,1.55,2.11,2.32-.24,.41-.49,.82-.73,1.22-5.11-2.44-10.22-4.89-15.63-7.47,3.68-5.44,7.06-10.45,10.45-15.46Z"/>
      <path class="cls-12" d="M76.24,199.7c1.83-2.09,3.67-4.18,5.5-6.28,3.88,3.03,7.76,6.06,11.64,9.09-4.3,2.01-4.02,6.36-4.67,9.96-.6,3.33,.06,6.87-.24,10.29-.11,1.29-1.35,2.47-2.08,3.7,.07-1.49,.04-3,.23-4.48,1.28-9.65-.68-17.77-10.38-22.29Z"/>
      <path class="cls-12" d="M93.52,176.49c0-.29,0-.57,.02-.85,1.65,.69,3.29,1.37,4.94,2.06,0,7.38,0,14.75,0,22.09-4.13-4.51-8.07-8.8-12-13.09,0,0,.11-.36,.11-.36,6.15-.58,5.56-5.9,6.93-9.85Z"/>
      <path class="cls-30" d="M69.62,163.46c-2.15,1.92-5.24,3.48-6.13,5.87-.61,1.63,1.86,4.4,2.95,6.66-4.63-2.48-9.26-4.97-13.88-7.46,1.77-.9,4.41-1.37,5.1-2.79,1.01-2.06,.61-4.81,.81-7.26,0-.24,.03-.48,.08-.71,3.69,1.9,7.38,3.79,11.07,5.69Z"/>
      <path class="cls-30" d="M120.54,102.49c.15-5-.93-10.35,3.98-14,.02,5.73-.03,11.46,.12,17.19,.05,1.78,.67,3.54,1.02,5.31,.29,.2,.58,.39,.87,.59,.62,1.42,1.25,2.83,1.87,4.25-2.61,.15-5.21,.29-7.82,.44-.7-1.25-1.4-2.5-2.09-3.75,.11-1.35,.21-2.71,.32-4.06,.58-1.99,1.15-3.98,1.73-5.96Z"/>
      <path class="cls-9" d="M160.75,122.86c.76,.12,1.51,.23,2.27,.35-.07,.32-.14,.65-.21,.97-1.88,9.02-.72,17.31,5.8,24.33-.67,1.27-1.35,2.53-2.02,3.8-4.07-6.73-8.13-13.46-12.2-20.19,.26-.22,.53-.44,.79-.66,1.18,.85,2.37,1.7,3.97,2.86,.57-4.07,1.09-7.76,1.6-11.46Z"/>
      <path class="cls-9" d="M137.33,152.12c-6.03,7.05-3.45,16.57-6.6,24.45-.43-.03-.87-.07-1.3-.1,0-6.31-.63-12.71,.31-18.88,.37-2.41,4.24-4.29,6.52-6.41,.35,.31,.71,.63,1.06,.94Z"/>
      <path class="cls-17" d="M58.48,158.48c-.2,2.45,.19,5.2-.81,7.26-.7,1.42-3.33,1.89-5.1,2.79-2.38-1.29-4.76-2.58-7.14-3.88,.38-.71,.77-1.43,1.15-2.14,2.67-.67,5.34-1.35,8.01-2.02,.66-.65,1.32-1.31,1.99-1.96,.64-.02,1.27-.03,1.91-.05Z"/>
      <path class="cls-12" d="M104.84,154.4c.55,.41,1.1,.81,1.65,1.22-.28,7.62-.55,15.24-.83,22.86-1.06-7.28-2.13-14.56-3.19-21.83,.79-.75,1.58-1.5,2.37-2.24Z"/>
      <path class="cls-15" d="M74.63,88.44c2.61,2.12,5.22,4.23,7.83,6.35,1.1,1.21,2.2,2.41,3.29,3.62-1.72-.64-3.44-1.28-5.16-1.92-.32-.51-.65-1.02-.97-1.53-.19,.19-.39,.39-.58,.58,.51,.32,1.02,.64,1.53,.97-2.44,2.36-5.22,1.54-9.22-2.79,1.08-1.74,2.18-3.51,3.28-5.29Z"/>
      <path class="cls-8" d="M126.54,111.58c-.29-.2-.58-.39-.87-.59-.03-10.81-.05-21.63-.08-32.45,.31-.38,.63-.75,.94-1.13,.01,7.21,.03,14.43,.04,21.64,0,2.22,0,4.43,1.13,6.81,.3-.46,.49-1.08,.91-1.36,.92-.62,1.96-1.07,2.94-1.59-.09,1.27,.25,2.84-.37,3.74-1.27,1.83-3.07,3.31-4.65,4.93Z"/>
      <path class="cls-27" d="M152.44,83.82c-.23-.13-.47-.26-.71-.38-.02-4.31-.04-8.62-.06-12.92-.14-1.97-.28-3.94-.42-5.92,.33-.05,.66-.1,.98-.15,.73,1.35,1.46,2.71,2.19,4.06,.77,2.62,1.54,5.25,2.31,7.87l-.32,.27c-6.42-.43-2.62,4.8-3.97,7.17Z"/>
      <path class="cls-12" d="M137.53,112.48c1.03,1.35,2.06,2.7,3.09,4.05-1.56,1.69-3.27,3.28-4.66,5.1-2.11,2.76-4.55,3.65-7.73,2.01,.72-.73,1.44-1.47,2.16-2.2,3.41-2.17,7.12-4.1,7.14-8.96Z"/>
      <path class="cls-22" d="M171.58,68.56c-.33,4.33-.66,8.65-.99,12.98-.23-.82-.46-1.64-.75-2.65-1.17,2.16-2.14,3.95-3.11,5.74l-.4-.29c.8-5.28,1.6-10.57,2.4-15.85,.95,.02,1.9,.05,2.84,.07Z"/>
      <path class="cls-15" d="M66.6,88.45c-.73-3.65-1.47-7.31-2.2-10.96,.13-2,.26-4,.39-5.99,2.83,4.17,5.62,8.31,2.39,13.61-.55,.9-.41,2.22-.59,3.35Z"/>
      <path class="cls-29" d="M166.59,152.31c.67-1.27,1.35-2.53,2.02-3.8,1.63,1.71,3.27,3.41,4.9,5.12,.01,.62,.02,1.25,.03,1.87-.99,.34-1.97,.68-2.96,1.01-1.36-.73-2.72-1.46-4.08-2.19,.03-.67,.06-1.34,.09-2.01Z"/>
      <path class="cls-18" d="M64.8,71.5c-.13,2-.26,4-.39,5.99-3.86-4.54-4.28-12.23-.87-15.96,.33,1.03,.66,2.05,.99,3.08,.09,2.29,.19,4.59,.28,6.88Z"/>
      <path class="cls-27" d="M166.73,84.63c-.13,1.3-.27,2.6-.39,3.83-1.92,.6-3.69,1.16-6.48,2.04-1.15-4.62-2.29-9.24-3.44-13.85,0,0,.32-.27,.32-.27,1.5,3.71,3,7.42,4.64,11.48,1.87-1.33,3.42-2.43,4.97-3.53l.4,.29Z"/>
      <path class="cls-9" d="M162.55,160.5c-3.69,1.99-7.37,3.99-11.06,5.98-1.36,.4-2.71,.8-4.07,1.19-.12-.27-.24-.54-.36-.81,4.5-2.81,9-5.61,13.5-8.42,.67,.68,1.33,1.37,2,2.05Z"/>
      <path class="cls-7" d="M105.66,178.48c.28-7.62,.55-15.24,.83-22.86,.38,2.3,.76,4.59,1.13,6.89,0,7.35,0,14.69-.01,22.04-.65-2.02-1.3-4.05-1.95-6.07Z"/>
      <path class="cls-23" d="M136.58,76.5c0,3.67,0,7.34,0,11.01,.03,2.34,.05,4.67,.08,7.01-.08,1.25-.16,2.5-.24,3.74-.29-.01-.57-.02-.86-.03,0-2.58,0-5.16,0-7.74-.23-4.65-.46-9.3-.7-13.94-.09-.37-.18-.74-.28-1.12,.02-.28,.02-.57,0-.85,0-.69,.01-1.39,.02-2.08,.33-.66,.65-1.32,.98-1.98h.48s.48,0,.48,0c0,2,.01,3.99,.02,5.99Z"/>
      <path class="cls-3" d="M162.55,160.5c-.67-.68-1.33-1.37-2-2.05,1.98-1.38,3.96-2.75,5.94-4.13,1.36,.73,2.72,1.46,4.08,2.19-2.68,1.33-5.35,2.66-8.03,3.99Z"/>
      <path class="cls-9" d="M104.84,154.4c-.79,.75-1.58,1.5-2.37,2.24-2.44-2.54-4.88-5.08-7.32-7.61,.35-.41,.71-.81,1.06-1.22,2.88,2.2,5.75,4.39,8.63,6.59Z"/>
      <path class="cls-7" d="M130.39,121.44c-.72,.73-1.44,1.47-2.16,2.2-4.89-.39-9.78-.79-14.67-1.18,.02-.34,.03-.68,.05-1.02h16.78Z"/>
      <path class="cls-6" d="M96.68,108.21c.86,.63,1.72,1.26,2.91,2.14-.36-2.21-.65-4.03-.94-5.85,.89,3.63,1.78,7.26,2.67,10.88-.68,.19-1.36,.37-2.03,.56-.87-2.58-1.74-5.15-2.61-7.73Z"/>
      <path class="cls-12" d="M95.62,212.39c-.06,.94-.12,1.88-.19,2.83-.52,0-1.03,.01-1.55,.02,0-3.96,0-7.92,0-11.88,.58,3.01,1.16,6.02,1.74,9.03Z"/>
      <path class="cls-7" d="M120.59,116.27c2.61-.15,5.21-.29,7.82-.44,.07,.41,.13,.81,.19,1.22-7.37-.17-14.73-.35-22.1-.52,4.69-.09,9.39-.17,14.08-.26Z"/>
      <path class="cls-15" d="M70.61,71.45c.27,2.76,.82,5.53,.73,8.28-.12,3.47,.62,6.42,3.3,8.73-2.88,.38-4.23-.72-4.11-3.79,.17-4.4,.06-8.81,.07-13.22Z"/>
      <path class="cls-19" d="M134.88,76.55c.23,4.65,.46,9.3,.7,13.94-.24,0-.47,.01-.71,.02,0-4.66,0-9.31,.01-13.97Z"/>
      <path class="cls-19" d="M135.6,70.51c-.33,.66-.65,1.32-.98,1.98-.99,.01-1.97,.03-2.96,.04,1.29-1,2.58-2,3.87-2.99,.02,.32,.04,.65,.07,.97Z"/>
      <path class="cls-19" d="M47.65,198.46c-2.77,2.55-2.55-.27-3.09-1.72,1.03,.57,2.06,1.15,3.09,1.72Z"/>
      <path class="cls-15" d="M66.73,90.5c-.04-.67-.08-1.34-.12-2.01,.49,.32,.97,.64,1.46,.96-.45,.35-.89,.7-1.34,1.05Z"/>
      <path class="cls-19" d="M134.82,109.47c.44-.05,.88-.1,1.31-.15-.54,.39-1.07,.77-1.61,1.16,.1-.34,.2-.67,.29-1.01Z"/>
      <path class="cls-17" d="M39.64,163.29c.97,.02,1.93,.04,2.9,.05-.97-.02-1.93-.04-2.9-.05Z"/>
      <path class="cls-9" d="M136.27,151.18c.64-.14,1.29-.28,1.93-.42-.29,.45-.58,.91-.87,1.36-.35-.31-.7-.63-1.06-.94Z"/>
      <path class="cls-19" d="M134.6,74.58c.02,.29,.02,.57,0,.85-.26-.14-.52-.29-.77-.43,.26-.14,.52-.28,.78-.43Z"/>
      <path class="cls-9" d="M154.01,130.37c-.08-.11-.22-.22-.21-.32,.01-.1,.18-.18,.28-.26,.08,.11,.22,.22,.21,.32-.01,.1-.18,.17-.28,.26Z"/>
      <path class="cls-7" d="M108.54,185.47c.34,.48,.68,.96,1.02,1.44-.34-.48-.68-.96-1.02-1.44Z"/>
      <path class="cls-7" d="M107.54,184.47c.36,.36,.71,.71,1.07,1.07-.36-.36-.71-.71-1.07-1.07Z"/>
      <path class="cls-21" d="M166.33,84.33c-1.55,1.1-3.1,2.2-4.97,3.53-1.64-4.06-3.14-7.77-4.64-11.48-.77-2.62-1.54-5.25-2.31-7.87,5.19,.52,4.18-2.97,3.88-6,0,0,.24-.01,.24-.01,.83,.93,1.66,1.86,3.48,3.9,.93-8.16,1.71-15.06,2.5-21.97,0,4.13,0,8.26,0,12.39,.68,.04,1.35,.08,2.03,.11,.68-3.92,1.32-7.86,2.11-11.76,.07-.35,1.15-.49,1.76-.72-.57,8.01-1.13,16.02-1.7,24.03-.8,5.28-1.6,10.57-2.4,15.85Z"/>
      <path class="cls-10" d="M170.43,44.46c-.61,.24-1.69,.38-1.76,.72-.79,3.9-1.43,7.83-2.11,11.76-.68-.04-1.35-.08-2.03-.11,0-4.13,0-8.26,0-12.39,0,0,.05,.07,.05,.07,.67-1.47,1.87-2.92,1.89-4.4,.06-2.9,1.32-3.85,3.95-3.61,.05,.99,.1,1.98,.14,2.98l-.13,4.99Z"/>
      <path class="cls-23" d="M170.56,39.47c-.05-.99-.1-1.98-.14-2.98-1.37-.63-2.74-1.26-4.11-1.89-.59,1.32-1.17,2.65-1.76,3.97-2.17-3.56-4.35-7.12-6.52-10.69,4.7,.5,9.4,.99,14.13,1.49-.6,3.76-1.1,6.92-1.6,10.08Z"/>
      <path class="cls-19" d="M172.92,58.59c.02,.62,.03,1.23,.05,1.85-.02-.62-.03-1.23-.05-1.85Z"/>
      <path class="cls-2" d="M186.59,180.49c0,21.32-.01,42.65-.02,63.97-1.33-.99-3.75-1.91-3.82-2.98-.9-13.81-1.92-27.63-1.99-41.45-.05-10.81,1.12-21.63,1.9-32.43,.07-1,1.23-1.93,1.88-2.89,.67,.94,1.88,1.85,1.93,2.82,.22,4.31,.1,8.63,.11,12.95Z"/>
      <path class="cls-10" d="M69.75,126.42c.28,3.71,.55,7.41,.83,11.12-3.39,4.92-6.7,9.9-10.24,14.72-.75,1.03-2.31,1.46-3.5,2.17,.87-3.74,1.73-7.48,2.6-11.22,.28,.03,.57,.09,.85,.07,.08,0,.21-.24,.21-.38,.08-5.13,.14-10.26,.21-15.38,1.01,1.4,2.01,2.81,3.96,5.53v-16.44c2.04,3.93,3.56,6.87,5.09,9.82Z"/>
      <path class="cls-26" d="M69.75,126.42c-1.53-2.94-3.05-5.89-5.09-9.82v16.44c-1.95-2.72-2.95-4.12-3.96-5.53-.43-3.63-.86-7.27-1.29-10.9-.48-3.43-.95-6.86-1.43-10.3,.85-1.94,1.7-3.87,2.55-5.8,.55,2.69-1.39,6.33,2.79,8.03,1.11-3.64,2.09-6.85,3.07-10.05,.76,5.28,1.52,10.55,2.28,15.82,.22,2.01,.43,4.03,.65,6.04,.14,2.02,.28,4.03,.42,6.05Z"/>
      <path class="cls-21" d="M59.42,116.61c.43,3.63,.86,7.26,1.29,10.9-.07,5.13-.13,10.26-.21,15.38,0,.13-.13,.37-.21,.38-.28,.02-.56-.04-.85-.07,0-8.86-.01-17.73-.02-26.59Z"/>
      <path class="cls-10" d="M54.59,160.49c-2.67,.67-5.34,1.34-8.01,2.02-2.38-.92-4.77-1.85-7.71-2.98,.46-1.45,.66-3.33,1.61-4.7,.76-1.09,2.84-2.49,3.61-2.14,3.63,1.64,7.01,3.83,10.48,5.83-.48,.33-.97,.67-1.45,1,.49,.33,.98,.65,1.47,.98Z"/>
      <path class="cls-30" d="M54.59,160.49l-1.47-.98c.48-.33,.97-.67,1.45-1,.67,0,1.34,0,2,.01-.66,.65-1.32,1.31-1.99,1.96Z"/>
      <path class="cls-28" d="M148.54,182.28c1.23-.7,2.47-1.4,5.28-3-.72,5.94-1.26,10.42-1.85,15.36,1.73,0,4.17,0,6.61,0,3.52,5.13,2.2,10.93,1.54,16.33-.22,1.76-4.09,3.06-6.3,4.57-.44-.35-.89-.69-1.33-1.04v17.14c-3.76-4.51-6.36-9.01-6.03-14.99,.46-8.29-.05-16.62,.22-24.92,.1-3.17,1.22-6.31,1.87-9.46Z"/>
      <path class="cls-28" d="M84.57,250.49c.33-.53,.66-1.06,1-1.58,.19,.21,.38,.42,.57,.63-.52,.32-1.03,.65-1.55,.97,0,0-.02-.02-.02-.02Z"/>
      <path class="cls-26" d="M60.58,98.48c0-.66,0-1.31,0-1.97,0-.67,0-1.34,.01-2.01,0,0,0,0,0,0,2.77,1.32,2.78,2.64,0,3.97Z"/>
      <path class="cls-1" d="M76.67,50.29c-.49,5.87-.98,11.75-1.47,17.62-.88-.03-1.76-.05-2.63-.08,0-3.45,.2-6.91-.08-10.34-.14-1.72-1.15-3.37-1.77-5.06-.06-6.46-.01-12.92-.26-19.37-.06-1.56-1.1-3.08-1.69-4.62,1-1.89-5.5-4.82,.83-5.97,3.66,1.96,7.33,3.92,10.99,5.87,.29,1.02,.58,2.04,.87,3.06-.31-.01-.6,.06-.86,.22-.66,.37-1.33,.73-1.99,1.1-4.32,5.45-3.28,11.49-1.92,17.56Z"/>
      <path class="cls-25" d="M80.58,28.35c-3.66-1.96-7.33-3.92-10.99-5.87,2.11-1.32,4.23-2.64,6.34-3.97,.89-.56,1.76-1.13,2.65-1.69,3.34-.06,6.67-.12,10.01-.17-1.75,2.31-3.5,4.63-5.39,7.12,2.22,1.14,4.6,2.35,7.39,3.78-2.07,2.72-3.76,4.01-6.6,1.43-.73-.66-2.25-.45-3.4-.63Z"/>
      <path class="cls-23" d="M68.76,28.45c.59,1.54,1.63,3.06,1.69,4.62,.25,6.45,.2,12.91,.26,19.37-.08,2.12-.15,4.24-.23,6.36-.37-6.53-.74-13.05-1.11-19.58-.2-3.59-.4-7.18-.61-10.77Z"/>
      <path class="cls-1" d="M60.59,94.51c0,.67,0,1.34-.01,2.01-.49-.34-.97-.68-1.46-1.02,.49-.33,.98-.66,1.47-.99Z"/>
      <path class="cls-28" d="M80.58,28.35c1.16,.19,2.67-.03,3.4,.63,2.84,2.57,4.52,1.29,6.6-1.43-2.79-1.43-5.17-2.65-7.39-3.78,1.89-2.5,3.64-4.81,5.39-7.12,4.08-.1,8.16-.2,12.24-.3,.13,1.27,.07,2.59,.41,3.8,1.92,6.7,2.87,13.34-.8,19.8-.96-.48-1.92-.95-2.87-1.43,.09-.53,.17-1.07,.26-1.6-1.05,.07-2.11,.14-3.16,.21-1.69-.57-3.39-1.14-5.08-1.71l.06,.1c-.65-.02-1.29-.04-1.94-.05,.05,1.79,.07,3.58,.17,5.37,.12,2.1,1.04,4.46,.36,6.24-2.47,6.47-2.57,12.73-.05,19.16,.51,1.31,.64,3.06,.24,4.39-1.53,5.15-3.34,10.22-5.05,15.32-.26-.22-.52-.45-.78-.67-.34-5.59-.68-11.17-1.02-16.76,.94-.48,2.41-.74,2.74-1.49,2.43-5.56-.38-13.39-5.72-16.52,0-5.92,0-11.85,.01-17.77,.66-.37,1.33-.73,1.99-1.1,1.51,5.94-2.7,12.93,3.43,19.06,1.24-7.41,.77-13.54-2.57-19.28-.29-1.02-.58-2.04-.87-3.06Z"/>
      <path class="cls-26" d="M164.55,38.58c.59-1.32,1.17-2.65,1.76-3.97,1.37,.63,2.74,1.26,4.11,1.89-2.64-.24-3.9,.71-3.95,3.61-.03,1.48-1.23,2.93-1.89,4.4,0-1.97-.01-3.95-.02-5.92Z"/>
      <path class="cls-7" d="M118.81,108.46c-.11,1.35-.21,2.71-.32,4.06-2.36,3.28-2.55-.62-3.77-1.13,.96-1.46,2.72-2.9,2.76-4.38,.25-9.7,.25-19.41,.09-29.11-.13-7.49-.69-14.98-.93-22.47-.12-3.69,.04-7.39,.07-11.09,.62,1.52,1.71,3.01,1.77,4.55,.25,6.53,.2,13.07,.26,19.6,.03,11.33,.07,22.66,.1,33.98,0,1.99-.02,3.98-.03,5.98Z"/>
      <path class="cls-21" d="M112.39,58.48c0-4.65,.01-9.3,.02-13.95,0,4.65-.01,9.3-.02,13.95Z"/>
      <path class="cls-27" d="M136.75,30.68c-1.36,.68-2.72,1.37-4.07,2.05,1.36-.68,2.72-1.37,4.07-2.05Z"/>
      <path class="cls-21" d="M112.35,90.48c0-1.98,0-3.97,.01-5.95,0,1.98,0,3.97-.01,5.95Z"/>
      <path class="cls-21" d="M112.38,69.49c-.09-.23-.22-.45-.27-.69-.01-.07,.18-.19,.27-.29,0,.33,0,.65,0,.98Z"/>
      <path class="cls-10" d="M110.57,77.51c.01,5.01,.02,10.03,.04,15.04,.08,5.06,.98,10.43-5.85,13.53,0-7.37,0-14.49,0-21.62,.91-2.66,1.82-5.32,2.81-8.21,.78,.33,1.89,.79,3.01,1.26Z"/>
      <path class="cls-4" d="M134.6,63.52c-2.73,1.43-5.45,2.86-9.34,4.9,0-8.63,0-16.26,0-23.9,3.07-1.59,6.13-3.17,9.2-4.76,.11,.58,.22,1.16,.33,1.74,.04,6.31,.07,12.62,.11,18.93,0,.69,0,1.38,0,2.06-.1,.34-.2,.68-.3,1.02Z"/>
      <path class="cls-26" d="M134.78,41.5c-.11-.58-.22-1.16-.33-1.74,.7,.5,1.99,.97,2.02,1.5,.18,3.81,0,7.63,.15,11.43,.08,1.94,.62,3.87,.95,5.8-.63,1.33-1.25,2.67-1.88,4-.27-.04-.53-.04-.8,0,0-.69,0-1.38,0-2.06-.04-6.31-.07-12.62-.11-18.93Z"/>
      <path class="cls-7" d="M125.59,78.55c.03,10.82,.05,21.63,.08,32.45-.36-1.77-.98-3.53-1.03-5.31-.15-5.73-.1-11.46-.12-17.19,.36-3.32,.71-6.64,1.07-9.95Z"/>
      <path class="cls-17" d="M118.81,108.46c0-1.99,.02-3.98,.03-5.98,.57,0,1.13,0,1.7,.01-.58,1.99-1.15,3.98-1.73,5.96Z"/>
      <path class="cls-17" d="M135.6,70.51c-.03-.32-.05-.65-.07-.97,.87-.4,1.74-.8,2.62-1.19-.53,.72-1.06,1.44-1.59,2.17,0,0-.48,0-.48,0h-.48Z"/>
      <path class="cls-21" d="M134.9,62.49c.27-.04,.53-.04,.8,0-.36,.34-.73,.68-1.1,1.02,.1-.34,.2-.68,.3-1.02Z"/>
      <path class="cls-30" d="M151.66,70.52c.02,4.31,.04,8.62,.06,12.92-1.68,1-3.37,1.99-5.05,2.99,.01-3,.02-6,.03-9,.63-1.26,1.11-2.62,1.92-3.75,.85-1.17,2.01-2.12,3.04-3.16Z"/>
      <path class="cls-19" d="M136.95,106v-5.11c.91,1.72,1.4,2.26,1.44,2.84,.03,.43-.53,.9-1.44,2.27Z"/>
      <path class="cls-17" d="M151.66,70.52c-1.03,1.05-2.19,1.99-3.04,3.16-.81,1.13-1.29,2.49-1.92,3.75,0-6.99,0-13.98,0-20.96,1.88-2.37,3.76-4.74,5.81-7.35,1.24,3.49,2.67,7.61,4.22,11.69,.25,.67,1.04,1.14,1.57,1.7,.3,3.03,1.3,6.52-3.88,6-.73-1.35-1.46-2.71-2.19-4.06-.33,.05-.66,.1-.98,.15,.14,1.97,.28,3.94,.42,5.92Z"/>
      <path class="cls-20" d="M76.24,199.7c9.7,4.52,11.66,12.64,10.38,22.29-.2,1.48-.16,2.98-.23,4.48-3.97,5.69-7.93,11.38-11.9,17.08-.32-.9-.93-1.79-.93-2.69,.04-13.43,.15-26.85,.25-40.28,.81-.29,1.62-.59,2.42-.88Z"/>
      <path class="cls-12" d="M64.66,227.43c3.16-.24,4.16-2.1,3.94-5.04-.13-1.71-.02-3.43-.02-6.26,1.84,2.53,2.85,3.92,3.86,5.31,1.67,7.64-2.72,15.36,.25,22.99-1.58,1.27-3.16,2.53-4.74,3.8-.57-1.91-1.07-3.84-1.78-5.7-.18-.47-1-.71-1.52-1.05,0-4.69,0-9.37,0-14.06Z"/>
      <path class="cls-9" d="M72.69,244.44c-2.97-7.63,1.41-15.34-.25-22.99,.03-5.46-.03-10.92,.15-16.37,.05-1.51,.8-3,1.23-4.5-.1,13.43-.21,26.85-.25,40.28,0,.89,.6,1.79,.93,2.69-.6,.3-1.21,.6-1.81,.89Z"/>
      <path class="cls-18" d="M89.57,35.42c1.69,.57,3.39,1.14,5.08,1.71,.97,.46,1.93,.93,2.9,1.39,.96,.48,1.92,.95,2.87,1.43-.36,.81-.72,1.62-1.09,2.43-.64,1.38-1.28,2.76-1.92,4.14-.29,3.18-.76,6.35-.84,9.53-.16,6.13-.1,12.27-.14,18.4-1.28-1.37-3.24-2.55-3.69-4.16-.64-2.28,.07-4.91-.24-7.33-.28-2.2-1.16-4.32-1.78-6.47-.38-7.03-.77-14.05-1.15-21.08Z"/>
      <path class="cls-4" d="M93.29,174.73c.35-.61,.71-1.21,1.06-1.82,.22,.18,.44,.35,.66,.53-.55,.45-1.1,.9-1.65,1.35,0,0-.07-.06-.07-.06Z"/>
      <path class="cls-24" d="M93.52,176.49c-1.37,3.94-.78,9.27-6.93,9.85-1.26-2.04-2.52-4.08-3.78-6.12-.58,.38-1.16,.77-1.75,1.15,2.33-2.01,4.66-4.01,7.59-6.53,1.02,.35,2.94,1,4.86,1.65Z"/>
      <path class="cls-25" d="M89.57,35.42c.38,7.03,.77,14.05,1.15,21.08,0,7-.02,13.99-.03,20.99,0,3.01,.01,6.02,.02,9.03,0,1.33-.02,2.66-.03,4-2.04-.97-4.09-1.93-6.13-2.9-.39-.56-.79-1.11-1.18-1.67,1.71-5.1,3.52-10.17,5.05-15.32,.4-1.34,.27-3.08-.24-4.39-2.52-6.43-2.42-12.69,.05-19.16,.68-1.77-.24-4.14-.36-6.24-.1-1.79-.12-3.58-.17-5.37,.65,.02,1.29,.04,1.94,.05l-.06-.1Z"/>
      <path class="cls-13" d="M90.69,77.49c0-7,.02-13.99,.03-20.99,.62,2.15,1.5,4.27,1.78,6.47,.31,2.42-.4,5.04,.24,7.33,.45,1.6,2.41,2.79,3.69,4.16,.02,2.49,.21,4.99-.02,7.46-.08,.85-1.18,1.61-1.81,2.42-.67-.76-1.51-1.44-1.97-2.31-.77-1.44-1.3-3.01-1.93-4.53Z"/>
      <path class="cls-13" d="M90.68,90.51c0-1.33,.02-2.66,.03-4,3.57,1.36,2.72,2.68-.03,4Z"/>
      <path class="cls-6" d="M81.57,68.51c.34,5.59,.68,11.17,1.02,16.76-5.01-3.17-3.17-8.56-3.86-12.96-1.14-7.27-1.42-14.67-2.06-22.02-1.36-6.07-2.4-12.11,1.92-17.56,0,5.92,0,11.85-.01,17.77-.04,6.17-.6,12.43,2.99,18Z"/>
      <path class="cls-10" d="M69.34,120.36c-.22-2.01-.43-4.03-.65-6.04,.22,2.01,.43,4.03,.65,6.04Z"/>
      <path class="cls-4" d="M80.56,96.52c-.51-.32-1.02-.64-1.53-.97,.19-.19,.39-.39,.58-.58,.32,.51,.65,1.02,.97,1.53,0,0-.02,.02-.02,.02Z"/>
      <path class="cls-25" d="M81.44,31.41c3.34,5.74,3.81,11.88,2.57,19.28-6.13-6.13-1.92-13.13-3.43-19.06,.27-.16,.55-.23,.86-.22Z"/>
      <path class="cls-25" d="M81.57,68.51c-3.59-5.57-3.03-11.83-2.99-18,5.35,3.13,8.15,10.95,5.72,16.52-.33,.75-1.8,1-2.74,1.49Z"/>
      <path class="cls-6" d="M97.55,38.52c-.97-.46-1.94-.93-2.9-1.39,1.05-.07,2.11-.14,3.16-.21-.09,.53-.17,1.07-.26,1.6Z"/>
      <path class="cls-18" d="M89.63,35.52c-.65-.02-1.29-.04-1.94-.05,.65,.02,1.29,.04,1.94,.05Z"/>
      <path class="cls-21" d="M134.78,41.5c.04,6.31,.07,12.62,.11,18.93-.04-6.31-.07-12.62-.11-18.93Z"/>
    </g>
  </g>
</svg>